<?xml version="1.0" encoding="UTF-8"?>
<svg id="Layer_2" data-name="Layer 2" xmlns="http://www.w3.org/2000/svg" viewBox="0 0 149.57 156.8">
  <defs>
    <style>
      .cls-1 {
        opacity: .6;
      }

      .cls-2 {
        fill: #231f20;
      }
    </style>
  </defs>
  <g id="Layer_1-2" data-name="Layer 1">
    <path class="cls-2" d="M79.18,4.43c-12.13-1.99-24.67,.63-35.35,6.6-10.67,5.97-19.57,15.29-24.37,26.59-2.36,5.57-3.7,11.54-4.07,17.57s-.2,12.2,.91,18.15c2.25,12.08,8.17,23.56,17.08,32.07,9.4,8.99,21.93,14.16,34.81,15.33,12.93,1.17,26.29-1.63,37.41-8.39,11.49-6.99,20.73-18.21,24.29-31.28,1.77-6.49,2-13.41,1.52-20.1-.51-7.1-2.42-14.05-5.28-20.56-5.62-12.78-14.97-24.52-26.71-32.17C87.89,.7,73.31-2.44,60.03,2.12c-3.17,1.09-6.16,2.62-8.89,4.55-.18,.12-.02,1.64-.02,1.88s.19,1.75,.02,1.88c10.93-7.72,25.54-8.38,37.85-3.77,12.56,4.71,22.89,14.34,30.37,25.3,3.92,5.74,7.09,12.01,9.24,18.62,1.06,3.27,1.87,6.63,2.37,10.03,.27,1.8,.44,3.62,.53,5.44,.01,.3,.06,1.94,.04,.75s-.03,.26-.05,.53c-.05,1-.13,2-.25,2.99-1.5,13.17-8.76,25.07-18.88,33.46s-22.01,12.6-34.6,13.35c-12.5,.75-25.3-2.18-35.93-8.88-10.13-6.39-17.81-16.15-22.22-27.24-2.19-5.5-3.58-11.32-4.1-17.22-.07-.8-.12-1.6-.16-2.41-.02-.38-.02-.76-.04-1.14-.04-.89-.01,.87,0,.86,.09-.2,.02-.64,.03-.87,.06-1.57,.18-3.13,.37-4.69,.36-2.92,.95-5.82,1.79-8.65,3.35-11.37,10.72-21.21,20.25-28.18,9.47-6.93,21.07-11.1,32.84-11.19,2.88-.02,5.76,.21,8.6,.67-.17-.03,.23-3.71,0-3.75h0Z"/>
    <path class="cls-2" d="M52.63,76.19c4.41-6.1,11.11-10.45,18.54-11.79,4.06-.74,8.48-.52,12.04,1.78,3.85,2.49,5.08,6.46,4.99,10.87-.09,4.65-.02,9.55-.97,14.11-.79,3.78-2.41,7.94-5.19,10.71-2.58,2.58-6.28,2.91-8.59-.2s-1.99-6.85-2.83-10.35c-.49-2.06-1.46-3.86-3.11-5.22s-3.48-2.13-5.32-2.96c-3.44-1.55-7.7-3.81-7.89-8.1,.01,.3-.02,.83,0,1.21,.17,3.78,3.58,6.14,6.71,7.6,3.45,1.62,7.38,3.02,9,6.79s.87,7.9,2.89,11.43c.84,1.47,2.13,2.77,3.84,3.11,1.89,.37,3.67-.53,5.03-1.79,3.06-2.84,4.78-7.39,5.54-11.4,.88-4.61,.78-9.48,.9-14.16,.08-3.17,.14-6.58-1.54-9.39-2.09-3.49-6.08-5.31-10.02-5.62-9.31-.73-18.69,4.75-24.02,12.12-.2,.28,.19,.98,0,1.25h0Z"/>
    <path class="cls-2" d="M57.82,8.24c-1.16,2.54,.27,5.37,2.63,6.54,1.92,.95,4.13,1.45,6.16,2.1,2.24,.71,4.47,1.45,6.73,2.11,4.35,1.26,8.98,2.09,13.34,.4,3.85-1.49,6.93-4.41,9.86-7.21,.21-.2-.2-1.06,0-1.25-2.56,2.44-5.2,4.94-8.39,6.55-3.6,1.82-7.51,1.92-11.41,1.12s-7.84-2.24-11.71-3.47c-1.7-.54-3.55-.97-5.1-1.88-1.23-.72-2.82-2.24-2.12-3.77,.16-.35-.16-.91,0-1.25h0Z"/>
    <path class="cls-2" d="M101.82,110.04c-17.2-3.55-35.08-3.11-52.09,1.27-.11,.03,.09,1.23,0,1.25,17-4.38,34.89-4.82,52.09-1.27-.07-.02,.09-1.23,0-1.25h0Z"/>
    <path class="cls-2" d="M49.01,25.46c2.98,.05,5.8,1.63,7.36,4.18,1.64,2.68,1.29,5.74-.55,8.23-3.6,4.9-10.62,3.39-15.13,6.8-2.49,1.89-3.19,4.97-4.34,7.71-1.07,2.56-3.51,5.84-6.73,5.07-1.21-.29-2.17-1.18-2.76-2.26-.93-1.7-.64-3.38,.05-5.12,1.22-3.06,3.19-5.92,5.24-8.48,4.47-5.6,10.26-10.06,16.8-12.97,.16-.07-.15-1.18,0-1.25-6.6,2.94-12.44,7.45-16.92,13.12-2.21,2.8-4.55,6.08-5.53,9.55-.62,2.18-.63,5.08,.73,6.97,2.31,3.21,6.12,1.46,7.98-1.22,1.99-2.87,2.17-6.71,4.74-9.23,4.61-4.52,12.98-2.15,16.46-8.34,1.24-2.21,1.53-5.28,.88-7.74-.98-3.67-4.53-6.21-8.27-6.28,0,0-.02,1.25,0,1.25h0Z"/>
    <path class="cls-2" d="M37.01,19.88c-7.81,10.57-16.1,21.99-16.48,35.65-.15,5.13,.5,10.28,2.89,14.89,2.95,5.72,8.33,9.55,11.97,14.77,1.82,2.6,2.81,5.47,3.14,8.61,.07,.64,.01,.28,.02,.12,0,.53-.07,1.07-.17,1.59-.13,.73-.33,1.44-.62,2.12-.54,1.28-1.38,2.36-2.46,3.24-.21,.17,.2,1.09,0,1.25,3.29-2.69,3.72-7.27,3.03-11.21-1.04-5.94-5.43-10.09-9.36-14.32-2.11-2.27-4.12-4.64-5.55-7.41s-2.27-5.74-2.66-8.8c-.85-6.84,1.03-13.8,3.9-19.97,3.24-6.95,7.82-13.15,12.35-19.28,.2-.27-.2-.99,0-1.25h0Z"/>
    <path class="cls-2" d="M67.19,54.84c4.79-1.2,9.9-.39,14.62,.8,2.33,.59,4.7,1.15,6.76,2.41s4.01,2.49,5.96,3.82c3.92,2.66,7.69,5.58,11.09,8.88,1.78,1.72,3.46,3.55,5.01,5.48,.75,.93,1.48,1.89,2.17,2.87s1.22,2.1,1.99,2.97c1.29,1.45,3.41,1.32,5.16,1.01,2.12-.38,4.15-1.15,6.26-1.56,.09-.02-.07-1.24,0-1.25-1.85,.36-3.64,.99-5.48,1.4-1.6,.36-3.53,.7-5.04-.13-.74-.4-1.14-1.03-1.57-1.73-.71-1.15-1.51-2.26-2.32-3.34-1.5-1.99-3.13-3.89-4.87-5.67-3.32-3.41-7.04-6.43-10.93-9.17-1.94-1.36-3.92-2.66-5.93-3.91-.91-.57-1.85-1.29-2.83-1.73-1.12-.5-2.43-.78-3.61-1.12-5.24-1.48-11.04-2.64-16.43-1.29-.11,.03,.09,1.23,0,1.25h0Z"/>
    <path class="cls-2" d="M82.21,29.56c1.71-1.92,2.91-4.32,4.81-6.07,.63-.58,1.44-1.16,2.35-.95,.83,.19,1.98,1.3,1.99,2.19v-1.07c-.18,2.15-2.24,3.66-2.57,5.77-.08,.54-.1,1.19-.03,1.73,.14,1.15,1.29,1.8,2.22,2.3,5.11,2.75,10.73-1.15,15.02-3.73,2.76-1.65,5.62-3.39,8.83-3.98,.08-.02-.07-1.24,0-1.25-5.13,.95-9.32,4.59-13.89,6.87-2.1,1.04-4.42,1.94-6.8,1.77-1.11-.08-2.18-.4-3.16-.93-.85-.46-2.21-1.18-2.22-2.29v1.07c.15-1.86,1.64-3.32,2.32-4.99,.39-.95,.53-2.42-.04-3.32-1.22-1.91-2.87-1.61-4.31-.15-1.72,1.75-2.89,3.95-4.51,5.78-.21,.24,.2,1.02,0,1.25h0Z"/>
    <path class="cls-2" d="M65.5,30.96c2.68-2.68,6.33-4.5,8.08-8.01v-1.25c-.32,.75-.47,1.52-.48,2.34s-.03,1.6,.14,2.38c-.08-.4,.08-.85,0-1.25-.05-.23-.09-.47-.11-.7l-.02-.26c-.01,.68,0,.85,.02,.51,.02-.14,.03-.27,.05-.41,.08-.47,.22-.92,.4-1.36,.06-.15,0-.46,0-.62,0-.15-.08-.49,0-.62-1.76,3.51-5.4,5.32-8.08,8.01-.07,.07,0,.53,0,.62s.08,.56,0,.62h0Z"/>
    <path class="cls-2" d="M63.93,36.44c-.03-.3-.05-.61-.06-.91,0-.09,0-.2,0-.29,0,.05-.01,.72,0,.33,0-.14,.01-.27,.02-.41,.04-.62,.13-1.24,.3-1.84,.31-1.13,.9-2.14,1.82-2.88,.06-.05,0-.54,0-.62s-.07-.58,0-.62c-1.22,.97-1.81,2.41-2.03,3.92s-.16,3.07-.04,4.58c-.03-.41,.03-.84,0-1.25h0Z"/>
    <path class="cls-2" d="M67.36,53.26c-1.7,.37-3.63,.26-4.7-1.31-.43-.64-.66-1.39-.77-2.15-.03-.23-.04-.46-.07-.69-.04-.48-.04,.75,0,.34,.01-.15,.02-.29,.03-.44,.04-.44,.1-.87,.19-1.3,.19-.94,.49-1.85,.92-2.71,.07-.14,0-.47,0-.62s-.08-.49,0-.62c-.92,1.88-1.17,3.87-1.15,5.94,.01,1.7,.36,3.66,1.99,4.56,1.09,.6,2.39,.52,3.57,.26,.1-.02-.08-1.23,0-1.25h0Z"/>
    <path class="cls-2" d="M63.87,37.24c3.31,.25,6.54-1.62,7.99-4.61,.07-.14,0-.47,0-.62s-.07-.48,0-.62c-1.45,2.99-4.67,4.86-7.99,4.61,.02,0-.04,1.25,0,1.25h0Z"/>
    <path class="cls-2" d="M77.4,34.82c-.28,.67-.47,2.02-.05,2.67,.57,.91,2,.89,2.82,1.47,.31,.22,.57,.52,.74,.86,.11,.21,.14,.42,.21,.64-.15-.47,.02-.34-.05,.02-.18,.88-.56,1.72-.91,2.54-.57,1.37-1.37,2.45-2.92,2.65-1.19,.15-2.39-.19-3.57,0-.59,.1-1.12,.33-1.56,.75-.1,.1-.21,.29-.32,.36-.25,.16-.16,.15-.38-.13-.3-.37-.52-.8-.65-1.26-.44-1.47,1.04-2.2,1.3-3.5,.17-.84,.2-1.87-.77-2.1-1.73-.42-2.55,1.56-3.38,2.69-1.23,1.67-3.55,2.19-5.48,1.61,.11,.03-.12,1.21,0,1.25,2.33,.7,4.56-.21,5.87-2.19,.47-.71,.96-1.61,1.76-2,.58-.29,1.91-.28,2.01,.56v-1.23c-.05,.89-.92,1.56-1.24,2.36s-.28,1.79-.25,2.65c.01,.48,.08,.95,.25,1.4,.12,.32,.29,.63,.49,.91,.05,.07,.28,.4,.34,.4s.27-.35,.31-.39c.62-.68,1.46-.91,2.35-.93,1.83-.05,3.8,.52,5.09-1.18,.76-1.01,1.29-2.5,1.59-3.72,.18-.74,.18-1.53,.15-2.29-.06-1.28-.83-2.01-1.97-2.43-.78-.29-1.9-.54-2.01-1.53v1.07c0-.05,0-.1,0-.16v.18c.03-.27,.11-.5,.21-.75,.15-.36-.15-.9,0-1.25h0Z"/>
    <path class="cls-2" d="M82.48,28.06c-.75,.72-1.88,.83-2.78,1.3s-1.69,1.17-2.28,2-.99,1.76-1.02,2.77-.11,2.03,.46,2.88c-.06-.1,0-.5,0-.62,0-.14,.07-.51,0-.62-.12-.18-.22-.36-.29-.56-.07-.19-.06-.44-.14-.62v.55c0-.08,.01-.16,.03-.24,.02-.1,.03-.2,.06-.29,.05-.22,.11-.43,.19-.63,.3-.79,.78-1.51,1.37-2.11s1.29-1.1,2.06-1.44,1.71-.47,2.35-1.09c.07-.06,0-.53,0-.62s-.07-.56,0-.62h0Z"/>
    <path class="cls-2" d="M73.47,26.53c0,.25,.01,.15,0-.28,0,.08,0,.15-.01,.23,0,.15-.02,.29-.04,.44-.03,.27-.06,.54-.11,.8-.09,.51-.22,1.02-.38,1.52-.33,1.01-.8,1.97-1.4,2.85-.07,.11,0,.5,0,.62,0,.15,0,.29,0,.44,0,.04,.02,.16,0,.18,.8-1.17,1.37-2.47,1.68-3.85s.32-2.77,.26-4.16c.01,.3-.02,.83,0,1.21h0Z"/>
    <path class="cls-2" d="M61.83,29.1c-.54,.58-.85,1.32-.88,2.11-.02,.53-.04,1.08,.01,1.61,.03,.3,.1,.73,.4,.89,.35,.18,.55-.23,.62-.5,.13-.5,.23-1.01,.34-1.51,.22-1,.44-1.99,.67-2.99v-1.23c-.06,.99-.69,1.89-1.6,2.29-.04,.02,0,.56,0,.62s.05,.61,0,.62c.93-.41,1.54-1.32,1.6-2.34,.01-.23,0-.46,0-.69,0-.17-.04-.38,0-.54-.19,.87-.39,1.74-.58,2.61-.09,.42-.19,.84-.28,1.25-.07,.32-.1,.77-.31,1.03s-.51,.15-.67-.1c-.07-.11-.12-.24-.14-.37-.02-.1-.04-.2-.04-.31-.06-.62-.06,1.28,0,.63,.07-.7,.38-1.35,.86-1.86,.01-.01,0-.19,0-.18,0-.15,0-.29,0-.44s0-.29,0-.44c0-.03-.02-.17,0-.18h0Z"/>
    <path class="cls-2" d="M1.73,110.1c-.42-5.3-1.15-10.56-.95-15.89,.09-2.33,.15-5.32,1.53-7.31,.6-.87,1.39-1.15,2.4-.83,2.19,.69,3.16,2.62,3.17,4.79,.01,2.3-.63,4.56-.73,6.86-.14,3.33,.33,6.63,1.14,9.86,.07,.28,.8,.09,.72-.19-.87-3.48-1.36-7.06-1.08-10.65,.16-2.1,.74-4.17,.67-6.28-.07-1.92-.86-3.58-2.63-4.46-.94-.47-2.01-.73-3.01-.3-2.04,.89-2.46,3.85-2.7,5.77-.42,3.45-.27,6.97-.04,10.42,.19,2.81,.56,5.61,.78,8.41,.02,.27,.75,.11,.72-.19h0Z"/>
    <path class="cls-2" d="M32.85,148.35c1.65-6.39-3.96-10.47-8.76-13.4-6-3.66-11.97-7.33-16.53-12.81-2.92-3.51-4.87-7.59-5.85-12.04-.07-.3-.79-.11-.72,.19,1.64,7.48,6.12,13.26,11.98,18,2.57,2.08,5.25,3.9,8.09,5.58s5.68,3.26,8.04,5.5c2.57,2.44,3.94,5.51,3.02,9.05-.08,.31,.66,.22,.73-.07h0Z"/>
    <path class="cls-2" d="M19.17,103.99c-1.28-.68-2.34-1.69-3.78-2.05s-2.99-.3-4.34,.17c-3.34,1.17-3.45,4.79-1.63,7.39,2.27,3.23,5.7,5.93,8.76,8.36,3.4,2.69,6.97,5.14,10.55,7.59,.27,.18,.9-.19,.56-.42-5.81-3.98-11.67-7.98-16.66-12.99-2.01-2.01-5.9-6.25-2.47-8.87,1.25-.96,3.13-1.07,4.63-.77s2.54,1.33,3.82,2.02c.28,.15,.91-.23,.56-.42h0Z"/>
    <path class="cls-2" d="M18.55,104.34c3.36,2.87,6.42,6.08,9.94,8.76s7.08,4.26,10.86,6.07,7.31,3.79,9.73,7.16c2.19,3.04,3.24,6.74,3.65,10.42,.48,4.29,.12,8.63-.59,12.87-.04,.26,.68,.13,.72-.1,1.2-7.13,1.6-15.31-2.06-21.84-4.21-7.5-13.17-9.05-19.82-13.57-4.29-2.91-7.83-6.72-11.75-10.07-.18-.16-.86,.12-.67,.28h0Z"/>
    <g class="cls-1">
      <path class="cls-2" d="M13.22,110.18c-1.17-.78-2.45-1.63-3.03-2.97-.53-1.22-.32-2.58,.79-3.39s2.64-.67,3.87-.1c1.37,.63,2.45,1.75,3.49,2.82l.36-.43c-2.64-.05-5.19,1.54-6.28,3.95-.17,.38,.56,.39,.69,.09,.97-2.15,3.17-3.54,5.53-3.5,.16,0,.55-.23,.36-.43-1.78-1.83-3.97-3.92-6.75-3.47-1.02,.17-2.01,.73-2.59,1.59-.66,.98-.62,2.18-.12,3.22,.65,1.35,1.91,2.22,3.12,3.03,.27,.18,.9-.19,.56-.42h0Z"/>
    </g>
    <g class="cls-1">
      <path class="cls-2" d="M2.67,85.98c.79-.04,1.37,.42,1.81,1.03,.23,.31,.47,.64,.59,1.01s.17,.82,.15,1.21c-.03,.63-.69,1.21-1.16,1.55-.31,.22-.65,.42-1.02,.54-.26,.09-.56,.19-.78,0-.23-.21-.36-.51-.57-.74-.25-.27-.55-.36-.91-.34-.13,0-.39,.1-.41,.26-.02,.17,.2,.18,.32,.17,.27-.01,.48,.4,.61,.58,.18,.26,.38,.51,.7,.59,.39,.09,.85-.03,1.21-.15,.45-.15,.88-.37,1.26-.65,.58-.41,1.33-1.05,1.45-1.8,.06-.4,0-.9-.11-1.29-.11-.44-.38-.82-.64-1.19-.25-.34-.53-.66-.89-.88-.46-.29-1-.36-1.54-.33-.13,0-.39,.1-.41,.26-.02,.17,.2,.18,.32,.17h0Z"/>
    </g>
    <path class="cls-2" d="M20.97,116.41c.29-.68,.68-1.34,1.26-1.77,.14-.1,.2-.14,.33-.21,.07-.04,.14-.07,.21-.1,.03-.01,.07-.03,.1-.04,.03,0,.02,0,0,0,.02,0,.05-.02,.07-.02,.32-.11,.51-.14,.83-.16,.16-.01,.38-.11,.4-.29s-.19-.25-.34-.24c-.74,.06-1.45,.28-2.05,.72-.7,.51-1.17,1.26-1.51,2.05-.16,.38,.57,.39,.69,.09h0Z"/>
    <path class="cls-2" d="M24.33,118.43c.34-.55,.74-1.1,1.27-1.49,.08-.06,.19-.13,.26-.16,.03-.02,.06-.03,.1-.04,.05-.02,0,0,.03-.01,.03-.01,.07-.02,.02,0,0,0,.1-.02,.05-.01s.04,0,.05,0c-.06,.01,.04,0,.04,0,.03,0,.06,0,.12,0,.12,0,.23,.03,.34,.05,.15,.04,.37-.04,.5-.1,.06-.03,.25-.13,.09-.17-.68-.17-1.44,.01-2.02,.37-.67,.41-1.16,1.06-1.57,1.72-.06,.1,.26,.06,.28,.05,.12-.02,.35-.07,.43-.19h0Z"/>
    <path class="cls-2" d="M23.24,116.97c.27-.17,.47-.4,.7-.61,.05-.05,.11-.09,.16-.14s-.03,.02,0,0c.01,0,.03-.02,.04-.03,.03-.02,.07-.04,.1-.06-.08,.06-.04,.02-.01,0,.02,0,.03-.02,.05-.02,.04-.01,.08-.01-.02,0,.02,0,.04-.01,.06-.02,.03,0,.09,0-.02,0,.02,0,.04,0,.06,0,.02,0,.04,0,.05,0,.03,0,.01,0-.04,0,.02,0,.03,0,.05,0,.16,0,.38-.05,.48-.2s-.08-.22-.2-.22c-.47,0-.9,.17-1.25,.47-.12,.1-.22,.21-.33,.32-.06,.06-.11,.11-.18,.16-.03,.02-.06,.05-.09,.07-.05,.04,.06-.04,0,0-.02,.01-.04,.03-.06,.04-.09,.06-.22,.21-.06,.29s.38,.02,.51-.07h0Z"/>
    <path class="cls-2" d="M.68,96.76s.02,0,0,0c.02,0,.03-.01,.05-.02,0,0,.05-.01,.05-.02-.05,.01-.06,.02-.03,0,0,0,.02,0,.03,0,.02,0,.04,0,.05-.01,.01,0,.07-.02,.02,0s0,0,.02,0c.02,0,.04,0,.06,0,0,0,.07,0,.02,0-.05,0,.03,0,.04,0,.04,0,.07,0,.11,0,.03,0,.03,0,0,0,.02,0,.04,0,.06,0,.04,0,.08,0,.12,.02,.12,.02,.26,.06,.39,.13s.25,.15,.35,.25,.36,.03,.47-.01c.07-.03,.31-.15,.2-.25-.65-.62-1.69-.6-2.46-.22-.09,.04-.23,.18-.07,.24s.37,0,.51-.08H.68Z"/>
    <path class="cls-2" d="M1,98.08s.03-.03,.05-.05l-.07,.05s.03-.02,.05-.03l-.08,.04s.04-.02,.06-.02l-.09,.03s.04-.01,.05-.01l-.1,.02s.05,0,.07,0h-.09s.05,0,.07,0h-.08s.06,0,.09,.01l-.07-.02s.07,.03,.1,.05l-.05-.03s.04,.03,.05,.05c.05,.05,.13,.06,.2,.06,.09,0,.2-.02,.28-.06,.07-.03,.15-.07,.19-.14,.03-.05,.04-.1,0-.15-.13-.13-.33-.19-.51-.18-.15,0-.3,.03-.44,.09-.1,.04-.21,.1-.29,.19-.04,.04-.09,.09-.07,.16,.02,.06,.09,.09,.14,.1,.09,.02,.18,0,.27-.02l.09-.03c.05-.02,.1-.05,.15-.09h0Z"/>
    <path class="cls-2" d="M.56,100.32l1.13,.03c.09,0,.2-.05,.27-.1,.06-.05,.12-.13,.12-.2s-.03-.15-.09-.2c-.08-.05-.16-.06-.25-.06l-1.13-.03c-.09,0-.2,.05-.27,.1-.06,.05-.12,.13-.12,.2s.03,.15,.09,.2c.08,.05,.16,.06,.25,.06H.56Z"/>
    <path class="cls-2" d="M3.62,115.7l.45-.21c.07-.03,.15-.07,.2-.13,.03-.03,.05-.09,0-.12l-.05-.03s-.09-.02-.14-.02c-.09,0-.2,.02-.28,.06l-.45,.21c-.07,.03-.15,.07-.2,.13-.03,.03-.05,.09,0,.12l.05,.03s.09,.02,.14,.02c.09,0,.2-.02,.28-.06h0Z"/>
    <path class="cls-2" d="M4.04,116.54l.8-.31c.07-.03,.15-.09,.19-.15,.03-.05,.04-.12,0-.17-.12-.13-.34-.08-.48-.02l-.8,.31c-.07,.03-.15,.09-.19,.15-.03,.05-.04,.12,0,.17,.12,.13,.34,.08,.48,.02h0Z"/>
    <path class="cls-2" d="M2.85,114.47l1.51-.2c.09-.01,.19-.04,.27-.09,.05-.03,.12-.08,.14-.15,.04-.16-.23-.15-.31-.14l-1.51,.2c-.09,.01-.19,.04-.27,.09-.05,.03-.12,.08-.14,.15-.04,.16,.23,.15,.31,.14h0Z"/>
    <path class="cls-2" d="M27.45,148.32c6.62,.41,13.23,.83,19.85,1.24l4.9,.31c1.5,.09,3.29,0,4.59,.87,1.94,1.3,2.04,4.45,.25,5.9-.29,.24,.42,.15,.56,.04,1.55-1.26,1.92-3.58,.79-5.27-1.52-2.28-5.35-1.83-7.69-1.98-7.6-.48-15.19-.95-22.79-1.43-.17-.01-.83,.29-.46,.31h0Z"/>
    <path class="cls-2" d="M28.17,148.17c-2.23,.3-3.98,2.64-3.37,4.86,.09,.34,.82,.15,.72-.19-.48-1.73,.74-3.88,2.58-4.13,.16-.02,.38-.11,.4-.3,.02-.18-.19-.27-.34-.25h0Z"/>
    <path class="cls-2" d="M148.58,108.1c.46-5.85,1.33-11.68,.86-17.57-.16-2.07-.37-5.38-2.3-6.69-2.35-1.6-5.52,1.11-6.02,3.38s.17,4.46,.43,6.62c.47,3.9-.05,7.84-.99,11.62-.07,.3,.66,.19,.73-.08,.77-3.06,1.24-6.19,1.16-9.35-.05-2.02-.47-3.97-.67-5.98s-.05-4.28,1.81-5.5c1.05-.69,2.33-1.04,3.3-.07,1.59,1.58,1.73,4.6,1.87,6.69,.21,3.24,.05,6.5-.2,9.73-.19,2.43-.51,4.85-.7,7.28-.03,.32,.71,.19,.73-.08h0Z"/>
    <path class="cls-2" d="M117.47,146.23c-1.79-6.91,5.06-10.95,10.11-13.93,5.86-3.46,11.65-7.46,15.84-12.92,2.57-3.35,4.29-7.17,5.19-11.28,.07-.32-.67-.22-.73,.07-.88,4.01-2.55,7.77-5.06,11.04-2.37,3.09-5.33,5.67-8.41,8.03-2.57,1.96-5.3,3.59-8.08,5.24-2.61,1.56-5.29,3.21-7.33,5.49-2.15,2.39-3.07,5.3-2.25,8.46,.08,.3,.8,.11,.72-.19h0Z"/>
    <path class="cls-2" d="M130.86,102.36c1.19-.64,2.21-1.62,3.53-1.96,1.5-.39,3.42-.28,4.75,.58,3.76,2.44,.05,6.81-2.02,8.9-5.02,5.06-10.93,9.11-16.79,13.12-.4,.28,.18,.54,.48,.34,3.52-2.41,7.04-4.82,10.39-7.46,3.09-2.44,6.5-5.14,8.83-8.35,1.83-2.51,2.06-6.25-1.35-7.48-1.27-.46-2.76-.5-4.08-.24-1.58,.31-2.69,1.37-4.07,2.11-.43,.23-.04,.63,.32,.44h0Z"/>
    <path class="cls-2" d="M130.41,102.09c-3.47,2.96-6.63,6.3-10.29,9.03s-7.8,4.4-11.84,6.44c-3.43,1.73-6.69,3.88-8.83,7.14-2.02,3.06-2.98,6.69-3.35,10.31-.42,4.2-.07,8.45,.63,12.61,.04,.23,.77,.06,.72-.19-1.2-7.18-1.62-15.48,2.21-21.99,4.3-7.32,13.4-8.87,19.95-13.44,4.12-2.88,7.57-6.56,11.38-9.81,.31-.26-.41-.24-.58-.1h0Z"/>
    <g class="cls-1">
      <path class="cls-2" d="M136.88,108.48c1.83-1.23,4.49-3.35,3.27-5.89-1.09-2.27-4.04-2.26-5.99-1.27-1.38,.7-2.48,1.81-3.55,2.91-.2,.21,.08,.34,.26,.34,2.36-.05,4.61,1.44,5.58,3.57,.14,.3,.85,.09,.72-.19-1.1-2.42-3.59-3.93-6.23-3.87l.26,.34c1.78-1.83,4.68-4.56,7.35-2.62,1.11,.81,1.39,2.19,.85,3.43-.58,1.34-1.84,2.18-3.01,2.97-.41,.27,.19,.48,.47,.3h0Z"/>
    </g>
    <g class="cls-1">
      <path class="cls-2" d="M147,83.49c-.95-.05-1.78,.32-2.38,1.05-.25,.29-.5,.63-.67,.97-.24,.46-.28,.94-.31,1.45-.05,.77,.5,1.38,1.06,1.84,.66,.54,1.53,1.03,2.41,1.02,.42,0,.77-.22,1.02-.55,.12-.15,.21-.31,.32-.46,.04-.06,.09-.12,.15-.17,.07-.05,.01-.03,.09-.03,.15,0,.41-.05,.48-.2s-.06-.23-.2-.23c-.73-.03-1.07,.44-1.45,.97-.2,.27-.22,.25-.53,.19-.38-.08-.74-.25-1.08-.45-.58-.35-1.25-.89-1.49-1.55-.11-.31-.05-.68-.02-1,.05-.46,.23-.83,.49-1.21,.46-.67,.96-1.24,1.84-1.19,.15,0,.41-.05,.48-.2s-.06-.22-.2-.23h0Z"/>
    </g>
    <path class="cls-2" d="M129.32,114.21c-.33-.77-.78-1.5-1.47-2.01-.56-.42-1.25-.63-1.95-.68-.17-.01-.39,.05-.47,.21s.07,.27,.21,.28c.59,.04,1.15,.22,1.64,.59,.61,.45,1.01,1.12,1.31,1.81,.07,.16,.27,.17,.42,.13,.11-.03,.37-.17,.3-.33h0Z"/>
    <path class="cls-2" d="M125.94,116.28c-.39-.64-.87-1.28-1.51-1.68-.55-.35-1.19-.46-1.82-.3-.14,.04-.34,.17-.3,.35s.29,.19,.43,.15c.03,0,.07-.02,.1-.02,.07-.02-.02,0,.02,0,.06,0,.12-.01,.18-.02,.1,0-.06,0,.04,0,.03,0,.06,0,.08,0,.06,0,.12,.01,.18,.03-.05-.01,.05,.01,.05,.01,.03,0,.05,.02,.08,.03,.06,.02,.12,.04,.18,.07,.09,.04,.21,.12,.31,.18,.55,.38,.96,.96,1.31,1.52,.17,.28,.86,0,.66-.32h0Z"/>
    <path class="cls-2" d="M126.85,114.58c-.13-.08-.24-.19-.35-.29-.02-.02-.03-.03-.05-.05,0,0-.05-.05-.02-.02,.05,.05-.05-.05-.07-.07-.01-.01-.03-.03-.04-.04-.05-.05-.11-.11-.17-.16-.13-.12-.28-.21-.44-.28-.21-.09-.43-.12-.65-.12-.16,0-.39,.13-.4,.31,0,.19,.18,.26,.34,.26,.08,0-.07,0,0,0,.02,0,.04,0,.07,0,.04,0,.09,.03,.12,.02-.05-.01-.06-.02-.04,0,0,0,.02,0,.03,0,.02,0,.04,.01,.06,.02,.04,.01,.07,.03,.1,.05,.05,.02-.06-.04,0,0,.02,0,.03,.02,.05,.03,.03,.02,.06,.04,.08,.06,.06,.04,.12,.09,.17,.14s.1,.1,.15,.15c.01,.01,.06,.06,0,0,.03,.03,.05,.05,.08,.08s.05,.05,.08,.08c.11,.1,.22,.2,.34,.28,.15,.1,.38,.08,.52-.04,.11-.1,.19-.3,.03-.4h0Z"/>
    <path class="cls-2" d="M149.42,94.46c-.8-.4-1.89-.17-2.52,.44-.12,.12,.11,.17,.18,.17,.18,0,.35-.06,.48-.19-.02,.02,0,0,.01,0,.01-.01,.03-.02,.04-.03,.03-.02,.06-.04,.09-.06,.02-.02,.03-.02,0,0,.02-.01,.04-.02,.06-.03,.02,0,.03-.02,.05-.03,0,0,.06-.03,.02-.01s.01,0,.02,0c.02,0,.03-.01,.05-.02,0,0,.07-.02,.02,0s0,0,.02,0c.02,0,.04,0,.05-.01,.01,0,.07-.02,.02,0s0,0,.02,0c.02,0,.05,0,.07-.01,.02,0,.04,0,.06,0-.03,0-.05,0,0,0,.04,0,.07,0,.11,0,.03,0,.03,0,0,0,.02,0,.04,0,.06,0,.04,0,.07,0,.11,.01,.14,.02,.27,.06,.41,.14,.06,.03,.17,.02,.23,.01,.09-.01,.2-.04,.28-.09,.09-.05,.22-.17,.08-.24h0Z"/>
    <path class="cls-2" d="M149.21,95.84c-.12-.13-.3-.16-.47-.15s-.33,.03-.48,.09c-.12,.05-.25,.11-.34,.2-.03,.03-.05,.07-.01,.1,.02,.01,.05,.02,.08,.02,.04,0,.07,0,.11,0,.1,0,.19-.03,.28-.06,.07-.03,.15-.06,.2-.11,.01-.01,.03-.02,.04-.04l-.05,.04s.02-.01,.03-.02c.04-.03-.08,.04-.03,.02,.04-.02-.09,.03-.06,.02,0,0,.01,0,.02,0,.01,0-.11,.03-.07,.02,.02,0,.05-.01-.03,0s-.05,0-.03,0c0,0,0,0,0,0,.03,0,0,0-.07,0,.01,0,.02,0,.04,0,.03,0-.08,0-.05,0,0,0,.01,0,.02,0,.01,0,.03,0,.04,0h-.06s.08,0,.12,.02l-.04-.02c.05,.02,.1,.05,.13,.09,.02,.01,.05,.02,.08,.02,.04,0,.07,0,.11,0,.09,0,.2-.03,.28-.06,.07-.03,.15-.06,.2-.11l.03-.04s0-.05-.02-.06h0Z"/>
    <path class="cls-2" d="M149.14,97.75l-1.13,.03c-.1,0-.19,.01-.28,.05-.06,.03-.16,.08-.19,.15-.03,.05-.04,.12,0,.17s.13,.08,.2,.08l1.13-.03c.1,0,.19-.01,.28-.05,.06-.03,.16-.08,.19-.15,.03-.05,.04-.12,0-.17s-.13-.08-.2-.08h0Z"/>
    <path class="cls-2" d="M146.38,113.33l-.45-.21s-.07-.03-.11-.04c-.04,0-.09-.01-.13,0-.05,0-.1,.02-.15,.03-.05,.01-.09,.03-.13,.06l-.06,.05s-.06,.07-.07,.12v.06s.04,.07,.08,.09l.45,.21s.07,.03,.11,.04c.04,0,.09,.01,.13,0,.05,0,.1-.02,.15-.03,.05-.01,.09-.03,.13-.06l.06-.05s.06-.07,.07-.12v-.06s-.04-.07-.08-.09h0Z"/>
    <path class="cls-2" d="M145.92,114.09l-.8-.31c-.08-.03-.2-.01-.27,0-.08,.02-.18,.07-.24,.13-.04,.05-.09,.11-.07,.18,.02,.07,.08,.1,.15,.12l.8,.31c.08,.03,.2,.01,.27,0,.08-.02,.18-.07,.24-.13,.04-.05,.09-.11,.07-.18-.02-.07-.08-.1-.15-.12h0Z"/>
    <path class="cls-2" d="M146.92,112.06l-1.51-.2c-.16-.02-.38,.04-.51,.14-.03,.03-.1,.07-.08,.12s.09,.06,.13,.06l1.51,.2c.16,.02,.38-.04,.51-.14,.03-.03,.1-.07,.08-.12s-.09-.06-.13-.06h0Z"/>
    <path class="cls-2" d="M122.06,145.95c-7.84,.49-15.68,.98-23.52,1.47-2.24,.14-5.54-.15-7.14,1.83-1.31,1.62-1.08,4.17,.54,5.49,.16,.13,.81-.15,.68-.25-1.64-1.33-1.87-4.23-.18-5.65,1.35-1.14,3.63-.95,5.31-1.06l4.9-.31c6.37-.4,12.74-.8,19.11-1.2,.21-.01,.78-.34,.31-.31h0Z"/>
    <path class="cls-2" d="M121.32,146.65c1.92,.26,3.24,2.42,2.73,4.25-.05,.18,.21,.25,.34,.25,.18-.01,.35-.12,.4-.3,.59-2.13-1.06-4.45-3.22-4.74-.17-.02-.4,.06-.47,.22s.07,.29,.22,.31h0Z"/>
  </g>
</svg>