<?xml version="1.0" encoding="UTF-8"?>
<svg id="Layer_2" data-name="Layer 2" xmlns="http://www.w3.org/2000/svg" viewBox="0 0 424.06 382.11">
  <defs>
    <style>
      .cls-1 {
        fill: #d2754f;
      }

      .cls-2 {
        fill: #231f20;
      }
    </style>
  </defs>
  <g id="Layer_1-2" data-name="Layer 1">
    <path class="cls-2" d="M176.8,124.65c-.71-5-1.18-10.03-1.37-15.07-.02-.67-.05-1.34-.06-2.01,0-.3-.01-.6-.02-.9,0,.2-.01,.76,0-.15,.03-1.24,.07-2.48,.13-3.72,.12-2.43,.3-4.85,.56-7.27,.93-8.66,2.77-17.26,5.81-25.44,1.57-4.23,3.48-8.33,5.75-12.23,.29-.49,.02-1.93,.02-2.5s0-1.18,0-1.77c0-.16-.09-.61-.02-.73-10.26,17.68-12.6,38.27-12.27,58.35,.1,6.17,.6,12.33,1.46,18.44-.23-1.63,.23-3.36,0-5h0Z"/>
    <path class="cls-2" d="M189.18,57.63c14.69,3.6,30.32,2.81,44.77-1.5,13.71-4.09,26.39-11.5,36.67-21.44,5.5-5.31,10.29-11.36,14.08-18,.28-.5,.02-1.93,.02-2.5s0-1.18,0-1.77c0-.16-.09-.61-.02-.73-6.78,11.87-16.71,21.81-28.21,29.13-12.62,8.04-27.2,12.84-42.12,13.87-8.44,.59-16.96-.05-25.19-2.07,.35,.09-.42,4.9,0,5h0Z"/>
    <path class="cls-2" d="M285.8,16.81c11.56-.1,23.16,2.62,33.12,8.58-.16-.1,.02-2.24,.02-2.5,0-.3,.23-2.35-.02-2.5-9.96-5.96-21.56-8.68-33.12-8.58-.05,0-.02,5,0,5h0Z"/>
    <path class="cls-2" d="M334.2,39.59c18.43,9.96,32.71,26.96,38.41,47.21,1.61,5.71,2.51,11.6,2.7,17.53,.01,.33,.03-.41,.02-.25,.02-.5,.01-1,.01-1.49,0-1.02,.02-2.05-.02-3.08-.68-20.94-10.42-40.76-26.14-54.53-4.58-4.02-9.62-7.48-14.99-10.38,.15,.08-.02,2.25-.02,2.5,0,.28-.21,2.37,.02,2.5h0Z"/>
    <path class="cls-2" d="M333.74,37.5c17.91-7.94,40.26-3.51,54.79,9.27,6.31,5.55,11.24,12.69,13.88,20.68,.64,1.94,1.14,3.92,1.5,5.94,.18,.98,.32,1.97,.42,2.97,.07,.64,.12,1.28,.16,1.91,.01,.22,.02,.45,.03,.67,0,.18,.01,.37,.02,.55,.03,1.04,.03,.28,0-2.28-.26,5.08-1.2,10.06-3.49,14.65-4.62,9.22-15.56,16.63-26.17,13.92,.37,.09-.44,4.89,0,5,9.77,2.5,20.14-3.73,25.08-11.95,2.7-4.49,4.09-9.66,4.48-14.86,.36-4.8,.35-9.83-.38-14.6-2.79-18.03-16.91-32.48-33.93-38.05-11.71-3.83-25.05-3.85-36.4,1.18-.17,.08-.02,2.25-.02,2.5s.18,2.43,.02,2.5h0Z"/>
    <path class="cls-2" d="M319.01,27.07c12.08-8.64,27.01-12.88,41.82-12.41s28.78,5.57,39.87,15.11c10.71,9.21,18.3,21.97,21.36,35.75,.79,3.58,1.29,7.23,1.44,10.89,.02,.54,.04,2.48,.04,.18s-.02-.33-.04,.18c-.04,1.01-.12,2.02-.21,3.03-.16,1.68-.4,3.36-.7,5.02-1.26,6.85-3.68,13.48-7.02,19.58-6.74,12.31-17.27,22.6-29.91,28.74-1.54,.75-3.12,1.43-4.72,2.06-.16,.06-.02,2.26-.02,2.5s.16,2.45,.02,2.5c13.59-5.32,25.13-15.26,32.79-27.64,3.8-6.13,6.64-12.87,8.27-19.9,1.7-7.35,1.94-15.05,1.45-22.55-.95-14.51-7-28.54-16.66-39.38-10.07-11.3-23.85-18.47-38.84-20.49-15.09-2.03-30.91,.94-44.06,8.67-1.67,.98-3.28,2.04-4.85,3.16-.24,.17-.02,2.18-.02,2.5s.26,2.33,.02,2.5h0Z"/>
    <path class="cls-2" d="M383.27,136.25c-.79,4.57-1.57,9.14-2.36,13.71-.14,.79-.03,1.7-.02,2.5,0,.59,0,1.18,0,1.77,0,.23,.06,.51,.02,.73,.79-4.57,1.57-9.14,2.36-13.71,.14-.79,.03-1.7,.02-2.5,0-.59,0-1.18,0-1.77,0-.23-.06-.51-.02-.73h0Z"/>
    <path class="cls-2" d="M381.92,147.62c-4.04,9.48-12.97,15.87-21.45,21.12-9.66,5.99-19.75,11.3-30.09,16-20.71,9.43-42.58,16.36-64.95,20.53-12.45,2.32-25.06,3.77-37.72,4.31-.11,0,.03,5,0,5,22.64-.95,45.12-4.86,66.81-11.37s42.89-15.73,62.49-27.37c9.63-5.72,20.34-12.49,24.91-23.22,.26-.61,.02-1.84,.02-2.5,0-.59,0-1.18,0-1.77,0-.18-.08-.57-.02-.73h0Z"/>
    <path class="cls-2" d="M228.37,208.5c-3.95-3.22-8.26-5.98-12.18-9.23s-6.89-6.86-8.85-11.41c.05,.11-.02,.68-.02,.73,0,.59,0,1.18,0,1.77s0,1.18,0,1.77c0,.2-.06,.55,.02,.73,1.96,4.55,5.06,8.27,8.85,11.41s8.23,6.01,12.18,9.23c-.02-.02,.02-.82,.02-.73,0-.59,0-1.18,0-1.77s0-1.18,0-1.77c0-.12,.06-.67-.02-.73h0Z"/>
    <path class="cls-2" d="M213.21,185.37l-18.45,2.53c-5.4,.74-10.84,1.55-16.3,1.32s-10.33-1.5-14.7-4.43c-3.5-2.35-6.33-5.55-8.68-9.03-5.06-7.48-8.12-16.08-12.5-23.94-4.64-8.32-11.2-15.34-19.37-20.27-8.8-5.31-19.17-8.08-29.45-7.07-.2,.02,.12,4.99,0,5,18.72-1.84,37.33,8.7,47.12,24.43,4.78,7.69,7.83,16.29,12.45,24.06,2.19,3.69,4.76,7.2,8.05,9.99,3.8,3.23,8.4,5.19,13.33,5.9,5.88,.86,11.86,.14,17.71-.65,6.94-.94,13.87-1.91,20.81-2.86,.26-.04-.19-4.97,0-5h0Z"/>
    <path class="cls-2" d="M101,113.87c20.43-7.73,44.09-4.06,62.48,7.23,5.4,3.32,10.36,7.32,14.73,11.91-.24-.25,.02-2.12,.02-2.5,0-.59,0-1.18,0-1.77,0-.13,.07-.64-.02-.73-15.14-15.89-37.62-24.69-59.54-23.03-6.04,.46-12.01,1.75-17.68,3.89-.16,.06-.02,2.27-.02,2.5s.16,2.45,.02,2.5h0Z"/>
    <path class="cls-2" d="M100.12,116.23c.18,.81,.36,1.63,.51,2.45,.07,.39,.13,.78,.17,1.17,.03,.23,.04,.46,.06,.69,.18,1.92,.21-5.24,0-2.89-.14,1.53-.65,2.98-1.56,4.23-1.54,2.1-4.27,3.78-6.95,3.07-2.04-.54-3.15-2.42-3.37-4.41-.24-2.12-.27,5.96,.02,3.52,.03-.25,.07-.5,.13-.74,.13-.56,.33-1.11,.6-1.62,.61-1.16,1.54-2.17,2.52-3.02,2.54-2.19,5.69-3.52,8.75-4.8,.17-.07,.03-2.26,.02-2.5s-.17-2.44-.02-2.5c-3.2,1.34-6.54,2.74-9.12,5.12-1.08,1-2.05,2.18-2.54,3.58-.68,1.94-.43,4.17-.42,6.17,.02,2.5,.5,5.3,3.25,6.15,3.15,.97,6.43-1.43,7.81-4.13,1.17-2.29,.95-4.98,.94-7.47s-.27-4.7-.81-7.07c.04,.18-.02,.58-.02,.73,0,.59,0,1.18,0,1.77,0,.79-.15,1.73,.02,2.5h0Z"/>
    <path class="cls-2" d="M190.29,52.53l-6.64-2.72v5c4.9-6.76,13.41-9.66,21.31-11.04,4.83-.84,9.71-1.23,14.56-1.96,4.25-.65,8.44-1.63,12.53-2.97,7.91-2.59,15.43-6.43,22.16-11.34,3.34-2.44,6.48-5.14,9.36-8.1s5.6-6.42,9.17-8.75c3.23-2.11,8.45-3.79,11.94-1.31,.62,.44,1.11,1.03,1.44,1.71,.15,.32,.27,.65,.36,.99,.04,.16,.05,.36,.1,.52l.03-3.67c-.01,.13-.03,.27-.06,.4-.47,1.68-1.24,2.93-2.87,3.71-.18,.09-.02,2.25-.02,2.5s.19,2.42,.02,2.5c3.68-1.75,3.08-6.16,2.96-9.57-.12-3.58-3.02-5.35-6.42-5.28-4.38,.09-8.17,2.58-11.23,5.52s-5.94,6.43-9.23,9.34c-6.57,5.82-14.17,10.48-22.28,13.81-4.08,1.67-8.29,3.01-12.59,3.97-4.84,1.08-9.77,1.56-14.68,2.19-9.56,1.22-20.53,3.5-26.55,11.81-.23,.32-.14,4.94,0,5l6.64,2.72c-.11-.05,.02-2.28,.02-2.5,0-.25,.17-2.42-.02-2.5h0Z"/>
    <path class="cls-2" d="M207.05,38.47c-3.28,1.46-12.43,4.64-12.95-1.61l.02,.73c.06,5.88-.12,2.59,1.15,.73,.66-.96,1.52-1.79,2.5-2.44,2.33-1.54,5.18-2.1,7.9-2.53,5.61-.88,11.14-1.89,16.6-3.51,11.1-3.29,21.67-8.38,31.12-15.07,2.55-1.81,5.12-3.81,8.21-4.59,2.06-.52,6.66-.7,7.04,2.25l-.02-3.16v.25c0-.61,.02-1.22,.02-1.84-.19,1.57-1.44,2.84-2.48,3.93-1.22,1.27-2.54,2.44-3.68,3.77-2.14,2.48-3.91,5-7.17,6.06-.14,.05-.02,2.28-.02,2.5,0,.21,.14,2.46,.02,2.5,3.95-1.28,5.83-4.85,8.62-7.62,1.46-1.45,3.18-2.86,4.2-4.67s.56-4.27,.53-6.19-1.67-2.78-3.44-3.04c-2.19-.32-4.43,.33-6.38,1.3-2.07,1.03-3.91,2.46-5.8,3.79s-3.87,2.62-5.87,3.83c-8.16,4.93-16.99,8.76-26.16,11.36-4.49,1.27-9.04,2.22-13.66,2.89-4.09,.6-8.88,1.22-11.66,4.66-1.41,1.75-1.6,3.47-1.61,5.63s-.43,4.59,1.35,6.09c3.08,2.6,8.5,.37,11.62-1.02,.18-.08,.02-2.25,.02-2.5s-.18-2.43-.02-2.5h0Z"/>
    <path class="cls-2" d="M208.79,26.63c-1.13,.84-2.85,.67-3.7-.51-.08-.11-.13-.24-.21-.34l-.09-.25v3.77c.21-.31,.28-.75,.49-1.08,.5-.78,1.23-1.42,2.03-1.88,1.75-1,3.81-1.22,5.77-1.5,2.15-.31,4.28-.7,6.4-1.17,8.46-1.88,16.65-5.02,24.19-9.28,2.01-1.13,4.11-2.54,6.48-2.69,1.71-.11,3.82,.66,4.11,2.55l-.02-.73v.31c0-.11,0,.73,.02,.73s.02-.85,.02-.73c.01-1.18,.01-2.36,0-3.54,0-.76,.03-1.48-.42-2.13-.52-.75-1.43-1.18-2.3-1.36-2.16-.46-4.33,.6-6.17,1.62-4.29,2.37-8.58,4.61-13.16,6.38s-9.27,3.16-14.06,4.15c-2.4,.49-4.82,.78-7.22,1.21-2.07,.37-4.31,1.08-5.57,2.91-.57,.83-.66,1.63-.68,2.6-.02,1.46-.18,3.05,.03,4.5,.27,1.88,2.65,2.5,4.06,1.45,.24-.18,.02-2.17,.02-2.5s-.26-2.32-.02-2.5h0Z"/>
    <path class="cls-2" d="M224.07,19.16c1.61-1.43,1.14-3.91,1.13-5.82,0-1.58,.07-3.33-1.69-3.98-1.63-.61-3.44,0-5.12-.23s-2.7-1.36-2.83-3v.34c-.17,4.04-.17,5.34,.04,3.91,0-.07,.02-.14,.04-.21,.04-.18,.08-.36,.14-.53,.13-.37,.31-.71,.53-1.03,.45-.66,1.05-1.22,1.7-1.68,1.52-1.06,3.33-1.58,5.15-1.79,1.95-.22,4-.2,5.95-.04,1.6,.13,3.79,.73,3.89,2.69V2.96c-.09,1.54-1.78,2.2-2.93,2.85s-2.09,1.56-2.43,2.9c-.16,.64-.14,1.31-.15,1.97-.01,1.4-.07,2.82,.02,4.22,.08,1.2,.64,2.23,1.69,2.84-.02,0,.02-.83,.02-.73,0-.59,0-1.18,0-1.77s0-1.18,0-1.77c0-.1,.05-.69-.02-.73-.6-.35-1.07-.82-1.36-1.46-.15-.33-.21-.66-.3-1.01v2.01c-.1,2.07-.09,2.68,0,1.81,.05-.23,.09-.46,.16-.68,.55-1.68,1.97-2.36,3.4-3.18,.64-.37,1.31-.8,1.66-1.47,.16-.32,.21-.63,.23-.97,.07-1.02,.02-2.06,.02-3.08,0-.92,.15-2.05-.32-2.9s-1.31-1.27-2.2-1.5c-.94-.24-1.92-.26-2.88-.28-1.17-.03-2.35-.05-3.52,.02-2.11,.13-4.23,.6-6,1.79-1.36,.92-2.46,2.26-2.56,3.94-.1,1.59-.04,3.2-.01,4.78,.01,.75,.09,1.47,.48,2.13,1.1,1.84,3.43,1.46,5.24,1.41s3.82,.45,3.9,2.61v-4.82c-.03,.9-.43,1.68-1.1,2.27-.05,.05-.02,.78-.02,.73,0,.59,0,1.18,0,1.77s0,1.18,0,1.77c0,.11,.07,.68,.02,.73h0Z"/>
    <path class="cls-2" d="M269.34,38.12c10.38,4.87,19.62,12.1,26.57,21.25,3.28,4.33,6.04,9.05,8.16,14.05,1.08,2.55,1.99,5.17,2.72,7.84,.34,1.22,.67,2.47,.88,3.72,.15,.91,.2,3.75,.2,.04,0-3.66-.06-.65-.36,.33-.8,2.65-2.86,3.86-5.37,4.6s-4.7,1.45-4.76,4.44c-.03,1.6-.13,3.27,.04,4.87,.19,1.79,1.06,3.57,1.66,5.26,1.27,3.6,2.53,7.21,3.8,10.81,.61,1.72,1.21,3.45,1.82,5.17,.3,.86,.61,1.72,.91,2.58,.14,.39,.28,.78,.41,1.17,.1,.28,.42,1.77,.66,1.88,.34,.16,1.91-.71,2.33-.87,.93-.35,1.86-.69,2.8-1.04,1.86-.69,3.73-1.38,5.59-2.08,3.5-1.3,6.99-2.6,10.49-3.89,1.34-.5,2.98-.9,3.96-2.02,1.04-1.17,.76-2.94,.76-4.39,0-1.8,.06-3.37-.64-5.05-.8-1.95-1.72-3.85-2.58-5.78-1.69-3.77-3.38-7.55-5.07-11.32-.88-1.96-1.76-3.93-2.64-5.89-.2-.45-.41-.91-.61-1.36-.12-.26-.57-1.73-.81-1.81-.07-.02-.88,.5-.86,.49-.57,.32-1.15,.65-1.72,.97-3.73,2.11-7.46,4.22-11.19,6.32-.21,.12-.02,2.22-.02,2.5s.22,2.39,.02,2.5c3.44-1.95,6.89-3.89,10.33-5.84,.86-.49,1.72-.97,2.58-1.46,.22-.12,.43-.24,.65-.36,.25-.24,.39-.13,.42,.33,.25,.35,.43,.96,.61,1.36,.81,1.81,1.62,3.62,2.43,5.44,1.62,3.62,3.24,7.25,4.86,10.87,.78,1.74,1.55,3.47,2.33,5.21s1.82,3.43,1.87,5.3v-4.91c-.21,2.74-3.25,3.37-5.39,4.16-2.72,1.01-5.44,2.02-8.16,3.03s-5.44,2.02-8.16,3.03l-1.86,.69c-.52,.19-1.59,.84-2.1,.78l-.23,.09c-.08-.23-.17-.47-.25-.7-.14-.39-.28-.78-.41-1.17-.25-.7-.5-1.41-.74-2.11-1.95-5.56-3.91-11.12-5.86-16.68-.44-1.25-.88-2.51-1.32-3.76-.21-.61-.39-1.22-.57-1.84-.45-1.57-.71,4.43,.04,3,.17-.32,.28-.65,.52-.94,1.2-1.46,3.35-1.7,5.03-2.27,1.86-.62,3.36-1.73,4.14-3.57s.67-4.04,.67-6.06c0-2.15-.03-4.21-.51-6.3s-1.02-3.97-1.67-5.92c-2.74-8.14-7.17-15.67-12.83-22.12-6.52-7.44-14.62-13.38-23.57-17.58,.13,.06-.02,2.27-.02,2.5,0,.26-.19,2.4,.02,2.5h0Z"/>
    <path class="cls-2" d="M2.09,252.38c5.01,3.19,11.37,4.22,17.15,4.98,8.07,1.06,16.23,1.34,24.35,1.47,9.02,.14,18.05,.1,27.08-.01s17.72-.35,26.5-1.4c8.05-.97,16.25-2.57,23.5-6.36,.54-.28,.31-.51-.15-.57-.65-.09-1.48,.25-2.05,.55-6.02,3.14-12.94,4.42-19.62,5.24-8.4,1.04-16.89,1.29-25.35,1.41s-17.23,.15-25.84,.05c-7.95-.09-15.92-.3-23.83-1.19-6.36-.71-13.49-1.62-19-5.13-.46-.3-1.4,.03-1.86,.19-.15,.05-1.28,.51-.88,.77h0Z"/>
    <path class="cls-2" d="M3.45,256.2c3.02,17.98,3.95,36.17,2.33,54.34-.77,8.7-2.17,17.28-3.75,25.86-1.33,7.23-2.15,14.75-1.33,22.1s4.7,13.17,11.15,16.6,14.63,4.59,22.08,5.43c8.94,1,17.93,1.27,26.92,1.42,8.27,.14,16.69,.54,24.88-.88,7.33-1.28,14.33-4.23,19.27-9.95,2.16-2.5,3.88-5.42,4.83-8.59,1.03-3.41,.91-7.07,.8-10.6-.05-1.57-.31-3.1-.78-4.6v5c6.15-.34,12.17-2.05,17.58-4.98s9.64-6.8,13.37-11.44,7.2-10.04,9.53-15.7c1.05-2.55,1.86-5.2,2.19-7.94,.35-2.96,.27-6,.19-8.97-.12-5.06-1.28-10.14-3.45-14.71-1.72-3.6-4.34-7.6-8.27-9.04-4.68-1.71-10.36,.35-14.64,2.28-2.52,1.14-4.95,2.49-7.29,3.96-1.1,.69-2.19,1.41-3.25,2.16-.54,.38-1.08,.76-1.61,1.15-.17,.12-.34,.25-.5,.38-.16,.12-.33,.25-.49,.37-.24,.29-.34,.24-.29-.18-.27-.56-.19-1.55-.26-2.19-.1-.96-.18-1.93-.24-2.9-.05-.76-.08-1.52-.11-2.29v-.38c-.03-1.05-.03-.69-.02,1.08,.02-.44,.02-.87,.04-1.31,.14-3.51,.53-7.01,1.21-10.45,1.24-6.29,3.47-12.46,7.25-17.68,.29-.4,.02-2,.02-2.5,0-.59,0-1.18,0-1.77,0-.14-.09-.64-.02-.73-7.06,9.77-8.55,22.12-8.55,33.85,0,2.87,.04,5.74,.28,8.61,.03,.42,.14,3.94,.45,4.03,.18,.05,1.3-.98,1.49-1.12,.54-.39,1.08-.78,1.63-1.16,4.63-3.21,9.68-6.13,15.1-7.76,4.25-1.27,8.98-1.74,12.63,1.2s5.79,7.45,7.16,11.76c.81,2.54,1.35,5.18,1.59,7.83,.06,.66,.08,1.32,.12,1.99v-2.77c0,.23-.02,.45-.03,.68-.02,.42-.06,.83-.1,1.25-.14,1.34-.39,2.66-.74,3.96-1.58,5.82-4.68,11.25-8.12,16.16-3.87,5.53-8.41,10.52-14.19,14.09s-12.71,5.8-19.66,6.19c-.02,0-.13,4.59,0,5,.23,.74,.42,1.49,.55,2.25,.07,.4,.12,.81,.16,1.22l.02,.3c.05,.87,.06,.4,.02-1.41,.03-1.77,.03-2.29,0-1.54,0,.16-.02,.32-.03,.48-.12,1.62-.48,3.21-1.01,4.74-1.07,3.08-2.86,5.89-5.05,8.3-5.02,5.5-11.99,8.28-19.21,9.48-7.98,1.32-16.16,.95-24.21,.82-8.74-.14-17.5-.4-26.2-1.32-7.41-.79-15.25-1.74-22.04-5.02-6.33-3.06-10.69-8.42-11.91-15.4-.15-.87-.26-1.75-.33-2.63-.04-.44-.05-.88-.08-1.32-.07-1.22-.06,2.89,0,1.66,.02-.27,.02-.53,.04-.8,.11-1.92,.33-3.83,.61-5.73,.55-3.75,1.33-7.46,1.99-11.18,1.49-8.45,2.5-16.99,3.05-25.56,1.1-17.3,.63-34.83-1.78-52-.3-2.16-.64-4.31-1-6.46,.27,1.61-.27,3.37,0,5h0Z"/>
    <path class="cls-2" d="M113.51,307.87c4.28-2.46,8.4-6.48,13.57-6.8,3.89-.25,9.31,.24,11.75,3.75,.54,.77,.88,1.64,1.07,2.56,.1,.48,.17,.96,.21,1.45,.04,.37,.04,.74,.07,1.1-.47-5.13,.06-4.18-.04-2.68-.16,2.49-.71,4.99-1.62,7.32-1.93,4.93-6.03,8.36-10.42,11.09-5.48,3.4-11.54,5.8-16.63,9.83l.02,1.84c-.01-6.22-.02-12.44-.03-18.66,0-3.07,0-6.14-.02-9.21,0-.32,0-.65,0-.97-.07,2.31-.07,3.02,.01,2.11,0-.08,.01-.16,.03-.24,.07-.25,.12-.47,.24-.7,.4-.71,1.18-1.25,1.78-1.77,.26-.23,.02-2.14,.02-2.5,0-.59,0-1.18,0-1.77,0-.11-.07-.68-.02-.73-.63,.56-1.48,1.13-1.85,1.92-.3,.62-.24,1.4-.25,2.07-.05,3.46,0,6.93,0,10.39,.01,7.13,.02,14.26,.04,21.4,0,.22,.2,1.69,.02,1.84,8.85-7.02,23-9.77,27.24-21.43,.86-2.35,1.34-4.85,1.47-7.35,.14-2.85,.26-5.87-.17-8.7-.75-4.83-5.16-6.52-9.55-6.87-3.19-.26-5.98,.15-8.83,1.65s-5.35,3.5-8.13,5.09c-.21,.12-.02,2.22-.02,2.5s.22,2.39,.02,2.5h0Z"/>
    <path class="cls-2" d="M5.6,252.35l-.81-1.65-.34,.44c2.87-1.91,6.33-2.06,9.67-2.09,3.73-.04,7.47-.01,11.21-.01,7.82,0,15.63-.01,23.45-.02,15.63-.01,31.26-.03,46.9-.04,4.32,0,8.65,0,12.97-.01,2.16,0,4.32-.02,6.49,0,1.06,0,2.22-.03,3.11,.66,.35,.27,.66,.62,.8,1.04,.11,.29,.14,.58,.08,.89-.28,.44-.07,.53,.63,.26-.59-.2-1.49,.1-2.03,.37-.29,.15-.96,.56-.35,.77,1.27,.44,3.14-.09,4.08-1.05,1.11-1.15,.45-2.74-.8-3.47-1.56-.92-3.68-.66-5.4-.65-2.25,0-4.49,0-6.74,0-8.9,0-17.79,.01-26.69,.02-17.88,.01-35.76,.03-53.63,.04-4.79,0-9.59-.12-14.37,.06-4.04,.15-8.18,.87-11.6,3.15-.07,.05-.42,.28-.34,.44l.81,1.65c.35,.72,3.14-.28,2.9-.78h0Z"/>
    <g>
      <path class="cls-1" d="M73.37,243.76c-.23,.25,2.28,.31,2.73,.38-.54-.49-3.38-.4-2.73-.38Z"/>
      <path class="cls-1" d="M67.73,239.64l1.03,.05c-.84-.17-1.68-.34-2.52-.49,.5,.14,1,.29,1.5,.44Z"/>
      <path class="cls-1" d="M67.61,236.25c-4.25,.61,.78,1.13-.72,1.85l-.97,.14,3.45,.12c-.57-.76-2.92-1.54-1.77-2.12Z"/>
      <path class="cls-1" d="M76.68,233.62c-1.65,.28-1.47-.26-.48,.48,.18-.06,.28-.08,.41-.12-.03-.07-.04-.18,.06-.37Z"/>
      <path class="cls-1" d="M76.62,233.98c.16,.36,1.37-.37,0,0h0Z"/>
      <path class="cls-1" d="M75.5,232.4c.51,.09,1.02,.19,1.53,.31,.97-.21,1.14-.65,1.87-.57-.86-.38-1.82-.17-3.4,.26Z"/>
      <path class="cls-1" d="M72.34,232.32l.65,.16c.41-.09,.54-.16-.65-.16Z"/>
      <path class="cls-1" d="M74.37,232.83l-1.38-.35c-.68,.14-2.06,.3,.5,.17-1.27,.1-.04,.06,.87,.18Z"/>
      <path class="cls-1" d="M73.75,233.19c-.9,.36-1.45,.75-2.97,.44,.67,.82,3.66,.41,2.97-.44Z"/>
      <path class="cls-1" d="M63.18,236.42l-1.23,.41,1.45,.18c-.72-.09,1.11-.71-.23-.59Z"/>
      <path class="cls-1" d="M77.38,229.41c-.91,.09-2.39,.44-3.55,.61l1.08,.18c.6-.23,1.13-.61,2.47-.79Z"/>
      <path class="cls-1" d="M73.83,230.02l-1.61-.27c-.13,.43,.62,.42,1.61,.27Z"/>
      <polygon class="cls-1" points="67.61 232.78 70.96 233.21 67.55 232.63 67.61 232.78"/>
      <polygon class="cls-1" points="77.28 227.72 79.41 227.71 76.19 227.67 77.28 227.72"/>
      <path class="cls-1" d="M76.79,226.74c1.75-.05,2.91-.56,4-.52-.34-.22-1.86-.27-3.22-.32,.77,.13,.61,.38-.78,.84Z"/>
      <path class="cls-1" d="M75.58,225.79c.42,.05,1.18,.08,1.99,.11-.41-.07-1.01-.12-1.99-.11Z"/>
      <path class="cls-1" d="M72.58,228.95c.54-.1,1.97-.34,2.54-.66l-2.52,.48c0,.05-.01,.11-.02,.17Z"/>
      <path class="cls-1" d="M72.51,228.79l.08-.02c.03-.19,.07-.32,.1-.38-.02,.05-.07,.17-.18,.4Z"/>
      <path class="cls-1" d="M72.57,228.99s0-.03,0-.04c-.25,.05-.33,.07,0,.04Z"/>
      <path class="cls-1" d="M69.77,231.27c-1.46-.1-3.05-.46-5.15,.34,1.77-.02,2.96-.48,5.15-.34Z"/>
      <path class="cls-1" d="M69.41,229.6l-.52,.55c.67-.09,1.64-.3,2.36-.26l-1.84-.29Z"/>
      <polygon class="cls-1" points="68.58 229.47 69.41 229.6 69.61 229.4 68.58 229.47"/>
      <path class="cls-1" d="M73.28,226.76c-1.13-.05-1.25-.25-1.45-.45-.47,.29-.71,.58-.68,.82,.8-.06,2.25-.12,2.13-.37Z"/>
      <path class="cls-1" d="M72.67,227.73s-.1-.02-.15-.02c-.21,.05-.28,.08,.15,.02Z"/>
      <path class="cls-1" d="M71.66,224.3c-.14,.02-.31,.04-.46,.07,.15,0,.29-.02,.44-.03l.02-.04Z"/>
      <path class="cls-1" d="M70.67,227.22c-.47,.24,.17,.28,.96,.29-.27-.11-.45-.23-.49-.39-.36,.03-.6,.05-.47,.1Z"/>
      <path class="cls-1" d="M74.33,225.37c-.53,.14-.97,.28-1.37,.43,.8-.17,2.04-.47,1.37-.43Z"/>
      <path class="cls-1" d="M73.22,227.56s.09,0,.12,.01c.54-.13,.27-.09-.12-.01Z"/>
      <path class="cls-1" d="M73.22,227.56c-.38-.05-1.01-.05-1.58-.05,.21,.09,.5,.16,.88,.2,.18-.04,.45-.1,.7-.15Z"/>
      <path class="cls-1" d="M55.19,224.78c2.37-.1,4.61,.24,2.1,.9,1.81,.31,9.57-.69,13.91-1.32-1.03,.07-1.99,.15-3.42-.14-1.28,.21-2.96,1.12-5.13,.95-1.27-.47,.8-.53,2.04-.88-2.94,.44-4.34-.44-8.68-.09l1.56,.46c-.67,.06-1.77-.08-2.37,.12Z"/>
      <path class="cls-1" d="M71.01,225.08l.31,.13c.39-.22,1.33-.44,3.17-.8-1.17-.13-2.06-.12-2.85-.07-.09,.25-.19,.49-.27,.76l-.36-.02Z"/>
      <path class="cls-1" d="M71.4,225.93c-2.58,.15-3.72-.16-6.48,.37,.23,.49,2.18,.14,3.33,.31-.72-.72,1.45,.07,2.86-.65,.45,.1,.6,.22,.72,.34,.3-.17,.67-.34,1.13-.51-.06,.01-.1,.02-.16,.03h0s-.02,0-.04,0c-.32,.07-.51,.1-.33,.04-.03,0-.04,0-.05-.01-.35,.02-.66,.05-.97,.07,.51-.27,.66-.1,.97-.07,.13-.01,.25-.02,.38-.03,.01,0,.02,0,.03,0l-1.49-.61c-.34,.19-.25,.39,.08,.72Z"/>
      <path class="cls-1" d="M59.04,231.8c.22-.06,.41-.08,.59-.1-.32-.02-.54-.02-.59,.1Z"/>
      <path class="cls-1" d="M60.54,231.23c.37,.02,1.4-.05,1.16,.2-.75,.28-1.23,.15-2.07,.26,.7,.04,1.9,.23,3.09-.33l-.36-.02c.84-.48,3.98-1.35,4.34-1.33-2.3,.39-3.93,.7-6.16,1.22Z"/>
      <path class="cls-1" d="M65.29,228.53l-1.34-.57-2.18,.63,1.33-.18c-.48,.48,1.16,.19,2.19,.12Z"/>
      <polygon class="cls-1" points="72.93 224.14 75.66 224 71.79 223.96 72.93 224.14"/>
      <polygon class="cls-1" points="72.56 223.44 74.93 223.32 73.49 223.23 72.56 223.44"/>
      <path class="cls-1" d="M54,170.74l-.69-.11c.21,.05,.44,.09,.69,.11Z"/>
      <path class="cls-1" d="M53.85,171.8l1.17,.02c-.64-.05-1.12-.06-1.17-.02Z"/>
      <path class="cls-1" d="M76.08,205.25c2.21,.37,5.59,1.09,3.04,.31l-2.51-.7c.37,.36,.05,.43-.53,.4Z"/>
      <path class="cls-1" d="M66.01,184.67c-.25-.03-.52-.06-.79-.09,.85,.28,1.64,.55,2.37,.79-.49-.22-1.02-.45-1.58-.7Z"/>
      <path class="cls-1" d="M55.58,182l1.72,.02c-.59-.05-1.16-.06-1.72-.02Z"/>
      <path class="cls-1" d="M50.99,159.97l-2.61-.63c-.04,.66,1.32,.47,2.61,.63Z"/>
      <path class="cls-1" d="M72.09,217.12c1.04-.02,1.49-.1,1.64-.22-1.51-.05-3.76-.28-1.64,.22Z"/>
      <path class="cls-1" d="M81.63,170.38c-.47-.17-1-.22-1.58-.2,.45,.16,.94,.25,1.58,.2Z"/>
      <path class="cls-1" d="M73.85,216.27c-.26-.02-.4,0-.63-.01,.39,.26,.71,.49,.51,.64,1.13,.04,1.83-.01,.12-.63Z"/>
      <path class="cls-1" d="M70.46,123.54c.11,.06,.17,.07,.29,.14-.26-.23-.3-.22-.29-.14Z"/>
      <path class="cls-1" d="M96.97,132.85c.05,.21-.09,.39-.19,.59,.2,.03,.3-.13,.19-.59Z"/>
      <path class="cls-1" d="M73.66,220.98c.17,.12,.29,.03,0,0h0Z"/>
      <path class="cls-1" d="M63.34,221.43c-.29-.04-.67-.07-1.27-.09,.63,.02,1.03,.05,1.27,.09Z"/>
      <path class="cls-1" d="M58.53,210.7s.01,0,.01-.02c-.51-.06-.41-.05-.01,.02Z"/>
      <path class="cls-1" d="M72.47,221.11c.32-.04,.59-.08,.78-.12-.2,.02-.46,.05-.78,.12Z"/>
      <path class="cls-1" d="M73.7,221.13c-.12,.03-.18,.06-.26,.09,.43,.02,.71,.02,.26-.09Z"/>
      <path class="cls-1" d="M73.52,220.82c.04,.07-.09,.12-.28,.17,.18-.02,.32-.02,.41-.01-.04-.03-.09-.08-.14-.16Z"/>
      <path class="cls-1" d="M65.09,143.64c.08,.02,.14,.03,.24,.06-.85-.71-.75-.53-.24-.06Z"/>
      <path class="cls-1" d="M52.01,191.83s.09,.04,.11,.06c.03,0,.07,0,.1,0l-.21-.06Z"/>
      <path class="cls-1" d="M50.39,190.54c2.99,1.28,2.56,1.33,1.83,1.35l7.23,2.05-9.06-3.4Z"/>
      <path class="cls-1" d="M53,167.45c-.76,.32-1.51,.66-2.26,1.01-3.92-.64-2.66-1.6-5.87-.49,4.07-.24,4.34,.56,4.62,1.36l.05,.15s.03,.04,.05,.05c.03,.03,.08,.06,.13,.08,.11,.05,.29,.09,.58,.12,.59,.05,1.66,.03,3.69-.14l-1.69,.36c.07-.07-.4-.04-.33-.1-3.86,.69,5.89-.16,4.79,.56-.61,.25-1.78,.43-2.75,.34,.69,.11,1.37,.24,2.03,.38-.16,.14-1.57,.14-1.42,0l.64,.7h-.24c1.28,.09,3.25,.34,4.09,.48-1.17,.19-.86-.11-1.88-.07l1.98,.47c-2.11,.12-4.16-.27-3.86-.53-4.07,.15-3.55,.2-2.62,.35,.93,.14,2.32,.38-.1,.67-.34-.13-.66-.27-1.01-.39-4.62,.04-2.98,.36-5.88,.52,.75,.01,2.58-.05,4.47-.08,1.89-.03,3.84-.04,4.84,.23-.62,.1-.93,.23,.69,.58-2.89-.19-2.2,.08-2.05,.38l-3.82-.33c1.09,.36,3.03,.52,4.74,.86-.39,.32-3.38,.08-5.87-.12-.68,.46,4.79,.14,5.42,.88-1.52,.31,0,.81,2.19,1.77-1.35,.15-2.31-.42-3.41-.46l2.98,.78c-.09,.07-1.01-.11-1.48-.2,1.12,.46,3.78,.63,4.72,1.26,2.07,.42,.5,.41-1,.43-1.5,.03-2.94,.08-.63,.82-1.09-.08-2.3-.52-3.76-.77,2.96,1.35,2.12,1.07,6.12,2.62h-2.59c2.9,.24,6.11,1.5,8.72,2.67,1.39,.16,2.61,.29,3.2,.33l1.81,1.33c-.64-.04-1.9-.44-3.42-.96,.31,.13,.61,.26,.86,.37-1.45-.04-3.56-.73-5.6-1.43,.77,.09,1.58,.18,2.37,.27-2.22-.74-4.7-1.5-6.89-1.97,.42,.15,.77,.33,.95,.48-.6-.19-1.15-.35-1.53-.42-.4-.07,.41,.2,1.33,.55l-4.2-.84,1.64,.44-2.83,.29c3.99,1.72,9.96,3.99,11.33,5.68-2.93-1.14-4.91-1.45-8.49-2.48,3.88,.75-1.38-1.31-.46-1.65-.48,.19-2.17-.34-2.75-.57l3.19,1.94c-2.92-.84-2.25-.4-3.54-.48,5.84,1.43,3.62,1.86,5.27,2.81-1.94-.54-3.89-1.22-3.28-1.59-4.5-.71,6.56,2.72,2.7,2.2-.01-.14,.31-.12-.66-.46,1.63,.81,.06,1.13-1.57,.45v-.14c-.94,.64-.85,2.56,3.98,4.24-.63-.19-5.83-1.97-6.8-2.33,5.3,2.22,10.58,4.5,15.86,6.77-4.13-1.47-14.24-4.13-16.37-5.61-.66,.02-1.44,.05-.1,.96,.64,.05,6.15,1.58,6.47,1.9-4.82-.96-2.6-.43-6.77-1.05,.96,.08,7.43,2.42,7.11,2.7-.96-.37-6.46-2.06-7.11-2.4l6.15,2.92c-1.09-.59-5.43-1.8-7.31-2.19,1.29,.32-.36,.7,.21,1.14l1.61,.12c-1.28,.65,8.72,3.86,8.08,4.7-1.29-.54-8.08-2.91-9.05-2.66,3.22,1.29,15.53,6.03,17.81,7.62l-1.93-.43,1.95,1.29c-4.85-1.91-14.94-6.3-18.79-8.24-1.61-.1-2.25-.6-2.26,.02-1.83-.36-2.58-1.15-2.63-1.35l-1.56,.97c3.87,1.14,3.55,2.21,6.78,3.15l-3.55-2.66c3.86,1.16,10.67,4.21,9.72,4.91-1.61-.23-6.82-2.27-8.11-2.65,1.29,.53,2.27,1.67,1.3,1.47l-1.94-1.02c-1.62,.11,4.87,2.39,.99,1.93-.31,.14-5.19-.79-2.9-.08,4.53,.91,18.22,4.83,21.48,6-.32-.02-4.51-.19-6.77-.55-3.58-.61-8.14-2.83-11.21-3.36,1.06,.31,2.31,.88,2.71,1.08-.97-.02-3.26-1.01-2.92-.36,3.92,1.16-.62,.94,3.27,1.15,1,.79-.95,.3-.94,.93,2.6,.49,8.57,2.77,9.6,3.49-1-.28-2.34-.5-2.95-.6-.59,.86-2.53,.96-2.77,1.88-.98-.13-2.25,.08-3.93-.49,.68,.29,2.01,.71,2.05,1.02-3.58-.14-.41-.78-4.65-1.21,2.32,.53,3.05,1.46,4.43,2.16,3.63,.57,.88-.8-.49-1.55,4.95,1.07,10,2.84,12.14,4.1,1.1,.89-3.28-.3-2.59-.05-1.11,1.19,8.58,2.29,4.85,2.59-3.24,0-6.38-.66-8.7-.83-1.16-.75,2.15-.64,2.07-1.01l-1.58,.25c-1.04-.32-1.78-.86-.83-.93-1.45-.04-1.69,.55-1.89,1.25-.16,.7-.35,1.47-1.69,1.99,1.07,.27,2.18,.64,3.48,.53l-.44-.36c2.61-.16,3.57,.75,4.8,.41,1.82,.49,4.66,.89,3.21,1.39l-3.68,.12c1.08-.03,2.19-.36,1.06-.53,.82,.12-.42,.32-1.27,.56-.84,.23-1.29,.49,1.12,.56l2.55-.42c1.84,.36,5.76,.63,4.63,1.1,3.62-.35-.42-.09,3.81-.54-2.63,.23-2.6-.05-2.58-.27,.02-.22,0-.43-2.77-.2,4.93-.34,2.08-.54,6.29-.81-1.21-.01-2.33,.07-1.71-.19-.32-.03-.78-.06-1.07-.09,.04,0,.06,0,.09-.02-.05,0-.09,0-.14,.01-.18-.02-.22-.02-.05,0-.53,.05-1.17,.09-1.85,.1-2.78-.21-2.67-.77-4.1-1.04,.58-.18,1.39,.17,2.68,.13l-2.13-.4c2.69,.14,4.51-.1,6.05,.38l.15-.3c1.52-.05,2.13-.17,1.03-.44,.6-.03-2.9-.76-.83-.34-.52-.25-1.07-.44-1.57-.79l.66,.11c.48-.64-4.06-2.45,.87-2.29-.6-.4-1.34-.87-.49-1.13l2.29,.45c-.71-.52,2.5-.41,.17-1.14,6.14,1.23,1.76-1.26,2.99-1.57l-2.92-.84c.28-.36-.45-1-1.45-1.89l-2.59-.72c-1.98-1.1,2.2-.68,2.16-1.5,.97,.35,.65,.46,.02,.41,6.06,.92-3.62-3.24,.86-2.75-.87-.5-.5-.55,.19-.49,0,.02,.04,.05,.12,.09,.04-.01,.05-.04,.06-.08,.47,.05,1.01,.12,1.46,.15-.65-.11-1.19-.19-1.45-.19,0-.17-.24-.53-.8-.98l2.78,.78s-.02-.05-.06-.08c1.09,.09-1.24-.61-3.35-1.15-.41-.27-.92-.56-1.55-.86,4.5,1.23-1.29-1.13,3.53,.13-2.26-.91-1.34-1.8-6.15-3.51,.64,.2,.96,.22,.96,.37,.64-.1,1.29-.2,0-.9l3.54,1.01-4.51-2.12c2.25,.31,3.54,.55,6.11,1.79-3.85-2.22-1.32-1.22-5.19-3.3l2.25,.75c0-.31-2.9-1.7-.97-1.28,4.51,.73,1.54-2.89,6.06-3.42-6.82-1.56,3.24,.05-1.97-1.48,1.62,.34,2.59,.34,3.9,1-1.33-1.31,2.9-.7-1.36-2.46,1.64,.31,2.3,.79,3.27,.95-.33-.16-1.32-.64-.34-.5,.98,.15,1.31,.47,1.97,.8-.01-1.02-4.95-2.35-9.58-3.55,2.3,.08,2.05-.24-.93-1.27,1.56,.2,3.22,.29,3.63,.99,.29-.26,2.69-1.49-1.05-2.31,.98,.1,.37-.4-.05-.57,.36-.68,.71-.69,.49-1.47l-.65,.09c-4.5-1.11-.91-.76-1.35-1.43l.47,.09c3.53-.79-1.49-.79,2.46-1.57l-2.86-.32c-3.06-.49-2.12-.62-.69-.81,1.43-.18,3.34-.44,2.22-.95l-1.67,.1c-1.03-.32,1.11-.36,3.58-.44,2.48-.07,5.32-.16,5.72-.38,.54-.06,.85,.24,1.23,.43,3.73-1.02-3.74-.48-4.55-1.46,2.04-.04,5.14,.59,5.57-.05,.83-.12-.78-.71-2.11-1.3-1.32-.6-2.43-1.21-.47-1.62-1.57,.18-3.13,.32-4.31-.12-.28-.32,1.2-.74,2.14-1.2,.93-.45,1.32-.92-1.15-1.14,.43-.1,.84-.14,1.23-.16-1.29-.48-2.23-1.57-4.91-1.65,4.94-.57,3.67-1.32,2.32-1.88-.68-.34-1.36-.39-1.32-.56,.05-.16,.83-.32,3.12-.52l-.56-.75,.94-.03c.59-.5-1.59-.61-3.8-.81,.62-.14,1.48-.04,1.96-.03,1.82-.79,1.48-.7-3.06-1.72l2.97,.13c-.86-.15,.31-.37,1.31-.61,.99-.26,1.74-.5,.09-1.14,.33,.06,.9,.16,1.3,.28-1.64-.68,.47-.85,1.67-.98,1.22-.15,1.5-.35-3.71-1.87-.82-.42-1.62-.86-2.41-1.32-.53,.31-1.66-.02-2.88-.46-1.22-.44-2.53-1.01-3.45-1.04-.48-.6,3.44-.09,3.83,.52l-.54-.08c5.38,1.72,2.24-.52,5.89,.68,.14-.81,1.07-1.33,2.09-1.74,1-.42,2.09-.74,2.51-1.34l-4.02-1.77,.49-.4c.98,.33,3.15,1.39,2.82,1.64,2.31,.95-1.57-1.51-2.4-1.98,1.92,.14,4.4,2.63,4.61,2.46l-.16-.41-.48-.18c-1.48-1.05-3.13-1.98-2.7-2.3,.92,.15,2.44,1.17,2.65,1.16,.27,.15,.42,.19,.19-.09l.66-.4-3.14-1.5c-1.32-1.13,.52-.51-3.05-2.19,2.76,1.3,3.55,1,3.93,.45,.38-.55,.31-1.38,1.19-.98-1.83-1.79-1.52-2.18-.93-2.49-.67-.3-3.92-2.45-3.21-2.62,6.44,4.81,3.4,1.24,8.3,4.35-3.3-1.99,.09-1.7-4.6-4.53,.78,.04,2.41,1.8,4.11,2.69-1.84-2.71,2.95-.49,2.92-2.11-.8-.69-2.18-1.55-3.21-2.77l4.49,2.85c-.24-.52-4.51-4.1-1.41-2.1-.72-.52-1.81-1.31-1.95-1.66,2.79,.68,2.88-1.02,3.45-2.42,.28-.7,.69-1.32,1.61-1.54,.47-.12,1.07-.14,1.86-.02,.8,.1,1.8,.3,3.05,.68-1.92-.88-1.88-1.24-1.68-1.63-.56-.07-2.05-1.61-3.22-2.44,1.38,.37,2.73,.8,4.29,.85-.76-.64-1.08-1.08-1.18-1.43-.09-.35-.04-.52,.06-.72,.19-.39,.33-.78-1.28-1.79l.38,.79c-1.8-1.44-4.04-2.45-6.43-3.62-2.39-1.15-4.87-2.45-7.29-4.01,1.04,.73,1.13,.89,.79,.76-.33-.14-1.09-.57-1.83-.94-.73-.38-1.37-.74-1.51-.69-.17,.08,.18,.56,1.48,1.85-1.01-.62-1.35-1.27-2.44-2.05,1.82,1.67,2.05,2.2,.91,1.84l-.43-.43c-.38,1.37-2.61,.24-4.91,.41l2.22,1.77c-.52,.02-1.24-.51-1.89-.85,2.99,3.13,.84-.59,4.18,2.81-4.67-3.45-1.71,1.84-6.93-2.16-.4,.42,2.61,2.01,2.21,2.42l-1.46-1.03,1.65,1.59c-.53,.04-2.36-1.24-3.52-2.2,.2,.04-.15-.48-.18-.64-1.93-.96-.37,1.56-1,1.26l1.21,.26c.26,2.28-2.85,2.44-.95,5.92l1.14,.72c1.27,2.45-1.77-.13-1.63,1.65l-.23-.23c.93,1,1.27,1.67,.94,1.88-1.08-1.19-2.87-1.23-4.03-2.6,1.41,2.65,1.32,1.77,4.96,5.28l-1.96-1.08c1.51,1.36,2.38,1.96,2.52,2.82-1.31-1.49-3.07-1.49-4.86-3.39-2.43-.71-1.71,.43-1.14,1.3,.57,.89,.98,1.5-2.25-.03,4.94,3.73,3.57,.69,4.51,1.7,1.86,.81,3.66,2.85,2.92,2.88-.33,.28-7.17-3.38-7.68-2.22,.08-.09-.32-.33-.24-.42-1.6-.35,1.43,1.8-1.08,1.08,3.14,2.02-.53,.56,3.65,2.82l-.48-1.46c.78,1.15,5.5,4.16,2.68,3.77-.83-.49-1.83-1.3-2.36-1.8-1.39-.36,.58,.91-.85,.54-4.23-2.17-.34-1.63-3.23-3.92-1.94-.61,2.46,2.75-1.96,.1,2.8,1.71,2.49,1.88,1.97,2.02-.52,.13-1.22,.26,.86,1.7l-2.56-1.26c.35,.32,1.45,1.14,1.28,1.33l-3.16-1.96c2.57,1.95-3.11,.15-1.82,1.54,.5-1.43,3.28,1.04,5.43,1.32,2.85,3.03-7.25-2-6.78,.52-.27-.43,1.99-.37,3.05,.51-.69,.14-1.89,.25-3.38-.03,.08,1.54,2.83,.8,4.27,1.95-3.42-.73,1.11,1.1,1.99,1.96l-2.75-.91c-2.24,.9,5.62,2.21,3.11,2.78-1.23-.55-2.46-1.12-3.68-1.7l.79,.99-3.12-1.07c2.12,1.47,1.43,1.49,.35,2.05,2.02,.33,5.06,1.41,5.01,2.03-1.78,.04-2.62-.88-2.44,.14-1.72-.59-3.87-1.38-1.18-1.18-.91-.26-1.71-.65-2.61-.92-2.05,.06-.76,1.23-.81,1.59,.14-.12,.33-.26,.75-.25,1.18,.77,2.42,1.52,3.64,2.23-1.11,.02-1.94-.31-2.74-.65,.25,.36,1.53,.8,1.7,1.25-2.3-.51-4.7-.89-5.67-1.75,.76,.66,1.54,1.3,2.31,1.91-1.03-.08-2.89,.35-3.72,.03-.74,.34,.32,1.04,1.34,1.72,1.02,.68,1.96,1.32,1.03,1.8,.45,.09,.88,.24,1.2,.5-.3,.49-1.18,.93-1.59,1.44-.42,.5-.35,1.08,1.28,1.7-1.4,.23-2.81,.47-4.21,.74,.49,.52,1.81,.23,3.22,.05,1.41-.18,2.89-.25,3.7,.48,1.36,1.01-3.59,.53-4.75,.98,1.07,.25,2.72,.55,3.67,.92,.95,.37,1.21,.8-.46,1.47-.82-.26-.22-.59-.56-.87Zm2.11,6.03c-.6-.15-2.45-.43-.74-.44,3.3,.25,1.71,.3,.74,.44Zm5.25,10.96c-.9-.34-.4-.38,.7-.29,.2,.19,.06,.31-.7,.29Zm11.04,35.14s-.08-.01-.14-.02c1.13-.06,.69-.05,.14,.02Zm-1.28,.29c.4,.08,.8,.11,1.2,.12-.73-.09-.77-.19-.56-.27-.76-.05-1.28-.03-.65,.15Zm13.19-68.98l-.72-.27c-.61-.62,.02-.19,.72,.27Z"/>
      <path class="cls-1" d="M56.79,182.31c.48,.07,1.01,.19,1.54,.3-.46-.16-1.01-.29-1.54-.3Z"/>
      <path class="cls-1" d="M51.47,160.08s.02-.02,.03-.03c-.17-.03-.35-.06-.52-.08l.48,.11Z"/>
      <path class="cls-1" d="M48.25,204.91c.44-.04,.98,.01,1.52,.1-.68-.2-1.27-.29-1.52-.1Z"/>
      <path class="cls-1" d="M74.95,222.18l-.75-.25c.14,.12-.49,.18-.95,.25,.68-.02,1.66-.08,1.7,0Z"/>
      <path class="cls-1" d="M57.28,226.47c.36,.03,.05,.14,.42,.17l1.34-.15c-.12-.27-1.22-.36-1.75-.02Z"/>
      <path class="cls-1" d="M65.34,222.7c-2.43,.1-1.59,.33-1.13,.58,0-.02-.03-.03,0-.05,3.41-.07,2.27-.28,1.13-.53Z"/>
      <path class="cls-1" d="M64.29,223.34c.12,.08,.19,.16,.07,.25,1.36-.04,.28-.11-.07-.25Z"/>
      <path class="cls-1" d="M71.67,220.5c-.63,.06,3.11,.23,2.12,.22,3.08,.27-3.71-.77-2.12-.22Z"/>
      <polygon class="cls-1" points="57.33 223.2 60.33 222.99 57.9 222.89 57.33 223.2"/>
      <path class="cls-1" d="M59.53,220.76l-.85,.46c.5,0,.8,.06,1.02,.14,.1-.29,.72-.59-.17-.6Z"/>
      <path class="cls-1" d="M59.7,221.36c-.06,.15,0,.3,.5,.38-.03-.08-.13-.26-.5-.38Z"/>
      <polygon class="cls-1" points="56.41 222.52 57.04 222.36 57.26 222 56.41 222.52"/>
      <path class="cls-1" d="M60.67,215.8l-.74-.69c-1-.25-1.65-.23-1.29,.05,.68,.26,1.03,.53,2.03,.64Z"/>
      <path class="cls-1" d="M52.26,216.14c.64-.08,1.31,0,2.3,.07l-3.68-.59,1.38,.53Z"/>
      <path class="cls-1" d="M51.71,214.18c-1.01-.24-2.74-1.43-2.66-.62,.99,.26,1.72,1.01,2.66,.62Z"/>
      <polygon class="cls-1" points="58.32 206.8 58.33 206.95 64.22 208.6 58.32 206.8"/>
      <path class="cls-1" d="M46.58,195.25c-1.6,.19,3.54,1.3,1.62,1.32,1.33,.59,1.57-.02,2.71,.52-1.33-.85-.44-.78-4.33-1.84Z"/>
      <path class="cls-1" d="M50.9,197.09c.21,.13,.47,.29,.82,.48-.33-.23-.59-.37-.82-.48Z"/>
      <path class="cls-1" d="M101.26,132.34c.48,.02,.96,.04,1.44,.04l-1.98-.65,.55,.61Z"/>
      <path class="cls-1" d="M97.91,128.96l3.47,1.76-2.97-2.04c.11,.21,.31,.62-.49,.28Z"/>
      <path class="cls-1" d="M47.22,173.74l.93,.09c1.01,.04,1.09-.02,1.26-.12l-2.19,.04Z"/>
      <polygon class="cls-1" points="50.17 170.62 50.1 170.68 53.6 170.37 50.17 170.62"/>
      <path class="cls-1" d="M45.32,165.51c-.14,.35,.65,.71,.53,1.05-.68-.72,3.87-1.28-.53-1.05Z"/>
    </g>
    <path class="cls-2" d="M105.96,264.75c-7.98,12.65-12.66,27.27-13.49,42.21-.41,7.32,.21,14.58,.62,21.88,.44,7.78-.2,15.79-4.65,22.43-3.8,5.67-10.09,10.08-17.17,9.06,.1,.01-.14,2.48,0,2.5,6.17,.89,11.81-2.36,15.64-7.01,4.54-5.5,6.12-12.34,6.33-19.35,.22-7.45-.67-14.84-.87-22.27-.22-7.94,1.11-16.07,3.25-23.7,2.3-8.21,5.79-16.05,10.34-23.25,.38-.6-.37-1.91,0-2.5h0Z"/>
    <path class="cls-2" d="M230.03,211.63l-5.15,8.83c-.03,.05,0,.34,0,.37,0,.29,0,.59,0,.88s0,.59,0,.88c0,.08,.04,.31,0,.37l5.15-8.83c.03-.05,0-.34,0-.37,0-.29,0-.59,0-.88s0-.59,0-.88c0-.08-.04-.31,0-.37h0Z"/>
    <path class="cls-2" d="M224.88,222.95c27.37,1.81,54.79-2.43,80.9-10.56,12.21-3.8,24.27-8.34,35.85-13.79,9.86-4.64,19.46-10.06,27.98-16.9,8.88-7.13,16.82-16.13,20.04-27.26,.22-.77-.22-1.74,0-2.5-2.86,9.88-9.47,18.11-17.1,24.79-8.26,7.24-17.81,12.94-27.64,17.78-11.17,5.51-22.88,10.05-34.71,13.95-12.93,4.26-26.16,7.61-39.61,9.75-15.11,2.4-30.45,3.25-45.73,2.24,.04,0-.07,2.5,0,2.5h0Z"/>
    <path class="cls-2" d="M382.08,152.18c2.53,.76,5.05,1.51,7.58,2.27-.04-.01,.01-1.15,.01-1.25,0-.11,.07-1.23-.01-1.25-2.53-.76-5.05-1.51-7.58-2.27,.04,.01-.01,1.15-.01,1.25,0,.11-.07,1.23,.01,1.25h0Z"/>
  </g>
</svg>