<?xml version="1.0" encoding="UTF-8"?>
<svg id="Layer_2" data-name="Layer 2" xmlns="http://www.w3.org/2000/svg" viewBox="0 0 396.07 122.47">
  <defs>
    <style>
      .cls-1 {
        fill: #231f20;
      }
    </style>
  </defs>
  <g id="Layer_1-2" data-name="Layer 1">
    <path class="cls-1" d="M5.78,34.83c15,7.14,32.63,6.6,47.22-1.31,.36-.2-.33-2.32,0-2.5-14.59,7.91-32.22,8.45-47.22,1.31,.31,.15-.34,2.34,0,2.5h0Z"/>
    <path class="cls-1" d="M53.01,34.76c3.11,.48,4.28,4.04,4.82,6.69,.72,3.58,1.23,7.21,1.83,10.8-.13-.77,.02-1.71,.02-2.5s.11-1.7-.02-2.5c-.6-3.6-1.11-7.23-1.83-10.8-.53-2.65-1.71-6.21-4.82-6.69,.21,.03-.29,4.96,0,5h0Z"/>
    <path class="cls-1" d="M58.87,55.47c2.67-4.36,7.33-7.55,12.59-7.25s9.42,3.67,11.77,8.11c1.19,2.26,1.94,4.74,2.31,7.27,.11,.75,.17,1.5,.22,2.25,.08,1.17-.47,1.71,.01-2.47-.05,.42-.05,.85-.09,1.28-.14,1.43-.4,2.85-.77,4.24-1.34,5.09-4.1,9.77-7.72,13.58-4.46,4.69-10.13,7.94-16.02,10.49-.17,.07-.02,2.26-.02,2.5s.18,2.43,.02,2.5c5.65-2.45,11.09-5.54,15.47-9.93,4.08-4.1,7.15-9.29,8.46-14.94,.7-3.02,.72-6.06,.71-9.15,0-2.71-.13-5.38-.82-8.02-1.38-5.29-4.76-10.23-10.13-12.05-6.32-2.14-12.66,1.12-16,6.58-.29,.47-.02,1.95-.02,2.5,0,.59,0,1.18,0,1.77,0,.15,.09,.62,.02,.73h0Z"/>
    <path class="cls-1" d="M60.39,63.22c1.28-3.43,5.2-5.31,8.72-4.38,4.12,1.09,5.83,5.15,6.5,8.94-.67-3.76,.15-4-.03-2.4-.04,.33-.09,.66-.15,.99-.1,.53-.23,1.04-.38,1.55-.33,1.09-.77,2.14-1.31,3.14-1.09,2.03-2.56,3.83-4.24,5.4-1.85,1.72-3.94,3.16-6.09,4.48-.49,.3-.99,.59-1.49,.88-.54,.31-1.04,.83-1.32,.1-.18-.47-.04-1.45-.05-1.96-.02-.82-.04-1.64-.06-2.45-.16-6.29-.31-12.59-.47-18.88,0-.33-.03,.42-.02,.25-.02,.5-.01,1-.01,1.49,0,1.02,0,2.05,.02,3.08,.2,8.01,.4,16.02,.6,24.04v.09c6.61-3.73,13.75-8.67,14.92-16.79,.29-2.03,.18-4.14,.15-6.19-.02-1.58-.16-3.11-.67-4.61-1-2.95-3.31-5.72-6.51-6.26-3.38-.57-6.9,1.28-8.11,4.51-.24,.65-.02,1.81-.02,2.5,0,.59,0,1.18,0,1.77,0,.19,.08,.56,.02,.73h0Z"/>
    <path class="cls-1" d="M61.03,97.6c.02,.21,.11,.71,.06,.94,.03-.15,.07-1.21-.01-.11-.05,.66-.09,1.31-.17,1.97-.13,1.17-.32,2.34-.51,3.51-.3,1.86-.42,3.78-1.59,5.34-2.09,2.79-5.7,3.23-8.93,2.97-9.95-.82-19.86-2.15-29.77-3.32-5.63-.67-11.27-1.28-16.92-1.73,.05,0-.09,2.49,0,2.5,10.92,.88,21.78,2.36,32.67,3.63,2.72,.32,5.45,.62,8.18,.89,2.55,.25,5.17,.66,7.74,.65,3.41-.01,7.08-1.67,8.06-5.19,.69-2.48,.97-5.31,1.18-7.87,.18-2.17,.18-4.41,.02-6.58,.04,.59-.06,1.66,0,2.41h0Z"/>
    <path class="cls-1" d="M3.2,105.92c-.8-4.42-1.43-8.87-1.88-13.34-.24-2.44-.43-4.89-.56-7.34-.06-1.09-.11-2.17-.15-3.26s-.08-2.71-.09-3.44c-.03-8.69,1.01-18.43,2.61-27.36,.9-5.01,2.03-9.97,3.39-14.87,.2-.72,.02-1.75,.02-2.5s-.22-1.78-.02-2.5C.95,51.42-.58,72.56,.96,93.35c.44,5.89,1.19,11.75,2.24,17.57-.29-1.61,.29-3.38,0-5h0Z"/>
    <path class="cls-1" d="M6.61,32.22c14.97-1.9,30.1-1.99,45.14-.87,.58,.04,1.63-.22,1.91-.8,.29-.61-.25-.86-.8-.9-15.28-1.14-30.66-1.03-45.87,.9-.52,.07-1.56,.37-1.64,1.01s.82,.72,1.26,.66h0Z"/>
    <path class="cls-1" d="M36.74,37.96c2.05,.59,3.54,2.16,4.5,4.02,.52,1.01,.89,2.1,1.12,3.21,.07,.32,.12,.65,.16,.98,.03,.21,.05,.43,.06,.64,.1,1.41,.11,.55,.04-2.58-.08,.81-.13,1.61-.25,2.42-.83,5.4-3.17,10.44-3.56,15.93-.07,1.02-.02,2.06-.02,3.08,0,.49-.03,1,.01,1.49,0,.05,0,.49,.02,.25,.48-6.65,3.75-12.73,3.84-19.45,.07-5.1,.36-13.21-5.91-14.99,.07,.02-.02,2.3-.02,2.5,0,.22-.13,2.46,.02,2.5h0Z"/>
    <path class="cls-1" d="M34.22,68.85c4.24,.82,8.51,0,12.22-2.19v-2.5c-.82,6.07-1.64,12.13-2.46,18.2l-.3,2.25c-.07,.54,0,1.81-.3,2.25,.04,.24-.04,.3-.25,.18l-.65-.13-1.09-.21-2.18-.42c-2.98-.58-5.97-1.15-8.95-1.73v2.5c.72-3.51,1.45-7.02,2.17-10.54,.35-1.72,.7-3.44,1.06-5.16,.27-1.3,.57-2.65,1.6-3.57,.13-.12,.01-1.07,.01-1.25s-.14-1.13-.01-1.25c-1.03,.92-1.32,2.27-1.6,3.57-.36,1.72-.71,3.44-1.06,5.16-.72,3.51-1.45,7.02-2.17,10.54-.05,.23-.07,2.49,0,2.5,2.91,.56,5.82,1.12,8.73,1.68l2.18,.42c.35,.07,1.92,.61,2.18,.42s.25-1.86,.3-2.25l.33-2.47c.82-6.07,1.64-12.13,2.46-18.2,.05-.34-.21-2.38,0-2.5-3.71,2.19-7.98,3.01-12.22,2.19,.14,.03-.17,2.47,0,2.5h0Z"/>
    <path class="cls-1" d="M152.71,34.26c15,7.14,32.63,6.6,47.22-1.31,.36-.2-.33-2.32,0-2.5-14.59,7.91-32.22,8.45-47.22,1.31,.31,.15-.34,2.34,0,2.5h0Z"/>
    <path class="cls-1" d="M199.93,34.2c3.11,.48,4.28,4.04,4.82,6.69,.72,3.58,1.23,7.21,1.83,10.8-.13-.77,.02-1.71,.02-2.5s.11-1.7-.02-2.5c-.6-3.6-1.11-7.23-1.83-10.8-.53-2.65-1.71-6.21-4.82-6.69,.21,.03-.29,4.96,0,5h0Z"/>
    <path class="cls-1" d="M205.8,54.9c2.67-4.36,7.33-7.55,12.59-7.25s9.42,3.67,11.77,8.11c1.19,2.26,1.94,4.74,2.31,7.27,.11,.75,.17,1.5,.22,2.25,.08,1.17-.47,1.71,.01-2.47-.05,.42-.05,.85-.09,1.28-.14,1.43-.4,2.85-.77,4.24-1.34,5.09-4.1,9.77-7.72,13.58-4.46,4.69-10.13,7.94-16.02,10.49-.17,.07-.02,2.26-.02,2.5s.18,2.43,.02,2.5c5.65-2.45,11.09-5.54,15.47-9.93,4.08-4.1,7.15-9.29,8.46-14.94,.7-3.02,.72-6.06,.71-9.15,0-2.71-.13-5.38-.82-8.02-1.38-5.29-4.76-10.23-10.13-12.05-6.32-2.14-12.66,1.12-16,6.58-.29,.47-.02,1.95-.02,2.5,0,.59,0,1.18,0,1.77,0,.15,.09,.62,.02,.73h0Z"/>
    <path class="cls-1" d="M207.31,62.66c1.28-3.43,5.2-5.31,8.72-4.38,4.12,1.09,5.83,5.15,6.5,8.94-.67-3.76,.15-4-.03-2.4-.04,.33-.09,.66-.15,.99-.1,.53-.23,1.04-.38,1.55-.33,1.09-.77,2.14-1.31,3.14-1.09,2.03-2.56,3.83-4.24,5.4-1.85,1.72-3.94,3.16-6.09,4.48-.49,.3-.99,.59-1.49,.88-.54,.31-1.04,.83-1.32,.1-.18-.47-.04-1.45-.05-1.96-.02-.82-.04-1.64-.06-2.45-.16-6.29-.31-12.59-.47-18.88,0-.33-.03,.42-.02,.25-.02,.5-.01,1-.01,1.49,0,1.02,0,2.05,.02,3.08,.2,8.01,.4,16.02,.6,24.04v.09c6.61-3.73,13.75-8.67,14.92-16.79,.29-2.03,.18-4.14,.15-6.19-.02-1.58-.16-3.11-.67-4.61-1-2.95-3.31-5.72-6.51-6.26-3.38-.57-6.9,1.28-8.11,4.51-.24,.65-.02,1.81-.02,2.5,0,.59,0,1.18,0,1.77,0,.19,.08,.56,.02,.73h0Z"/>
    <path class="cls-1" d="M207.95,97.04c.02,.21,.11,.71,.06,.94,.03-.15,.07-1.21-.01-.11-.05,.66-.09,1.31-.17,1.97-.13,1.17-.32,2.34-.51,3.51-.3,1.86-.42,3.78-1.59,5.34-2.09,2.79-5.7,3.23-8.93,2.97-9.95-.82-19.86-2.15-29.77-3.32-5.63-.67-11.27-1.28-16.92-1.73,.05,0-.09,2.49,0,2.5,10.92,.88,21.78,2.36,32.67,3.63,2.72,.32,5.45,.62,8.18,.89,2.55,.25,5.17,.66,7.74,.65,3.41-.01,7.08-1.67,8.06-5.19,.69-2.48,.97-5.31,1.18-7.87,.18-2.17,.18-4.41,.02-6.58,.04,.59-.06,1.66,0,2.41h0Z"/>
    <path class="cls-1" d="M150.12,105.35c-.8-4.42-1.43-8.87-1.88-13.34-.24-2.44-.43-4.89-.56-7.34-.06-1.09-.11-2.17-.15-3.26s-.08-2.71-.09-3.44c-.03-8.69,1.01-18.43,2.61-27.36,.9-5.01,2.03-9.97,3.39-14.87,.2-.72,.02-1.75,.02-2.5s-.22-1.78-.02-2.5c-5.57,20.12-7.1,41.26-5.57,62.05,.44,5.89,1.19,11.75,2.24,17.57-.29-1.61,.29-3.38,0-5h0Z"/>
    <path class="cls-1" d="M153.47,31.42c14.86-1.88,29.9-1.96,44.83-.84,.63,.05,1.56-.12,2.05-.55,.39-.34,.44-.67-.19-.72-15.39-1.15-30.86-1.02-46.18,.92-.35,.04-1.67,.35-1.69,.83-.02,.54,.83,.4,1.18,.36h0Z"/>
    <path class="cls-1" d="M327.57,57.58c14.82-1.88,29.8-1.97,44.68-.86,.61,.05,1.55-.17,2.05-.55,.42-.32,.44-.52-.15-.56-15.09-1.12-30.28-1.01-45.3,.89-.51,.06-1.64,.19-1.94,.67s.25,.46,.67,.41h0Z"/>
    <path class="cls-1" d="M183.67,37.4c2.05,.59,3.54,2.16,4.5,4.02,.52,1.01,.89,2.1,1.12,3.21,.07,.32,.12,.65,.16,.98,.03,.21,.05,.43,.06,.64,.1,1.41,.11,.55,.04-2.58-.08,.81-.13,1.61-.25,2.42-.83,5.4-3.17,10.44-3.56,15.93-.07,1.02-.02,2.06-.02,3.08,0,.49-.03,1,.01,1.49,0,.05,0,.49,.02,.25,.48-6.65,3.75-12.73,3.84-19.45,.07-5.1,.36-13.21-5.91-14.99,.07,.02-.02,2.3-.02,2.5,0,.22-.13,2.46,.02,2.5h0Z"/>
    <path class="cls-1" d="M181.14,68.29c4.24,.82,8.51,0,12.22-2.19v-2.5c-.82,6.07-1.64,12.13-2.46,18.2l-.3,2.25c-.07,.54,0,1.81-.3,2.25,.04,.24-.04,.3-.25,.18l-.65-.13-1.09-.21-2.18-.42c-2.98-.58-5.97-1.15-8.95-1.73v2.5c.72-3.51,1.45-7.02,2.17-10.54,.35-1.72,.7-3.44,1.06-5.16,.27-1.3,.57-2.65,1.6-3.57,.13-.12,.01-1.07,.01-1.25s-.14-1.13-.01-1.25c-1.03,.92-1.32,2.27-1.6,3.57-.36,1.72-.71,3.44-1.06,5.16-.72,3.51-1.45,7.02-2.17,10.54-.05,.23-.07,2.49,0,2.5,2.91,.56,5.82,1.12,8.73,1.68l2.18,.42c.35,.07,1.92,.61,2.18,.42s.25-1.86,.3-2.25l.33-2.47c.82-6.07,1.64-12.13,2.46-18.2,.05-.34-.21-2.38,0-2.5-3.71,2.19-7.98,3.01-12.22,2.19,.14,.03-.17,2.47,0,2.5h0Z"/>
    <path class="cls-1" d="M113.6,54c-.2,11.05-.41,22.11-.61,33.16-.02,1.2,2.88,.61,2.9-.36,.2-11.05,.41-22.11,.61-33.16,.02-1.2-2.88-.61-2.9,.36h0Z"/>
    <path class="cls-1" d="M99.5,68.89c6.05,.62,12.1,1.27,18.16,1.85,5.45,.52,10.91,.62,16.12-1.3,.47-.17,1.13-.75,.74-1.28s-1.44-.28-1.94-.1c-4.84,1.78-10.17,1.24-15.18,.73-5.61-.57-11.22-1.14-16.82-1.72-1.23-.13-3.04,1.61-1.08,1.81h0Z"/>
    <path class="cls-1" d="M253.44,65.73c9.51-3.36,19.89-3.71,29.65-1.25,.65,.17,1.57-.06,2.05-.55,.44-.44,.33-.93-.29-1.09-10.77-2.72-22.11-2.09-32.57,1.61-.44,.16-1.14,.71-.76,1.22s1.45,.23,1.93,.06h0Z"/>
    <path class="cls-1" d="M253.65,76.1c9.93-.14,19.87-.27,29.8-.41,.54,0,1.63-.21,1.93-.74s-.25-.68-.74-.67c-9.93,.14-19.87,.27-29.8,.41-.54,0-1.63,.21-1.93,.74s.25,.68,.74,.67h0Z"/>
    <path class="cls-1" d="M327.13,59.83c14.56,7.39,32.99,7.08,47.26-.87,.37-.21-.34-2.31,0-2.5-14.27,7.96-32.7,8.27-47.26,.87,.32,.16-.35,2.32,0,2.5h0Z"/>
    <path class="cls-1" d="M374.16,60.09c1.31,1.81,2.29,3.83,2.94,5.96,.33,1.07,.58,2.17,.75,3.28,.09,.56,.15,1.13,.2,1.69,.03,.37,.04,.75,.06,1.12,.04-3.43,.04-4.46-.01-3.1,0,.16-.02,.33-.03,.49-.06,1.02-.02,2.05-.02,3.08,0,.5,0,1,.01,1.49,0,.05,0,.49,.02,.25,.14-2.29,.11-4.6,.04-6.89-.04-1.49-.21-2.98-.51-4.43-.6-2.84-1.74-5.58-3.45-7.94,.04,.06-.02,.77-.02,.73,0,.59,0,1.18,0,1.77s0,1.18,0,1.77c0,.16-.07,.61,.02,.73h0Z"/>
    <path class="cls-1" d="M378.28,77.39c3.39-1.8,7.31-3.88,11.24-2.63,3.44,1.1,4.96,4.27,5.36,7.64,.04,.34,.07,.68,.09,1.02,.02,.45,.02,.48,.02,.09,0,.47-.05,.94-.12,1.4-.15,.96-.46,1.88-.9,2.75-.75,1.48-1.84,2.76-3.08,3.85-2.95,2.59-6.59,3.75-10.46,3.94-.06,0,.02,2.5,0,2.5,6.25-.3,13.84-4.1,14.51-11.09,.48-5.02,.51-12.57-5.25-14.54-3.98-1.36-7.97,.74-11.41,2.57-.36,.19,.33,2.32,0,2.5h0Z"/>
    <path class="cls-1" d="M379.92,84.51c1.02-2.09,4.24-2.59,5.97-1.14,.43,.36,.77,.82,.97,1.34,.09,.24,.15,.48,.19,.74,.08,.45,.08-.99,0-.63-.01,.07-.02,.14-.03,.21-.03,.14-.06,.27-.11,.41-.36,.98-1.34,1.59-2.26,1.96-1.11,.45-2.47,.68-3.61,.23,.03,.01,0,.57,0,.62,0,.06-.04,.61,0,.62,1.11,.43,2.41,.23,3.49-.18,1.02-.39,2.11-1.06,2.44-2.17,.19-.64,.13-1.37,.1-2.02-.02-.56-.18-1.1-.48-1.58-.69-1.1-1.93-1.66-3.21-1.63-1.36,.03-2.84,.7-3.46,1.97-.07,.14,0,.47,0,.62s0,.29,0,.44c0,.04,.02,.15,0,.18h0Z"/>
    <path class="cls-1" d="M380.15,88.09l.89,2.65c0-.07,.01-.14,0-.22,0-.17,0-.34,0-.52,0-.59,0-1.18,0-1.77s0-1.18,0-1.77v-.39c0-.11,0-.23-.02-.34l-.89-2.65c0,.07-.01,.14,0,.22,0,.17,0,.34,0,.52,0,.59,0,1.18,0,1.77s0,1.18,0,1.77v.39c0,.11,0,.23,.02,.34h0Z"/>
    <path class="cls-1" d="M380.76,99.2c.46,.49,.8,1.04,1.01,1.68,.09,.28,.14,.57,.2,.86,.27,1.24-1.08,2.67,.03-3.14-.04,.21-.05,.42-.09,.63-.25,1.39-.85,2.8-1.85,3.83-2.72,2.79-7.14,2.33-10.68,2.32-9.26-.01-18.53-.02-27.79-.04-5.29,0-10.59-.01-15.88-.02-.03,0-.04,5,0,5,10.34,.01,20.68,.03,31.02,.04,5.11,0,10.22,.03,15.33,.02,3.72,0,7.79-.6,9.37-4.47,.83-2.04,.65-4.27,.65-6.42,0-1.88,.08-3.83-1.31-5.29,.24,.25-.02,2.12-.02,2.5,0,.59,0,1.18,0,1.77,0,.14-.07,.64,.02,.73h0Z"/>
    <path class="cls-1" d="M328.21,58.12c-2.38,9.47-4.14,19.08-5.27,28.78-.55,4.7-.84,9.36-.71,14.1,.1,3.53,1.02,8.43,4.84,9.79-.09-.03,.02-2.29,.02-2.5,0-.23,.15-2.44-.02-2.5-3.21-1.14-4.43-4.99-4.74-8.06s-.2,3.28-.05,1.19c.05-.67,.08-1.34,.14-2.01,.09-1.03,.2-2.06,.31-3.08,.22-2.08,.48-4.16,.76-6.23,1.12-8.24,2.7-16.41,4.73-24.47,.19-.74,.02-1.74,.02-2.5s-.21-1.77-.02-2.5h0Z"/>
    <path class="cls-1" d="M322.31,94.59c-2.67-.68-5.05,.2-7.5,1.23-2.1,.89-4.29,1.48-5.99,3.08-3,2.81-3.71,6.96-3.18,10.9,.73,5.38,5.45,7.88,10.25,8.98,5.72,1.32,11.55,2.17,17.39,2.73,11.8,1.14,23.67,1.04,35.51,.84,5.84-.1,11.88,.06,17.53-1.66,3.87-1.18,7.6-3.76,8.96-7.73,.67-1.94,.63-4.07,.55-6.1-.1-2.44-1.02-4.79-2.55-6.69-1.67-2.08-3.83-3.12-6.24-4.13-2.14-.9-3.99-.94-6.27-.57-.15,.02,.11,2.48,0,2.5,1.76-.28,3.45-.45,5.16,.14,1.81,.62,3.77,1.41,5.3,2.56s2.88,2.86,3.68,4.7c.4,.92,.71,1.92,.82,2.92,.07,.59,.06-.36,0,.22-.03,.25-.07,.49-.13,.73-.11,.53-.26,1.04-.45,1.55-3.44,8.93-15.61,8.87-23.47,9.01-10.88,.19-21.77,.38-32.63-.32-5.39-.35-10.76-.92-16.09-1.81-2.57-.43-5.14-.92-7.67-1.53-2.24-.54-4.47-1.3-6.26-2.8-1.68-1.41-3.31-3.77-3.39-6.04,.02,.48,.03-.1,.05-.19,.08-.37,.15-.73,.26-1.1,.16-.54,.37-1.06,.61-1.56,.51-1.04,1.19-1.99,2-2.81,1.75-1.76,4.03-2.38,6.25-3.32,2.44-1.04,4.83-1.91,7.5-1.23-.18-.05,.22-2.44,0-2.5h0Z"/>
    <path class="cls-1" d="M319.2,100.57c-2.49,.07-6.02,.41-6.72,3.36-.19,.8-.12,1.67-.12,2.48,0,.75,0,1.49,.19,2.22,.4,1.42,1.34,2.58,2.54,3.4,1.48,1.02,3.22,1.56,4.92,2.09-.04-.01,.01-1.15,.01-1.25,0-.11,.07-1.22-.01-1.25-3.11-.96-6.91-2.3-7.57-5.95-.15-.84,.32-.63-.05,1.2,.04-.2,.06-.4,.12-.59,.1-.34,.25-.67,.44-.97,.41-.62,1-1.1,1.67-1.42,1.41-.69,3.04-.78,4.58-.82,.04,0,0-2.5,0-2.5h0Z"/>
    <path class="cls-1" d="M320.17,114.34c11.9,1.81,23.94,2.66,35.99,2.48,5.97-.09,11.94-.43,17.89-1.01,2.7-.26,5.45-.47,8.11-.98,2-.38,4.04-1.24,4.98-3.17,.85-1.73,.94-9.51-2.52-8.25-.29,.1,.25,2.41,0,2.5,1.47-.54,2.38,.99,2.72,2.21,.05,.19,.08,.38,.13,.57,.19,.67-.45,.09,.04-.74-.17,.28-.16,.77-.31,1.09-.39,.87-1.07,1.6-1.85,2.12-1.67,1.11-3.75,1.29-5.68,1.53-2.68,.33-5.37,.62-8.07,.85-10.92,.95-21.92,1.06-32.85,.34-6.22-.41-12.41-1.1-18.57-2.04,.11,.02-.14,2.48,0,2.5h0Z"/>
    <path class="cls-1" d="M354.5,24.75c-6.96,1.04-14.47,7.47-13.24,15.12,.3,1.84,1.64,3.27,3.51,3.51,2.06,.27,4.16-.68,5.9-1.69,3.27-1.89,7.21-4.66,7.55-8.78,.25-3.01-.38-7.12-3.71-8.17,.11,.03-.13,1.21,0,1.25,1.36,.43,2.34,1.49,2.95,2.75,.29,.61,.5,1.27,.63,1.93,.02,.11,.15,1.2,.15,1.2-.11-.03,.07-.82-.04,.08-.03,.23-.06,.45-.12,.68-.79,3.51-4.18,5.88-7.08,7.61-2.6,1.55-7.15,3.4-9.17-.02-.18-.31-.32-.64-.42-.98-.11-.37-.05-.95-.21-1.28v.53c.02-.22,.04-.45,.07-.67,.03-.19,.06-.38,.1-.57,.1-.46,.23-.91,.39-1.35,.59-1.61,1.57-3.1,2.7-4.39,2.58-2.96,6.17-4.94,10.05-5.52,.07-.01-.05-1.24,0-1.25h0Z"/>
    <path class="cls-1" d="M343.61,40.86c.24-2.4,2.55-3.72,4.48-4.71,2.25-1.16,4.85-2.09,6.6-3.99,.93-1,1.4-2.21,1.44-3.57,0-.28,0-.57,0-.86,0-.06,0-.45,0-.22-.06,2.62-2.14,4.3-4.25,5.48s-4.64,2.03-6.56,3.65c-.92,.77-1.59,1.76-1.71,2.98-.04,.41,.04,.84,0,1.25h0Z"/>
    <path class="cls-1" d="M364.59,.68c-2.05,3.19-2.72,6.75-2.64,10.49s1.24,8.38,4.76,10.13c3.94,1.95,6.29-2.44,7.02-5.6s1.19-7.2,.15-10.42c-1.12-3.46-5.72-6.72-9.29-4.59-.19,.11,.18,1.14,0,1.25,2.49-1.49,5.77-.15,7.63,1.77,2.71,2.79,2.31,7,1.56,10.49-.55,2.58-1.85,6.05-4.93,6.3-3.51,.28-5.59-3.73-6.35-6.57-1.11-4.13-.2-8.42,2.09-11.99,.19-.3-.19-.96,0-1.25h0Z"/>
    <path class="cls-1" d="M368.55,18.68c-.5-.54-.83-1.18-.99-1.9-.03-.15-.06-.31-.08-.46-.02-.15-.03-.3-.03-.46,0,.65,0,.72,.03,.22,.06-.41,.1-.83,.18-1.24,.33-1.72,.89-3.39,1.29-5.1,.65-2.78,1.01-6.38-1.28-8.52,.2,.19-.21,1.05,0,1.25,.62,.58,1.1,1.26,1.38,2.06,.13,.38,.22,.77,.27,1.17,.01,.11,.02,.22,.03,.34,.02,.33,.02,.22,.01-.33,.1,.09-.05,.73-.07,.89-.21,1.75-.76,3.44-1.21,5.13-.64,2.44-1.46,6.1,.46,8.18-.2-.22,.21-1.02,0-1.25h0Z"/>
    <path class="cls-1" d="M43.07,105.96h9.88c.85,0,1.09-1.13,.11-1.13h-9.88c-.85,0-1.09,1.13-.11,1.13h0Z"/>
    <path class="cls-1" d="M48.7,99.32l3.29-.47c.29-.04,.76-.19,.81-.53s-.41-.41-.64-.38l-3.29,.47c-.29,.04-.76,.19-.81,.53s.41,.41,.64,.38h0Z"/>
    <path class="cls-1" d="M189.99,106.43h9.88c.85,0,1.09-1.13,.11-1.13h-9.88c-.85,0-1.09,1.13-.11,1.13h0Z"/>
    <path class="cls-1" d="M195.62,99.79l3.29-.47c.29-.04,.76-.19,.81-.53s-.41-.41-.64-.38l-3.29,.47c-.29,.04-.76,.19-.81,.53s.41,.41,.64,.38h0Z"/>
    <path class="cls-1" d="M363.17,102.53c4.3-.55,8.59-1.1,12.89-1.64,.32-.04,.77-.23,.79-.61,.02-.36-.37-.56-.68-.52-4.3,.55-8.59,1.1-12.89,1.64-.32,.04-.77,.23-.79,.61-.02,.36,.37,.56,.68,.52h0Z"/>
    <path class="cls-1" d="M367.68,97.05l7.54-1.23c.28-.05,.76-.18,.81-.53s-.41-.41-.64-.38l-7.54,1.23c-.28,.05-.76,.18-.81,.53s.41,.41,.64,.38h0Z"/>
  </g>
</svg>