<?xml version="1.0" encoding="UTF-8"?>
<svg id="Layer_2" data-name="Layer 2" xmlns="http://www.w3.org/2000/svg" viewBox="0 0 151.36 133.21">
  <defs>
    <style>
      .cls-1 {
        fill: #231f20;
      }
    </style>
  </defs>
  <g id="Layer_1-2" data-name="Layer 1">
    <path class="cls-1" d="M48.69,13.41l38.08,20.35c-.15-.08,.02-2.25,.02-2.5,0-.28,.21-2.37-.02-2.5L48.69,8.41c.15,.08-.02,2.25-.02,2.5,0,.28-.21,2.37,.02,2.5h0Z"/>
    <path class="cls-1" d="M48.55,8.96c-3.65,1.52-7.29,3.04-10.94,4.56-.03,.01-.02,.83-.02,.73,0,.59,0,1.18,0,1.77s0,1.18,0,1.77c0,.08,.04,.72,.02,.73,3.65-1.52,7.29-3.04,10.94-4.56,.03-.01,.02-.83,.02-.73,0-.59,0-1.18,0-1.77s0-1.18,0-1.77c0-.08-.04-.72-.02-.73h0Z"/>
    <path class="cls-1" d="M36.98,16c-9.43,14.89-18.87,29.77-28.3,44.66L.58,73.44c-.29,.45-.02,1.96-.02,2.5,0,.59,0,1.18,0,1.77,0,.15,.09,.62,.02,.73,9.43-14.89,18.87-29.77,28.3-44.66l8.1-12.79c.29-.45,.02-1.96,.02-2.5,0-.59,0-1.18,0-1.77,0-.15-.09-.62-.02-.73h0Z"/>
    <path class="cls-1" d="M.29,79.12l41.31,29.78c-.19-.14,.02-2.21,.02-2.5,0-.34,.25-2.3-.02-2.5L.29,74.12c.19,.14-.02,2.21-.02,2.5,0,.34-.25,2.3,.02,2.5H.29Z"/>
    <path class="cls-1" d="M84.35,41.21c-5.64,9.63-11.27,19.26-16.91,28.9l-8.45,14.45c-2.34,4-4.61,8.07-7.36,11.81s-6.27,7.37-10.68,9.4c-.18,.08-.02,2.25-.02,2.5s.19,2.43,.02,2.5c8.06-3.72,12.61-11.95,16.9-19.28,5.64-9.63,11.27-19.26,16.91-28.9,3.2-5.46,6.39-10.93,9.59-16.39,.29-.49,.02-1.93,.02-2.5s0-1.18,0-1.77c0-.16-.09-.61-.02-.73h0Z"/>
    <path class="cls-1" d="M86.32,40.05c-4.47,19.25-12.56,37.63-23.71,53.94-3.13,4.57-6.49,8.98-10.08,13.2-.28,.33-.02,2.05-.02,2.5,0,.59,0,1.18,0,1.77,0,.13,.08,.65,.02,.73,12.79-15.07,22.74-32.52,29.2-51.2,1.81-5.23,3.34-10.55,4.59-15.94,.18-.75,.02-1.73,.02-2.5s-.2-1.75-.02-2.5h0Z"/>
    <path class="cls-1" d="M42.67,111.19c2.05,.83,3.98-.92,5.72-1.74,.84-.4,1.83-.71,2.74-.38,.79,.29,1.45,.96,1.53,1.82v-.34s-.01,.09-.01,.13v-4.57c0,.15-.04,.29-.09,.44-.06,.18-.02,.59-.02,.73,0,.59,0,1.18,0,1.77s0,1.18,0,1.77c0,.2,.08,.55,.02,.73,.1-.29,.11-.57,.12-.87,.02-1.04,.01-2.08,.01-3.12,0-.74,.14-1.7-.24-2.4-.54-.99-1.69-1.36-2.75-1.16-2.34,.45-4.48,3.22-7.03,2.2,0,0-.02,.84-.02,.73,0,.59,0,1.18,0,1.77s0,1.18,0,1.77c0,.09-.03,.71,.02,.73h0Z"/>
    <path class="cls-1" d="M85.2,40.69c-6.15,17.04-14.33,33.33-24.36,48.41-2.87,4.32-5.9,8.54-9.06,12.66-.29,.38-.02,2.02-.02,2.5,0,.59,0,1.18,0,1.77,0,.13,.09,.64,.02,.73,11.03-14.36,20.34-30.04,27.64-46.61,2.09-4.75,4.02-9.58,5.78-14.46,.24-.66,.02-1.8,.02-2.5s-.26-1.84-.02-2.5h0Z"/>
    <path class="cls-1" d="M58.03,27.4l.6-.56,.3-.28c.12,.08,.24,.16,.35,.24,.47,.32,.94,.63,1.41,.95,.88,.6,1.76,1.19,2.65,1.79,1.82,1.23,3.65,2.46,5.47,3.69-.02-.01,.02-.83,.02-.73,0-.59,0-1.18,0-1.77s0-1.18,0-1.77c0-.11,.05-.68-.02-.73-1.82-1.23-3.65-2.46-5.47-3.69-.88-.6-1.76-1.19-2.65-1.79-.47-.32-.94-.63-1.41-.95-.12-.08-.24-.16-.35-.24l-.3,.28-.6,.56c-.05,.05-.02,.77-.02,.73,0,.59,0,1.18,0,1.77s0,1.18,0,1.77c0,.11,.08,.68,.02,.73h0Z"/>
    <path class="cls-1" d="M86.52,29.3l-1.38,9.2v4.91c.2-2.88,.39-5.75,.59-8.63,.07-1.02,.02-2.06,.02-3.08,0-.5,0-1-.01-1.49,0-.05,0-.49-.02-.25-.19,2.88-.39,5.75-.58,8.63-.06,.91-.02,1.83-.02,2.74,0,.48,0,.96,0,1.44,0,.23,.05,.51,.02,.73l1.38-9.2c.12-.8,.03-1.69,.02-2.5,0-.59,0-1.18,0-1.77,0-.23-.05-.51-.02-.73h0Z"/>
    <path class="cls-1" d="M59.38,34.76c5.1-15.69,19.89-27.29,36.13-29.42s34.68,5.71,38.9,22.24c.49,1.9,.63,3.79,.82,5.73,.04,.39,.14-4.11-.01-2.53-.03,.29-.03,.6-.06,.89-.04,.43-.08,.87-.14,1.3-.13,.97-.3,1.93-.53,2.88-.85,3.52-2.42,6.89-4.74,9.68-2.54,3.06-6.21,5.77-10.23,6.35-2.16,.31-4.37-.12-6.1-1.48-.76-.6-1.4-1.37-1.8-2.26-.2-.44-.24-.89-.39-1.34v1.78c-.1,1.89-.08,2.37,.05,1.42,.09-.29,.14-.59,.24-.87,1.64-4.7,6.96-5.78,11.32-6.14,3.9-.32,7.87-.26,11.73,.44,7.75,1.4,15.02,5.98,16.13,14.38,.04,.31,.06,.63,.09,.94,.2,1.89,.19-4.02,0-2.11-.06,.59-.11,1.18-.2,1.77-.19,1.22-.47,2.43-.83,3.62-.68,2.28-1.62,4.48-2.73,6.59-2.06,3.94-4.65,7.64-7.48,11.06-5.72,6.91-12.72,12.76-20.56,17.12-1.96,1.09-3.97,2.08-6.02,2.99-.17,.08-.02,2.25-.02,2.5s.18,2.43,.02,2.5c8.82-3.89,16.82-9.54,23.44-16.56,3.35-3.55,6.34-7.44,8.9-11.59s4.74-8.89,5.37-13.84c.33-2.63,.25-5.35,.17-7.99-.07-2.34-.54-4.65-1.57-6.76-1.74-3.57-4.85-6.16-8.44-7.75-3.85-1.7-8.13-2.35-12.32-2.47s-9.79-.15-13.64,2.24c-1.92,1.19-3.46,3.19-3.69,5.48-.12,1.22-.06,2.48-.05,3.7,0,1.14-.08,2.32,.28,3.42,1.68,5.14,8.14,4.9,12.08,2.9,7.19-3.65,11.13-11.48,11.67-19.29,.3-4.33,.33-8.95-.67-13.2s-2.89-7.76-5.58-10.93c-5.78-6.82-14.45-10.76-23.22-11.84-17.6-2.16-35.77,7.77-43.87,23.48-.99,1.92-1.82,3.93-2.48,5.98-.22,.69-.02,1.78-.02,2.5s.25,1.82,.02,2.5h0Z"/>
    <path class="cls-1" d="M106.88,97.18c4.41,5.46,8.83,10.91,13.24,16.37-.04-.05,.02-.78,.02-.73,0-.59,0-1.18,0-1.77s0-1.18,0-1.77c0-.15,.07-.63-.02-.73l-13.24-16.37s-.02,.78-.02,.73c0,.59,0,1.18,0,1.77s0,1.18,0,1.77c0,.15-.07,.63,.02,.73h0Z"/>
    <path class="cls-1" d="M105.5,90.73c-5.23,2.87-10.18,6.21-14.78,10.01-2.01,1.66-4.57,3.46-5.68,5.91-.53,1.16-.45,2.4-.45,3.65,0,1.36-.22,2.99,.21,4.32,.4,1.22,1.34,2.21,2.13,3.19,1.09,1.35,2.17,2.7,3.26,4.04,2.02,2.5,4.04,5.01,6.05,7.51,.52,.64,1.03,1.28,1.55,1.93,.22,.28,1.34,1.96,1.55,1.93,.23-.03,.73-1.12,.89-1.36,.45-.67,.92-1.33,1.41-1.98,1.57-2.11,3.3-4.11,5.16-5.98,4.24-4.27,9.17-7.83,14.54-10.54,.19-.1,.02-2.24,.02-2.5s-.2-2.41-.02-2.5c-4.41,2.23-8.51,5.01-12.19,8.31-1.86,1.67-3.61,3.46-5.23,5.36-.75,.87-1.46,1.77-2.15,2.69-.73,.97-1.35,2.32-2.2,3.16-.48,.47-.1,.29-.53-.04-.21-.16-.44-.55-.62-.77-.52-.64-1.03-1.28-1.55-1.93-.93-1.16-1.86-2.31-2.79-3.47-1.91-2.37-3.83-4.75-5.74-7.12-.84-1.05-1.73-2.07-2.53-3.15-.37-.49-.71-1-.93-1.58-.67-1.76,1.03-.14-.19,2.92,.11-.29,.16-.61,.28-.9,.97-2.36,3.34-4.06,5.23-5.65,4.74-3.98,9.88-7.47,15.31-10.45,.2-.11,.02-2.23,.02-2.5s-.22-2.4-.02-2.5h0Z"/>
  </g>
</svg>