<?xml version="1.0" encoding="UTF-8"?>
<svg id="Layer_2" data-name="Layer 2" xmlns="http://www.w3.org/2000/svg" viewBox="0 0 190.96 170.65">
  <defs>
    <style>
      .cls-1 {
        fill: #231f20;
      }
    </style>
  </defs>
  <g id="Layer_1-2" data-name="Layer 1">
    <path class="cls-1" d="M7.41,66.98c17.28-.99,34.56-1.97,51.84-2.96l14.63-.84c.13,0-.06-5,0-5-17.28,.99-34.56,1.97-51.84,2.96l-14.63,.84c-.13,0,.06,5,0,5h0Z"/>
    <path class="cls-1" d="M74.65,63.84l9.14,21.24c-.05-.11,.02-.68,.02-.73,0-.59,0-1.18,0-1.77s0-1.18,0-1.77c0-.2,.06-.55-.02-.73l-9.14-21.24c.05,.11-.02,.68-.02,.73,0,.59,0,1.18,0,1.77s0,1.18,0,1.77c0,.2-.06,.55,.02,.73h0Z"/>
    <path class="cls-1" d="M7.19,65.57L.47,84.09c-.06,.17-.02,.6-.02,.73,0,.59,0,1.18,0,1.77s0,1.18,0,1.77c0,.19,.08,.56,.02,.73l6.72-18.52c.06-.17,.02-.6,.02-.73,0-.59,0-1.18,0-1.77s0-1.18,0-1.77c0-.19-.08-.56-.02-.73h0Z"/>
    <path class="cls-1" d="M1.02,91.15c1.61,19.06,3.22,38.11,4.83,57.17l1.39,16.4c-.14-1.65,.14-3.34,0-5-1.61-19.06-3.22-38.11-4.83-57.17l-1.39-16.4c.14,1.65-.14,3.34,0,5h0Z"/>
    <path class="cls-1" d="M7.29,167.76c23.61,2.33,47.36,3.16,71.07,2.47,6.75-.2,13.5-.52,20.24-.96,.15,0-.07-5,0-5-23.67,1.55-47.44,1.6-71.11,.12-6.74-.42-13.47-.97-20.19-1.63,.13,.01-.2,4.98,0,5h0Z"/>
    <path class="cls-1" d="M82.79,86.95c3.24,20.73,6.49,41.46,9.73,62.19,.93,5.92,1.85,11.85,2.78,17.77-.25-1.62,.26-3.37,0-5-3.24-20.73-6.49-41.46-9.73-62.19-.93-5.92-1.85-11.85-2.78-17.77,.25,1.62-.26,3.37,0,5h0Z"/>
    <path class="cls-1" d="M33.55,77.71h18.39s.04-5,0-5h-18.39s-.04,5,0,5h0Z"/>
    <path class="cls-1" d="M43.8,80.22c-1.75-6.63-3.13-13.37-3.75-20.2-.16-1.79-.27-3.59-.32-5.39-.05-2.03,.06,.69,0,.75,.11-.09,.04-1.36,.05-1.59,.04-.92,.1-1.83,.18-2.75,.26-2.92,.71-5.83,1.36-8.69,2.28-10.19,6.96-20.21,14.33-27.71,6.19-6.3,14.48-10.49,23.48-9.49s17.32,6.85,23.01,13.96c3.39,4.23,6.06,9.03,8,14.09,1.09,2.83,1.96,5.74,2.59,8.7,.32,1.48,.58,2.97,.77,4.47,.11,.89,.2,1.78,.26,2.67,.03,.44,.05,.88,.07,1.32,.04,1.15,.04,.61,0-1.65-.01,.3-.02,.6-.04,.9-.34,5.69-2.02,11.76-6.06,15.97-2.94,3.07-7.21,4.48-11.03,2.14s-5.99-6.8-7.19-10.93c-.33-1.14-.59-2.3-.78-3.47-.11-.65-.19-1.31-.25-1.97-.04-.39-.05-.78-.09-1.17-.16-1.87-.14,4.04,.02,1.62,.19-2.79,.85-5.55,1.86-8.16,1.83-4.75,4.93-9.01,9-12.08,4.4-3.32,9.65-4.84,15.13-4.93,3.46-.06,6.91,.4,10.31,1.04,2.86,.54,5.88,1.01,8.62,2.01,3.73,1.36,6.71,4.04,9.02,7.22,4.93,6.77,7.14,15.08,11.85,21.99,1.06,1.55,2.25,3,3.62,4.27-.22-.21,.02-2.15,.02-2.5,0-.59,0-1.18,0-1.77,0-.13,.06-.66-.02-.73-6.45-5.99-8.86-15.11-13.11-22.57-2.08-3.65-4.66-7.16-8.28-9.41-2.05-1.27-4.25-1.91-6.59-2.43-3.56-.8-7.13-1.55-10.76-1.91-6.2-.61-12.56,.09-17.93,3.43-4.55,2.83-8.12,7.1-10.3,11.97-2.52,5.64-2.79,11.67-2.48,17.76,.26,5.06,1.74,10.38,4.84,14.46,2.61,3.43,6.68,5.65,10.92,3.74,5.04-2.28,7.83-8.25,8.94-13.36,.73-3.33,.81-6.7,.81-10.09s-.11-6.81-.67-10.2c-1.02-6.21-3.08-12.29-6.07-17.83-4.86-9-12.6-17.12-22.51-20.37-4.34-1.42-9.01-1.79-13.48-.83s-8.8,3.28-12.4,6.24c-8.52,6.99-13.98,17.4-16.8,27.91-1.6,5.97-2.26,12.07-2.3,18.24-.05,7.33,.39,14.54,1.73,21.76,.66,3.55,1.48,7.06,2.4,10.55-.19-.7,.02-1.77,.02-2.5,0-.77,.17-1.75-.02-2.5h0Z"/>
    <path class="cls-1" d="M169.21,54.88l-14.85,3.41-7.18,1.65c-1.64,.38-3.91,.65-4.94,2.17-.46,.68-.47,1.44-.48,2.22-.02,1.39-.04,2.79,.01,4.18,.08,2.14,1.25,3.99,2.24,5.83,2.42,4.49,4.83,8.98,7.25,13.47,1.17,2.17,2.34,4.35,3.51,6.52,.58,1.09,1.17,2.17,1.75,3.26,.31,.58,.62,1.16,.94,1.74,.11,.2,.21,.48,.35,.65,.05,.43,.2,.54,.46,.33l.45-.21c4.61-2.16,9.23-4.32,13.84-6.49s9.02-4.17,13.49-6.32c1.53-.74,3.28-1.62,4.05-3.23,.34-.7,.37-1.42,.38-2.18,.02-1.42,.04-2.85,0-4.28-.07-2.17-1.31-3.96-2.7-5.55-1.75-2.02-3.77-3.82-5.68-5.68-4.14-4.04-8.28-8.07-12.42-12.11,.23,.22-.02,2.14-.02,2.5,0,.59,0,1.18,0,1.77,0,.13-.06,.65,.02,.73,3.96,3.86,7.93,7.73,11.89,11.59,1.88,1.83,3.83,3.62,5.62,5.55,1.52,1.64,3.09,3.55,3.28,5.87l-.02-3.16v.35c0-.61,.02-1.22,.02-1.84-.16,1.8-1.36,2.97-2.85,3.85-1.94,1.16-4.09,2-6.13,2.96-4.54,2.13-9.08,4.25-13.62,6.38-2.23,1.05-4.46,2.09-6.7,3.14l-1.56,.73c-.19,.09-1.33,.81-1.56,.73s-.81-1.5-.94-1.74c-.31-.58-.62-1.16-.94-1.74-2.38-4.42-4.75-8.84-7.13-13.25-1.32-2.46-2.65-4.92-3.97-7.39-1.23-2.28-3.21-4.93-3.28-7.61v4.91c.17-2.14,2.07-2.86,3.92-3.32,2.56-.63,5.13-1.18,7.7-1.77l15.81-3.63c.4-.09-.33-4.92,0-5h0Z"/>
    <path class="cls-1" d="M82.69,83.25c6.11,13.11,11.26,26.66,15.36,40.52,2.03,6.86,3.81,13.79,5.33,20.78,.76,3.49,1.46,7,2.09,10.52,.11,.64,.23,1.28,.32,1.93,.05,.34,.09,.69,.12,1.04,.21,2.59,.27-3.88,0-1.34-.14,1.27-.55,2.55-1.49,3.46-2.28,2.2-6.33,.72-8.16,3.55-.72,1.12-.59,2.39-.59,3.67,0,1.18-.26,2.55,.87,3.28-.13-.08,.02-1.67,.02-1.88,0-.24,.18-1.75-.02-1.88-.55-.35-.79-.76-.85-1.41v3.49c.01-.08,.01-.17,.02-.25v.26c.38-3.03,3.31-3.26,5.73-3.74,2.81-.56,4.31-2.38,4.51-5.21,.43-6.06-1.01-11.99-2.26-17.88-2.94-13.84-6.89-27.46-11.81-40.73-2.76-7.44-5.82-14.75-9.17-21.94,.19,.4-.02,1.42-.02,1.88,0,.5-.2,1.41,.02,1.88h0Z"/>
    <path class="cls-1" d="M83.76,91.23c7.68,16.98,12.91,35.04,15.46,53.51,.73,5.32,1.24,10.66,1.53,16.02-.05-.89,.07-2.48,0-3.62-1.01-18.63-4.69-37.09-10.95-54.68-1.81-5.08-3.83-10.08-6.05-14.99,.18,.41-.02,1.42-.02,1.88,0,.5-.19,1.41,.02,1.88h0Z"/>
  </g>
</svg>