<?xml version="1.0" encoding="UTF-8"?>
<svg id="Layer_2" data-name="Layer 2" xmlns="http://www.w3.org/2000/svg" viewBox="0 0 168.44 287.72">
  <defs>
    <style>
      .cls-1 {
        fill: #231f20;
      }
    </style>
  </defs>
  <g id="Layer_1-2" data-name="Layer 1">
    <path class="cls-1" d="M134.06,174.96c.23,2.25,.39,4.5,.49,6.76,.02,.47,.04,.94,.05,1.41,0,.22,.03,2.45,.04,1.02,0-1.32-.02,.48-.03,.82-.02,.61-.04,1.21-.06,1.82-.19,4.34-.61,8.67-1.28,12.96-1.29,8.39-3.47,16.65-6.47,24.59-3.01,7.96-6.84,15.6-11.43,22.76s-9.98,14.22-16.29,20.01c-3.29,3.02-7.01,5.42-11.27,6.81s-9.14,1.97-13.79,2.39c-9,.82-18.52,1.79-27.24-1.24-8.25-2.87-14.26-9.43-19.19-16.37-5.27-7.42-9.79-15.38-13.57-23.65C6.39,218.37,1.82,200.26,.75,181.94c-.06-1.08-.11-2.17-.15-3.25-.02-.64-.04-1.28-.06-1.92,0-.45,0-2.37-.02-.41,0-1.18,.01-2.36,0-3.54,0-.73-.03-.96-.04,0-.08,9.84,.36,19.61,1.96,29.33,1.58,9.57,4.09,18.99,7.49,28.07,3.37,9.03,7.62,17.74,12.68,25.95,4.77,7.74,10.19,15.88,17.99,20.89,8.27,5.31,18.26,5.43,27.73,4.73,9.59-.71,19.83-1.22,27.8-7.23,3.74-2.82,6.93-6.35,9.94-9.91s5.66-7.09,8.17-10.86c5.02-7.53,9.17-15.63,12.4-24.08,6.52-17.09,8.75-35.2,7.88-53.42-.1-2.11-.26-4.23-.48-6.33,.17,1.65-.17,3.35,0,5h0Z"/>
    <path class="cls-1" d="M3.86,175.12c17.47,3.9,35.35,5.83,53.25,5.93,16.87,.09,33.73-1.43,50.36-4.29,8.9-1.53,17.72-3.42,26.47-5.65,.94-.24-.73-1.69-.95-1.84-.78-.57-1.97-1.25-2.98-.99-15.6,3.96-31.46,6.88-47.48,8.46-17,1.67-34.17,1.87-51.18,.24-10.05-.96-20.04-2.55-29.9-4.75-.95-.21-1.18,.42-.64,1.11,.7,.91,1.96,1.53,3.06,1.77h0Z"/>
    <path class="cls-1" d="M134.92,170.11c-5.55-5.26-14.19-6.11-21.45-6.58-8.75-.57-17.56-.41-26.32-.6s-17.02-.35-25.53-.22c-10.02,.15-20.04,.67-30.04,1.37-10.71,.74-21.57,2.29-30.87,8.03-.42,.26-.82,.67-.28,1.02,.5,.32,1.6-.02,2.04-.3,7.96-4.91,17.18-6.41,26.36-7.13,9.76-.76,19.57-1.25,29.35-1.45,8.25-.16,16.51-.06,24.76,.12s16.52,.19,24.77,.45c4.67,.15,9.37,.45,13.95,1.43,3.83,.83,7.67,2.21,10.55,4.95,.68,.64,3.39-.44,2.7-1.09h0Z"/>
    <path class="cls-1" d="M134.79,188.01c1.7-2.88,3.35-5.82,5.89-8.04,2.97-2.6,6.48-4.82,10.36-5.69s8.23-.51,11.53,1.87c3.52,2.53,5.05,6.79,5.31,10.99,.02,.25,.02,.5,.03,.74,.03,.37,.16-4.3-.02-2.58-.06,.59-.08,1.19-.14,1.78-.12,1.12-.3,2.23-.52,3.33-.44,2.27-1.02,4.51-1.73,6.71-1.43,4.47-3.36,8.77-5.72,12.82-4.75,8.19-11.2,15.01-18.28,21.22-7.57,6.63-15.98,11.86-25.56,15.03-.14,.05-.02,2.28-.02,2.5s.14,2.46,.02,2.5c8.94-2.95,16.92-7.69,24.09-13.76,7.52-6.36,14.41-13.44,19.45-21.96,4.71-7.96,8.32-17.38,8.47-26.73,.07-4.62,.33-9.6-2-13.77-2.15-3.85-6.15-5.96-10.49-6.12-5.02-.18-9.39,1.97-13.31,4.92-3.29,2.48-5.29,5.73-7.36,9.23-.29,.48-.02,1.94-.02,2.5,0,.59,0,1.18,0,1.77,0,.16,.09,.61,.02,.73h0Z"/>
    <path class="cls-1" d="M134.31,198.6c1.16-2.05,2.66-3.69,4.53-5.11s3.94-3.12,6.22-4.02c4.72-1.85,10.12-.41,11.96,4.63,.2,.56,.36,1.14,.46,1.72,.04,.24,.08,.47,.11,.71,.31,2.65,.35-4.16-.01-2.13-.24,1.36-.56,2.65-1.1,3.92-1.1,2.61-2.79,4.92-4.53,7.14-3.15,4.01-6.56,7.84-10.44,11.17-4.36,3.75-9.24,6.77-14.45,9.19-.18,.08-.02,2.25-.02,2.5s.19,2.42,.02,2.5c5.03-2.34,9.78-5.24,14.03-8.83s7.97-7.77,11.36-12.17c1.81-2.35,3.51-4.84,4.47-7.67s.82-6.12,.75-9.2c-.06-2.42-.69-4.86-2.33-6.7-1.77-1.99-4.41-2.79-7.02-2.55-3.19,.28-5.58,1.97-8.1,3.78s-4.45,3.51-5.93,6.12c-.28,.5-.02,1.92-.02,2.5s0,1.18,0,1.77c0,.16,.09,.61,.02,.73h0Z"/>
    <path class="cls-1" d="M36.32,273.06c-2.16-1.56-5.5-.84-6.88,1.45-.69,1.14-.6,2.46-.6,3.73,0,1.39,.14,2.62,.87,3.84,2.02,3.36,6.12,4.05,9.7,4.43,4.48,.47,8.98,.79,13.49,.98,8.87,.38,17.75,.28,26.61-.18,4.48-.23,8.96-.54,13.43-.95,3.65-.34,7.66-.89,10.39-3.59,2.28-2.25,2.89-5.62,2.3-8.71s-4.43-5.21-7.1-3.32c-.41,.29,.38,2.23,0,2.5,2.14-1.52,5.05-.4,6.41,1.65,.31,.46,.53,.97,.65,1.51,.26,1.13-.33-.08,.07-.52-.13,.14-.18,.86-.25,1.07-.5,1.56-1.54,2.92-2.8,3.94-2.64,2.13-6.2,2.62-9.47,2.93-3.88,.37-7.78,.64-11.67,.86-8.04,.46-16.1,.64-24.15,.44-3.94-.1-7.88-.29-11.81-.59-3.61-.27-7.52-.31-10.99-1.43-1.78-.57-3.41-1.53-4.51-3.07-.53-.74-.75-1.49-1.05-2.32-.38-1.05-.33,1.05-.01,.53,.17-.27,.19-.7,.35-1,1.27-2.48,4.78-3.31,7.02-1.7-.38-.28,.41-2.21,0-2.5h0Z"/>
    <path class="cls-1" d="M55.18,86.58l27.36,.5s.03-2.5,0-2.5l-27.36-.5s-.03,2.5,0,2.5h0Z"/>
    <path class="cls-1" d="M82.24,88.52l7.12,12.3s0-.37,0-.37c0-.29,0-.59,0-.88s0-.59,0-.88c0-.09,.03-.29,0-.37l-7.12-12.3s0,.37,0,.37c0,.29,0,.59,0,.88s0,.59,0,.88c0,.09-.03,.29,0,.37h0Z"/>
    <path class="cls-1" d="M56.47,85.04c-2.48,2.94-4.96,5.87-7.44,8.81-.03,.03,0,.37,0,.37,0,.29,0,.59,0,.88s0,.59,0,.88c0,.06,.04,.33,0,.37,2.48-2.94,4.96-5.87,7.44-8.81,.03-.03,0-.37,0-.37,0-.29,0-.59,0-.88s0-.59,0-.88c0-.06-.04-.33,0-.37h0Z"/>
    <path class="cls-1" d="M48.76,96.42c-.36,9.95-.73,19.9-1.09,29.85-.04,1.02-.02,2.05-.02,3.08,0,.5-.02,1,.01,1.49,0,.04,.01,.49,.02,.25,.36-9.95,.73-19.9,1.09-29.85,.04-1.02,.02-2.05,.02-3.08,0-.5,.01-1-.01-1.49,0-.04-.01-.49-.02-.25h0Z"/>
    <path class="cls-1" d="M86.58,135.59c.77-9.82,1.54-19.64,2.31-29.47,.13-1.66-.13-3.35,0-5-.77,9.82-1.54,19.64-2.31,29.47-.13,1.66,.13,3.35,0,5h0Z"/>
    <path class="cls-1" d="M63.51,95.7l15.07,1.59c-.07,0,.11-2.49,0-2.5l-15.07-1.59c.07,0-.11,2.49,0,2.5h0Z"/>
    <path class="cls-1" d="M70.61,104.03c.74-25.74,1.48-51.48,2.22-77.22,.21-7.31,.42-14.61,.63-21.92,.03-1.02,.02-2.05,.02-3.08,0-.5,.02-1-.01-1.49,0-.04-.01-.49-.02-.25-.74,25.74-1.48,51.48-2.22,77.22-.21,7.31-.42,14.61-.63,21.92-.03,1.02-.02,2.05-.02,3.08,0,.5-.01,1,.01,1.49,0,.04,.01,.49,.02,.25h0Z"/>
    <path class="cls-1" d="M47.09,131.86c11.65,.9,23.31,1.8,34.96,2.71,.63,.05,1.56-.13,2.05-.55,.39-.34,.44-.65-.19-.7-11.65-.9-23.31-1.8-34.96-2.71-.63-.05-1.56,.13-2.05,.55-.39,.34-.44,.65,.19,.7h0Z"/>
    <path class="cls-1" d="M125.39,183.58c-2.91,26.83-6.68,56.8-28.56,75.41-5.18,4.41-11.17,7.8-17.71,9.7-.24,.07,.21,2.44,0,2.5,11.81-3.43,21.51-11.68,28.46-21.66,7.91-11.36,12.01-24.78,14.47-38.28,1.51-8.33,2.44-16.76,3.35-25.17,.09-.83-.09-1.68,0-2.5h0Z"/>
    <path class="cls-1" d="M2.65,172.31c31.48-1.89,63.03-2.65,94.57-2.27,8.96,.11,17.93,.31,26.88,.6,0,0,.02-1.25,0-1.25-31.52-1.03-63.08-.93-94.6,.32-8.96,.36-17.91,.8-26.86,1.34-.03,0,.02,1.25,0,1.25h0Z"/>
    <path class="cls-1" d="M101.88,172.26c.11,1.16-4.15,1.66-4.81,1.77-3.1,.55-6.25,.85-9.38,1.09-6.88,.52-13.78,.64-20.67,.66s-14.43,0-21.63-.28c-3.26-.12-6.54-.29-9.78-.73-1.16-.16-2.41-.29-3.52-.71s-.71-.84,.28-1.13c2.89-.86,6.08-1.01,9.07-1.2,3.36-.21,6.72-.31,10.08-.36,7.36-.12,14.72-.08,22.08-.1,3.63,0,7.25-.04,10.88-.02,3.31,.02,6.93-.15,10.16,.68,.49,.13,1,.19,.42,.57-.5,.34-1.6,.33-2.2,.41-1.84,.23-3.7,.32-5.54,.38-3.62,.13-7.25,.16-10.88,.21-4.09,.06-8.18,.13-12.27,.19-3.7,.06-7.45,.23-11.15-.1-.54-.05-1.82-.01-2.19-.37l-.31-.21c.27-.21,.58-.33,.91-.37,.46-.13,.96-.17,1.44-.22,1.91-.22,3.85-.28,5.77-.3,4.07-.05,8.13,.18,12.18,.43,.18,.01,.84-.32,.46-.34-4.03-.25-8.07-.48-12.11-.44-1.91,.02-3.83,.08-5.73,.27-.99,.1-2.44,.11-3.3,.71-.68,.48-.05,.74,.53,.9,1.36,.35,2.85,.36,4.25,.41,4.04,.13,8.1-.01,12.14-.08,4.34-.07,8.67-.14,13.01-.21,4-.06,8.03-.05,12.02-.48,1.12-.12,2.66-.16,3.68-.75,.45-.26,.51-.46,.06-.75-1.03-.66-2.99-.58-4.14-.67-1.9-.15-3.81-.2-5.71-.22-8.83-.11-17.66,.01-26.49,.04-7.97,.03-16.1-.12-24,1.04-1.21,.18-2.46,.37-3.62,.77-.33,.12-1.22,.36-1.29,.81-.18,1.19,4.32,1.5,4.95,1.58,8.08,1.03,16.34,.88,24.47,.94s16.51,.02,24.75-.47c3.73-.22,7.47-.53,11.16-1.11,1.93-.3,4.42-.52,6.1-1.64,.29-.19,.62-.44,.58-.83-.02-.18-.75-.04-.72,.19h0Z"/>
  </g>
</svg>