<?xml version="1.0" encoding="UTF-8"?>
<svg id="Layer_2" data-name="Layer 2" xmlns="http://www.w3.org/2000/svg" viewBox="0 0 208.76 204.89">
  <defs>
    <style>
      .cls-1 {
        opacity: .8;
      }

      .cls-2 {
        fill: #231f20;
      }
    </style>
  </defs>
  <g id="Layer_1-2" data-name="Layer 1">
    <path class="cls-2" d="M37.19,204.89c21.69,0,43.39,0,65.08,0h64.83c12.22,0,24.44,0,36.65,0,2.62,0,5.12-2.3,5-5s-2.2-5-5-5c-21.69,0-43.39,0-65.08,0-21.61,0-43.22,0-64.83,0-12.22,0-24.44,0-36.65,0-2.62,0-5.12,2.3-5,5s2.2,5,5,5h0Z"/>
    <path class="cls-2" d="M75.57,166.46c-7.25,9.5-13.69,19.6-20.82,29.19-.81,1.08-.18,2.79,.9,3.42,1.27,.75,2.61,.19,3.42-.9,7.13-9.59,13.57-19.69,20.82-29.19,.82-1.07,.17-2.8-.9-3.42-1.29-.75-2.6-.18-3.42,.9h0Z"/>
    <path class="cls-2" d="M162.93,168.98c7.25,9.5,13.69,19.6,20.82,29.19,.8,1.08,2.16,1.63,3.42,.9,1.07-.62,1.71-2.33,.9-3.42-7.13-9.59-13.57-19.69-20.82-29.19-.82-1.07-2.15-1.64-3.42-.9-1.06,.62-1.72,2.34-.9,3.42h0Z"/>
    <path class="cls-2" d="M66.69,168.05c28.45,0,56.9,0,85.35,0,7.99,0,15.97,0,23.96,0,3.22,0,3.22-5,0-5-28.45,0-56.9,0-85.35,0h-23.96c-3.22,0-3.22,5,0,5h0Z"/>
    <path class="cls-2" d="M53.24,163.09H189.01c2.41,0,2.42-3.75,0-3.75H53.24c-2.41,0-2.42,3.75,0,3.75h0Z"/>
    <path class="cls-2" d="M53.84,161.38c6.04-18.23,9.68-37.21,16.69-55.13,3.55-9.07,8.33-17.4,13.53-25.62,5.01-7.9,10.53-15.98,18-21.78,1.51-1.17,3.02-2.37,4.96-2.66s4.09-.03,6.07,.26c2.45,.37,4.87,.87,7.32,1.27,2.13,.36,4.33,.79,6.5,.67,3.73-.21,7.33-1.54,10.78-2.88,1.46-.57,2.91-1.18,4.4-1.66,1.13-.36,1.86-.62,2.87,.05,3.02,1.98,5.11,4.56,7,7.6,2.3,3.7,4.76,7.29,7.06,11,4.86,7.82,9.1,16.01,12.8,24.43,7.94,18.1,13.38,37.31,16.57,56.81,.43,2.61,.81,5.23,1.16,7.85,.1,.79,1.36,.8,1.25,0-2.67-20.23-7.67-40.18-15.3-59.11-3.58-8.87-7.72-17.52-12.51-25.8-2.35-4.06-4.93-7.94-7.48-11.87-1.94-2.99-3.6-6.28-6.1-8.88-1.24-1.29-2.73-2.51-4.29-3.4-.82-.47-1.66-.34-2.55-.11-3.28,.85-6.36,2.45-9.59,3.48-1.91,.61-3.89,1.12-5.9,1.25-2.42,.16-4.86-.35-7.24-.77-4.19-.73-8.78-2.06-13.06-1.4-1.82,.28-3.21,1.22-4.67,2.3-1.7,1.26-3.31,2.65-4.83,4.12-3.36,3.27-6.3,6.95-9.02,10.75-3.03,4.22-5.79,8.61-8.48,13.05s-5.04,8.47-7.13,12.95c-8.35,17.88-12.24,37.4-17.9,56.2-.67,2.24-1.38,4.48-2.11,6.7-.25,.77,.95,1.09,1.21,.33h0Z"/>
    <path class="cls-2" d="M127.02,41.17c7.28,1.37,12.94,6.13,17.07,12.1,.45,.66,1.54,.03,1.08-.63-4.3-6.22-10.22-11.24-17.82-12.67-.79-.15-1.12,1.06-.33,1.21h0Z"/>
    <path class="cls-2" d="M104.7,56.09c2.91-7.09,9.46-13.41,17.11-14.91,.79-.15,.45-1.36-.33-1.21-8.1,1.59-14.91,8.3-17.98,15.78-.31,.74,.9,1.07,1.21,.33h0Z"/>
    <path class="cls-2" d="M64.12,126.19c-.13-3.88-.59-7.75-1.28-11.57-.72-4.02-1.69-8.12-3.48-11.82-.68-1.4-1.51-2.79-2.65-3.86-1.32-1.24-3.03-2.09-4.48-3.16-4.22-3.12-8.22-6.84-11.13-11.24-1.4-2.12-2.43-4.36-2.95-6.85-.22-1.05-.37-2.15-.33-3.23,.01-.31-.02-.75,.14-1.02,.22-.37,.08-.19,.51-.24,1.86-.2,3.86-.15,5.74-.17,1.97-.03,4.09-.1,5.54,1.44,.61,.65,.95,1.47,1.46,2.2,.56,.81,1.26,1.53,1.95,2.22,1.23,1.23,2.54,2.36,3.91,3.42,2.85,2.2,5.98,4.09,9.37,5.33s7.17,1.8,10.58,.49c3.93-1.5,6.22-5.12,7.55-8.93,.26-.76-.94-1.09-1.21-.33-1.26,3.62-3.5,7.1-7.34,8.29-3.26,1.01-6.79,.26-9.88-.96-3.49-1.38-6.72-3.49-9.59-5.9-1.34-1.13-2.69-2.34-3.82-3.69-1.21-1.44-1.77-3.3-3.58-4.19-1.56-.77-3.58-.68-5.27-.64-1.87,.04-3.74,.13-5.61,.15-3.27,.04-1.22,6.91-.68,8.5,1.61,4.7,5.18,8.74,8.75,12.08,1.79,1.67,3.69,3.23,5.67,4.66,1.46,1.06,3.2,1.89,4.39,3.27,2.82,3.26,3.91,8.13,4.78,12.24,.94,4.44,1.52,8.98,1.68,13.51,.03,.8,1.28,.81,1.25,0h0Z"/>
    <path class="cls-2" d="M122.26,40.58s.04-.28,.01-.12c.01-.09,.03-.17,.04-.26,.03-.19,.07-.38,.11-.57,.09-.42,.21-.83,.36-1.23,.13-.36,.29-.71,.53-1.09,.06-.09,.11-.18,.18-.26,.07-.1,.03-.04,.01-.02,.04-.05,.08-.09,.12-.14,.06-.07,.12-.13,.18-.19,.04-.03,.07-.07,.11-.1,.14-.12-.09,.06,.05-.04,.08-.05,.16-.1,.24-.15,.03-.02,.07-.03,.1-.05-.13,.06,.04-.01,.06-.02,.08-.03,.16-.05,.24-.06,.11-.02-.15,0,.03,0,.06,0,.12,0,.19,0,.05,0,.1,0,.15,0,.04,0,.16,.03,.03,0,.08,.02,.16,.03,.24,.06,.04,.01,.08,.03,.12,.04-.12-.05-.03-.01-.01,0,.04,.02,.09,.05,.13,.07,.03,.02,.15,.11,.04,.02,.07,.05,.13,.11,.18,.17,.02,.02,.05,.05,.07,.08,.11,.12-.05-.07,.01,.01,.11,.15,.2,.31,.28,.48,.02,.03,.03,.07,.05,.1-.06-.13,.02,.04,.02,.06,.03,.08,.06,.16,.08,.24,.06,.2,.11,.4,.15,.6,.02,.11,.04,.21,.06,.32,0,.05,.02,.1,.02,.15,.03,.19-.01-.12,0,.07,.03,.21,.04,.42,.06,.64,.03,.39,.04,.78,.04,1.17,.01,.8,1.26,.81,1.25,0-.01-.86-.06-1.72-.22-2.56s-.47-1.77-1.14-2.36c-.77-.67-1.87-.79-2.79-.36s-1.48,1.33-1.86,2.2c-.43,.98-.69,2.03-.8,3.09-.04,.34,.31,.62,.62,.62,.37,0,.59-.29,.62-.62h0Z"/>
    <path class="cls-2" d="M89.77,69.66c-3.7,1.43-7.76,.22-10.22-2.88s-3.12-7.44-2.13-11.28,3.23-7.18,4.94-10.71,2.86-7.37,3.4-11.28c.61-4.4,.47-8.85-.39-13.21-.16-.79-1.36-.45-1.21,.33,1.79,9.07,.1,18.02-4.22,26.11-1.86,3.49-3.82,7.03-4.2,11.04-.35,3.73,.84,7.69,3.4,10.46,2.77,3,7.12,4.11,10.95,2.63,.74-.29,.42-1.5-.33-1.21h0Z"/>
    <path class="cls-2" d="M93.73,65.07c-2.86,2.3-7.23,1.08-9.26-1.73-2.23-3.09-2.12-7.22-.93-10.68,1.3-3.79,3.78-7.03,6-10.32s4.04-6.56,4.85-10.38c.88-4.16,.63-8.48-.7-12.51-.25-.76-1.46-.43-1.21,.33,1.42,4.31,1.58,8.94,.34,13.31s-3.98,7.99-6.48,11.71c-2.29,3.41-4.45,7.13-4.84,11.3-.32,3.44,.67,7.3,3.45,9.55s6.84,2.56,9.66,.3c.63-.5-.26-1.38-.88-.88h0Z"/>
    <path class="cls-2" d="M158.6,71.52c3.23,1.24,7.34,.63,10.32-1.03,3.42-1.9,5.34-5.89,5.72-9.66,.45-4.45-1.47-8.56-3.51-12.39-2.17-4.07-3.99-8.08-4.92-12.63-1.08-5.25-1.26-10.76-.22-16.03,.16-.79-1.05-1.12-1.21-.33-1.57,7.95-.66,16.7,2.52,24.15,1.69,3.97,4.28,7.55,5.51,11.72s.61,9.1-2.46,12.44c-2.67,2.9-7.77,3.95-11.43,2.54-.75-.29-1.08,.92-.33,1.21h0Z"/>
    <path class="cls-2" d="M155.46,66.99c2.52,2.01,6,1.56,8.65,.03,3.08-1.78,4.65-5.11,4.82-8.58,.46-9.08-7.74-15.19-10.74-23.07-1.85-4.86-1.91-10.23-.28-15.16,.25-.77-.95-1.09-1.21-.33-1.2,3.62-1.52,7.46-.93,11.23s2.24,7.31,4.35,10.55c3.89,5.99,10.66,14,6.21,21.48-1.82,3.05-6.82,5.5-9.99,2.97-.62-.5-1.51,.38-.88,.88h0Z"/>
    <path class="cls-2" d="M80.75,19.74c7.67,.36,15.34,.89,23.01,1.17s14.67,.15,22.01,.18c7.91,.02,15.82-.16,23.72-.4,3.8-.11,7.6-.24,11.4-.35,1.98-.06,3.97-.11,5.95-.16,1.69-.04,3.42,.03,5.09-.2,2.5-.34,4.5-1.9,4.55-4.57,.05-2.29-1.26-4.43-3.17-5.63-2.64-1.65-5.92-1.73-8.92-1.91-3.94-.24-7.88-.54-11.82-.82-7.7-.56-15.42-1.08-23.15-1.12s-15.46,.38-23.17,.93c-4.44,.32-8.87,.68-13.31,1.04-2.13,.17-4.26,.34-6.39,.5-1.88,.14-3.82,.18-5.64,.71-2.56,.74-5.48,2.98-4.76,6,.46,1.94,2.33,4.75,4.59,4.64,.8-.04,.81-1.29,0-1.25-1.14,.06-2.08-1.14-2.62-2-.72-1.13-1.15-2.37-.46-3.64,1.66-3.05,5.91-2.99,8.89-3.21,7.06-.54,14.11-1.16,21.17-1.65s13.79-.83,20.7-.83,14.13,.42,21.19,.92c3.53,.25,7.05,.52,10.58,.76,3.21,.22,6.62,.12,9.76,.91,2.66,.67,5.13,2.39,5.27,5.36,.19,3.75-3.96,3.72-6.66,3.78-14.11,.3-28.2,.98-42.31,.95-7.5-.02-15,.1-22.5-.18s-15.34-.81-23.01-1.17c-.8-.04-.8,1.21,0,1.25h0Z"/>
    <path class="cls-2" d="M75.95,12.78c-1.31,.64-1.31,2.86,.02,3.49,.16,.07,.31,.11,.48,.06,.14-.04,.3-.15,.37-.29,.15-.28,.09-.71-.22-.86-.06-.03-.11-.06-.16-.09-.09-.05,.12,.11,.04,.04-.02-.02-.04-.03-.06-.05-.02-.02-.05-.05-.07-.07-.04-.04-.06-.12,.03,.05-.03-.04-.06-.08-.08-.13-.02-.03-.03-.06-.05-.09-.04-.09,.06,.15,.02,.05-.02-.05-.03-.1-.05-.15-.02-.07-.03-.27-.02-.04,0-.06,0-.11-.01-.17s0-.11,0-.17c0-.11-.03,.17,0,.06,0-.03,.01-.06,.02-.09,.01-.05,.03-.11,.05-.16,.02-.05,.06-.12-.03,.05,.01-.03,.02-.05,.04-.08,.03-.05,.06-.1,.09-.14,.06-.09-.1,.12-.04,.05,.02-.02,.04-.04,.06-.07s.04-.04,.07-.06c.07-.07-.13,.09-.05,.03,.05-.03,.1-.07,.16-.09,.29-.14,.4-.59,.22-.86-.19-.3-.54-.38-.86-.22h0Z"/>
    <path class="cls-2" d="M176.21,14.09s.07,0,.11,0l-.17-.02c.08,.01,.16,.04,.24,.07l-.15-.06c.08,.04,.16,.08,.24,.14l-.13-.1c.07,.06,.14,.12,.19,.19l-.1-.13c.06,.07,.1,.15,.14,.24l-.06-.15c.03,.08,.05,.16,.06,.24l-.02-.17c0,.08,0,.16,0,.25l.02-.17c-.01,.09-.04,.18-.07,.26l.06-.15c-.04,.09-.09,.18-.15,.26l.1-.13c-.05,.06-.11,.12-.17,.17l.13-.1c-.07,.05-.14,.09-.21,.13l.15-.06s-.03,.01-.05,.02c-.16,.06-.29,.14-.37,.29-.08,.13-.11,.33-.06,.48s.14,.3,.29,.37,.33,.12,.48,.06c.37-.14,.68-.38,.89-.72s.27-.75,.21-1.15c-.12-.75-.85-1.29-1.58-1.33-.33-.01-.64,.3-.62,.62,.02,.35,.27,.61,.62,.62h0Z"/>
    <path class="cls-2" d="M92.76,195.99c.56-3.5,4.11-4.93,7.28-5.23,4.27-.4,8.66-.13,12.95-.13s8.71,0,13.06,0c3.7,0,7.46-.16,11.15,.3,3.49,.43,6.89,1.55,9.21,4.33l1.33-3.2c-18.63,.2-37.27,.39-55.9,.59-2.41,.03-2.42,3.78,0,3.75,18.63-.2,37.27-.39,55.9-.59,1.73-.02,2.33-1.99,1.33-3.2-5.1-6.13-14.06-5.73-21.28-5.72-4.93,0-9.86,0-14.79,0s-9.65-.38-14.34,.3c-4.25,.61-8.77,3.22-9.5,7.82-.16,1.01,.26,2.01,1.31,2.31,.89,.25,2.15-.31,2.31-1.31h0Z"/>
    <path class="cls-2" d="M95.72,192.99c14.87-.08,29.75-.16,44.62-.24,2.41-.01,2.42-3.76,0-3.75-14.87,.08-29.75,.16-44.62,.24-2.41,.01-2.42,3.76,0,3.75h0Z"/>
    <path class="cls-2" d="M43,64.09c-14.31-1.65-27.32-10.21-35.21-22.17C3.8,35.87,1.1,28.89,.33,21.65-.55,13.46,2.71,3.81,11.55,1.6c3.62-.91,7.42,.03,9.84,2.95,2.29,2.77,3.11,6.48,.73,9.45v1.23c.22-6.97,6.58-13.11,13.58-12.97s13.61,6.94,12.7,13.87c-.02,.18,.11,1.18,0,1.25,5.35-3.48,13.16-2.93,16.48,3.04,.68,1.23,1.3,2.84,1.25,4.27-.05,1.33-.69,2.76-1.47,3.82-1.51,2.06-4.04,3.42-6.6,3.46-.63,.01-1.26-.06-1.88-.22-.28-.07-.63-.28-.9-.31l-.29-.13c-.17,.19-.35,.38-.53,.56-1.16,1.19-2.43,2.27-3.79,3.22-2.62,1.83-5.56,3.19-8.65,4.03-6,1.62-12.41,1.17-18.06-1.44-6.26-2.89-11.33-8.12-13.94-14.5,.14,.35-.15,.89,0,1.25,5.13,12.53,19.12,19.53,32.19,15.89,3.2-.89,6.25-2.35,8.93-4.31,.67-.49,1.32-1.01,1.94-1.56,.29-.25,.57-.51,.84-.78,.22-.22,.8-1.04,1.07-1.1,.16-.04,.71,.3,.89,.36,.3,.1,.61,.17,.92,.22,.73,.12,1.47,.12,2.2,.01,2.74-.39,5.33-2.22,6.47-4.77,.81-1.81,.87-4.16,.52-6.11-.62-3.47-3.1-6.45-6.41-7.67-3.72-1.37-7.92-.59-11.18,1.53v1.25c.69-5.27-1.2-10.53-5.52-13.79-5.18-3.91-12.09-3.09-16.66,1.37-2.46,2.4-4,5.61-4.11,9.06,0,.23,.14,1.06,0,1.23,3.77-4.69,.86-12.78-4.59-14.71-3.84-1.36-8.13,0-11.21,2.45C2.84,5.77,.98,9.94,.37,14.29c-2.14,15.45,6.37,31.19,18.16,40.65,7.02,5.63,15.51,9.38,24.47,10.41-.04,0,.06-1.24,0-1.25h0Z"/>
    <g class="cls-1">
      <path class="cls-2" d="M140.26,59.59c15.07,19.81,25.71,42.86,31.5,67.04,1.64,6.87,2.89,13.84,3.74,20.85-.05-.41,.05-.84,0-1.25-3.03-24.86-11.06-49.13-23.74-70.74-3.49-5.94-7.33-11.67-11.5-17.15,.2,.26-.2,.98,0,1.25h0Z"/>
    </g>
    <path class="cls-2" d="M91.98,190.11c-3.29,1.23-7.14-1-7.73-4.46v1.25c2.58-.16,5.17-.32,7.75-.47-.03,0,.08-1.2,0-1.25-1.46-.98-2.44-2.46-2.84-4.17-.21-.9-.15-1.75,.14-2.63,.13-.4,.3-.78,.51-1.14,0,0,.27-.52,.34-.53,.1-.02,.79,.64,.93,.75,.99,.8,1.98,1.6,2.97,2.4,.25,.2,.49,.4,.74,.6l.19,.15c.2,.37,.38,.41,.52,.12,.48-.2,1.04-1.19,1.38-1.58,.82-.94,1.64-1.88,2.46-2.81,.1-.11,.33-.48,.46-.53l.15-.18,.16,.72,.48,2.15,.85,3.83c.06,.28,.1,.72,.21,.96,.27,.56-.24,.42,.56,.28,.65-.12,1.42-.63,2.03-.9l3.38-1.5,1.8-.8,.9-.4,.45-.2c.28-.3,.48-.3,.58,0,.36,.23,.77,1.23,1,1.59l1,1.59,.13,.2c.14,.47,.26,.53,.37,.18,.13-.08,.29-.52,.36-.65l1.21-2.18,1.82-3.27,.48-.87c.17-.31,.15-.73,.42-.48,.28,.26,.48,1.12,.7,1.48,2.59,4.12,8.31,4.54,11.61,1.05v-1.25c-.41,1.78,0,3.66,1.62,4.69,2.94,1.88,6.12-.49,8.4-2.32v-1.16c-.03,1.18-.05,2.36-.07,3.54,0,.11,.04,1.15,0,1.16,3.63-1,7.25-1.99,10.88-2.99v-1.25l-3.62,5.28c-.06,.09,.02,1.25,0,1.25,2.48,.16,4.96,.33,7.44,.49v-1.25c-.69,.93-1.38,1.85-2.07,2.78-.63,.85-1.14,1.83-2.12,2.27-1.92,.86-3.83,1.72-5.75,2.58-.16,.07,.15,1.18,0,1.25,1.92-.86,3.83-1.72,5.75-2.58,.97-.43,1.49-1.43,2.12-2.27,.69-.93,1.38-1.85,2.07-2.78,.07-.09-.02-1.25,0-1.25-2.48-.16-4.96-.33-7.44-.49v1.25l3.62-5.28c.09-.14-.1-1.22,0-1.25-3.63,1-7.25,1.99-10.88,2.99v1.16c.03-1.18,.05-2.36,.07-3.54,0-.17-.11-1.08,0-1.16-1.7,1.37-3.65,2.95-5.95,3.02-1.97,.06-4.09-1.39-4.17-3.47v1.23c0-.22,.04-.44,.1-.65,.06-.26-.16-1.08,0-1.25-3.19,3.38-8.71,3.12-11.41-.75-.28-.4-.52-.83-.71-1.27l-.14-.34c-.05-.42-.12-.46-.24-.13-.22,.14-.35,.64-.48,.87l-2.3,4.14-.97,1.74s-.44,.87-.48,.87c-.11,0-.54-.86-.63-1l-1.13-1.79c-.15-.24-.32-.6-.5-.8-.07-.4-.23-.5-.48-.3l-.68,.3-3.83,1.69-2.03,.9c-.61,.27-1.6,.94-2.25,1s-.17,.51-.56-.28c-.12-.24-.16-.72-.21-.96l-.43-1.91-.48-2.15c-.11-.47-.2-2.02-.53-2.39l-.05-.24-.61,.7-.61,.7c-.41,.47-.82,.94-1.23,1.41-.46,.53-.92,1.06-1.38,1.58-.13,.15-.6,.86-.77,.88-.2,.02-.78-.63-.93-.75-1.05-.85-2.1-1.7-3.15-2.55-.16-.13-.52-.51-.74-.6-.66-.28-.21-.37-.63,.1-.31,.35-.5,.99-.63,1.43-.96,3.2-.1,7.23,2.75,9.15v-1.25c-2.58,.16-5.17,.32-7.75,.47-.01,0-.02,1.14,0,1.25,.58,3.46,4.44,5.69,7.73,4.46,.14-.05-.13-1.2,0-1.25h0Z"/>
    <path class="cls-2" d="M100.82,191.04c-2.01,.62-4.6-.36-5.08-2.57v1.25c1.7-.09,3.4-.18,5.1-.27-.03,0,.08-1.2,0-1.25-.98-.61-2.08-1.89-1.9-2.98,.05-.29,.19-.59,.33-.85,.34-.61,.39-.49,.92-.11,.73,.52,1.62,1.4,2.46,1.74,.21,.33,.39,.37,.55,.1,.17-.17,.34-.34,.5-.51,.34-.34,.67-.67,1.01-1.01,.26-.26,.83-1.09,1.18-1.18,.21-.3,.3-.2,.29,.3l.24,.94c.22,.86,.3,2.02,.72,2.81-.03,.52,.16,.62,.56,.3l.44-.17,1.55-.6,2.89-1.12,.44-.17c.35-.3,.59-.23,.72,.21,.3,.27,.59,.82,.82,1.15l.55,.76,.26-.41c.37-.29,.66-1.04,.91-1.44,.09-.15,1.61-2.7,1.69-2.67,.03,.01,.44,.86,.48,.92,.2,.29,.45,.56,.72,.8,.66,.58,1.48,.97,2.34,1.14,1.65,.32,3.34-.19,4.58-1.3v-1.25c-.2,.92-.2,2.14,.5,2.83,1.84,1.78,4.41,.24,6.08-.93v-1.16c-.02,.68-.03,1.36-.05,2.04,0,.11,.04,1.16,0,1.16,2.38-.57,4.77-1.15,7.15-1.72v-1.25l-2.38,3.04c-.07,.09,.03,1.25,0,1.25,1.63,.09,3.26,.19,4.89,.28v-1.25c-.79,.93-1.65,2.37-2.75,2.9-1.2,.59-2.53,1-3.78,1.49-.15,.06,.13,1.2,0,1.25,1.24-.49,2.58-.9,3.78-1.49,1.1-.54,1.95-1.96,2.75-2.9,.07-.09-.03-1.25,0-1.25-1.63-.09-3.26-.19-4.89-.28v1.25l2.38-3.04c.1-.13-.1-1.23,0-1.25-2.38,.57-4.77,1.15-7.15,1.72v1.16c.02-.68,.03-1.36,.05-2.04,0-.16-.1-1.09,0-1.16-1.16,.81-2.44,1.7-3.91,1.74-1.15,.03-2.72-.69-2.73-2.01v1.16c.02-.1,.04-.19,.06-.29,.05-.23-.15-1.12,0-1.25-1.43,1.28-3.49,1.75-5.32,1.09-.81-.29-1.55-.79-2.11-1.45-.12-.14-.62-1.19-.7-1.21-.09-.02-.95,1.5-1.04,1.64l-.78,1.23c-.12,.19-.86,1.64-1.04,1.64s-.97-1.34-1.1-1.53l-.41-.57c-.11-.28-.3-.29-.58-.02-1.16,.18-2.46,.95-3.55,1.38l-1.33,.52-.89,.34-.24-.94-.48-1.87c-.1-.41-.13-1.06-.36-1.4,0-.58-.16-.62-.46-.13-.22,.22-.45,.45-.67,.67-.45,.45-.9,.9-1.35,1.35l-.34,.34c-.2,.43-.44,.45-.72,.07-.5-.16-1.08-.77-1.52-1.07-.19-.14-1.33-1.13-1.52-1.07s-.42,.64-.49,.79c-.9,2.05-.18,4.89,1.71,6.05v-1.25c-1.7,.09-3.4,.18-5.1,.27-.01,0-.02,1.14,0,1.25,.48,2.21,3.06,3.18,5.08,2.57,.13-.04-.11-1.22,0-1.25h0Z"/>
  </g>
</svg>