<?xml version="1.0" encoding="UTF-8"?>
<svg id="Layer_2" data-name="Layer 2" xmlns="http://www.w3.org/2000/svg" viewBox="0 0 166.11 177.32">
  <defs>
    <style>
      .cls-1 {
        fill: #231f20;
      }
    </style>
  </defs>
  <g id="Layer_1-2" data-name="Layer 1">
    <path class="cls-1" d="M53.64,115.69c17.73,4.71,36.89,5.37,54.97,2.36,4.48-.75,8.93-1.75,13.28-3.07,2.09-.63,4.15-1.34,6.18-2.13,.96-.38,1.92-.77,2.86-1.18-.02,0,.61-.31,.66-.29,.06,.03,.23,.81,.27,.95l.68,2.38c3.18,11.1,6.36,22.2,9.54,33.31,.74,2.57,1.56,5.13,2.13,7.75,.13,.62,.25,1.24,.34,1.87,.04,.28,.08,.55,.1,.83,.16,1.51-.47,2.04,.07-2.45-.16,1.34-.36,2.59-.96,3.82-1.87,3.85-6.12,5.67-10.01,6.78-5.02,1.44-10.25,2.35-15.4,3.18-5.47,.88-10.97,1.54-16.49,1.96-11.05,.85-22.16,.77-33.2-.22-5.51-.5-11-1.23-16.46-2.19-4.41-.78-8.89-1.56-12.99-3.42-3.26-1.48-6.59-3.81-7.61-7.43-.11-.4-.16-.8-.25-1.2,.89,3.99-.23,4.07,.05,2.76,.05-.25,.1-.5,.16-.74,.3-1.14,.82-2.2,1.39-3.22,1.22-2.17,2.65-4.2,3.81-6.41,4.68-8.93,7.54-18.69,12.57-27.46,1.3-2.26,2.73-4.44,4.29-6.52,.29-.39,.02-2.01,.02-2.5,0-.59,0-1.18,0-1.77,0-.14-.09-.64-.02-.73-6.52,8.7-9.91,18.9-14.31,28.7-1.09,2.44-2.25,4.86-3.58,7.18-1.21,2.1-2.71,4.04-3.66,6.27-1.03,2.43-.82,5.02-.8,7.61,.02,1.92,.31,3.68,1.37,5.32,2.15,3.35,6.15,5.19,9.8,6.37,4.95,1.61,10.24,2.34,15.38,3.09,11.43,1.67,23.01,2.34,34.55,2.01,11.54-.33,23.06-1.67,34.36-4.01,4.59-.95,9.68-1.79,13.6-4.54,1.77-1.24,3.19-2.94,3.87-5.01,.82-2.48,.57-5.29,.54-7.85-.06-5.37-2.04-10.57-3.51-15.68-1.66-5.79-3.32-11.58-4.98-17.37l-2.52-8.8-1.16-4.04-.61-2.14c-.08-.29-.14-.68-.27-.95-.29-.61-.17-.46-.79-.18-4.17,1.83-8.51,3.27-12.91,4.4-18.69,4.83-39.02,4.97-57.9,1.14-2.17-.44-4.33-.95-6.47-1.52,.06,.02-.02,2.3-.02,2.5,0,.21-.12,2.46,.02,2.5h0Z"/>
    <path class="cls-1" d="M61.02,175.72c2.11-12.67,8.39-26.11,20-32.65,5.69-3.2,12.47-4.51,18.88-3.01,5.91,1.38,10.6,5.09,14.07,9.99,4.14,5.86,6.7,13.15,6.83,20.35,.02,.95,.03-.81,.03-.9,0-1.14,.01-2.28,0-3.42-.12-6.33-1.85-12.55-4.97-18.06-2.93-5.17-7.18-9.81-12.81-11.99-6.12-2.37-12.98-1.97-18.99,.56s-11.11,7.24-14.8,12.71c-4.32,6.4-6.96,13.84-8.23,21.42-.27,1.63,.27,3.39,0,5h0Z"/>
    <path class="cls-1" d="M77.59,173.72l1.17-5.28,.32-1.44c.07-.32,.07-.97,.27-1.2-.01-.33,.15-.37,.49-.12l.44,.12c.44,.11,.88,.22,1.32,.32,3.18,.7,6.44,1.01,9.69,.94s6.5-.54,9.64-1.39c.34-.09,.75-.31,1.09-.31,.67-.01,.56,.2,.71,.69,.25,.84,.13,2.01,.19,2.89,.11,1.77,.23,3.53,.34,5.3-.06-.89,.08-2.48,0-3.62-.2-3.05-.39-6.1-.59-9.15v-.07c-5,1.57-10.25,2.2-15.47,1.8-1.28-.1-2.56-.26-3.83-.48-.6-.1-1.19-.22-1.78-.35-.52-.12-1.48-.6-1.98-.49-.21-.14-.3-.08-.27,.18l-.11,.48-.21,.96-.48,2.16-.96,4.32c-.27,1.2,.26,2.57,0,3.75h0Z"/>
    <path class="cls-1" d="M90.4,162.84v-.31c0-.44,0-.88,0-1.33,0-.13,0-.26,0-.39,0-.05,0-.11,0-.16v.07c0,.16-.01,.32-.01,.48,0,.44,0,.88,0,1.33v.31c0,.44,0,.88,0,1.33,0,.13,0,.26,0,.39,0,.05,0,.11,0,.16v-.07c0-.16,.01-.32,.01-.48,0-.44,0-.88,0-1.33h0Z"/>
    <path class="cls-1" d="M90.34,152.22c-1.55,.72-2.59,2.39-2.81,4.05-.07,.49-.05,.99-.05,1.49,0,.67-.03,1.35,.03,2.01,.07,.77,.37,1.53,.88,2.12,1.03,1.2,3.06,1.58,4.23,.37,.59-.61,.67-1.32,.68-2.12,0-1.02,.2-2.2-.37-3.1-.51-.81-1.3-1.4-1.83-2.19s-.92-1.75-1.1-2.72c.07,.38-.01,.86-.01,1.25s-.06,.85,.01,1.25c.27,1.46,.97,2.73,1.99,3.79,.46,.48,.96,.97,1.19,1.61,.03,.08,.05,.15,.07,.23v.05c.08,.43,.08,.14,.03-.87v-.97c0,.05-.02,.11-.03,.16-.02,.07-.04,.14-.06,.21-.1,.3-.27,.58-.48,.82-.89,1.01-2.48,1.04-3.57,.35-.55-.35-.99-.87-1.26-1.46-.14-.29-.24-.6-.3-.92-.02-.08-.03-.16-.04-.24-.1-.77,.23-1.32-.03,1.74,.02-.25,.04-.49,.1-.74,.32-1.54,1.3-3.03,2.75-3.7,.09-.04,.01-1.12,.01-1.25,0-.29,0-.59,0-.88,0-.04-.02-.36,0-.37h0Z"/>
    <path class="cls-1" d="M90.29,162.73v-.31c0-.29,0-.59,0-.88,0-.09,0-.17,0-.26,0-.04,0-.07,0-.11v.04c0,.11,0,.21,0,.32,0,.29,0,.59,0,.88v.31c0,.29,0,.59,0,.88,0,.09,0,.17,0,.26,0,.04,0,.07,0,.11v-.04c0-.11,0-.21,0-.32,0-.29,0-.59,0-.88h0Z"/>
    <path class="cls-1" d="M90.38,164.09s.02-2.5,0-2.5-.02,2.5,0,2.5h0Z"/>
    <path class="cls-1" d="M90.39,162.73v-.21c0-.29,0-.59,0-.88,0-.09,0-.17,0-.26,0-.04,0-.07,0-.11v.04c0,.11,0,.21,0,.32,0,.29,0,.59,0,.88v.21c0,.29,0,.59,0,.88,0,.09,0,.17,0,.26,0,.04,0,.07,0,.11v-.04c0-.11,0-.21,0-.32,0-.29,0-.59,0-.88h0Z"/>
    <path class="cls-1" d="M90.38,167.42c.07,0,.08-10,0-10s-.08,10,0,10h0Z"/>
    <path class="cls-1" d="M62.96,116.18c-8.38,15.21-14.96,31.37-19.54,48.12-.2,.73-.02,1.75-.02,2.5s.22,1.78,.02,2.5c4.58-16.75,11.16-32.91,19.54-48.12,.28-.51,.02-1.92,.02-2.5s0-1.18,0-1.77c0-.16-.09-.6-.02-.73h0Z"/>
    <path class="cls-1" d="M80.88,117.84c-3.09,8.53-6.18,17.05-9.28,25.58-.24,.66-.02,1.8-.02,2.5s.26,1.84,.02,2.5c3.09-8.53,6.18-17.05,9.28-25.58,.24-.66,.02-1.8,.02-2.5s-.26-1.84-.02-2.5h0Z"/>
    <path class="cls-1" d="M100.42,120.08c.73,6.32,1.47,12.64,2.2,18.97-.19-1.64,.19-3.35,0-5-.73-6.32-1.47-12.64-2.2-18.97,.19,1.64-.19,3.35,0,5h0Z"/>
    <path class="cls-1" d="M114.38,119.43c5.08,16.55,10.15,33.1,15.23,49.66-.2-.67,.02-1.8,.02-2.5,0-.75,.2-1.77-.02-2.5-5.08-16.55-10.15-33.1-15.23-49.66,.2,.67-.02,1.8-.02,2.5,0,.75-.2,1.77,.02,2.5h0Z"/>
    <path class="cls-1" d="M126.81,116.47c6.41,15.92,11.63,32.31,15.61,49.01-.17-.72,.02-1.75,.02-2.5s.16-1.73-.02-2.5c-3.98-16.7-9.2-33.08-15.61-49.01,.24,.59-.02,1.86-.02,2.5,0,.7-.24,1.84,.02,2.5h0Z"/>
    <path class="cls-1" d="M126.78,112.73c4.59-1.83,8.28-5.14,11.84-8.46,4.04-3.76,8.17-7.45,12.07-11.36,7.01-7.04,12.02-15.79,14-25.57,.99-4.89,1.03-9.88,.92-14.85-.1-4.45-.86-8.86-2.28-13.09-2.85-8.48-8.41-16.43-16.16-21.1-8.82-5.31-19.89-6.07-29.58-2.84-.14,.05-.02,2.28-.02,2.5s.14,2.46,.02,2.5c8.1-2.7,17.13-2.63,25.08,.6s14.24,9.76,18.15,17.37c2.01,3.91,3.41,8.13,4.16,12.47,.17,.97,.3,1.95,.41,2.93,.06,.62,.12,1.25,.15,1.88,.01,.26,.02,.53,.04,.79,.12,1.84,.09-3.92,0-1.51s-.38,4.79-.84,7.14c-1.79,9.08-6.23,17.51-12.56,24.24-4,4.26-8.45,8.13-12.72,12.12-3.83,3.58-7.73,7.27-12.67,9.24-.16,.06-.02,2.26-.02,2.5s.17,2.44,.02,2.5h0Z"/>
    <path class="cls-1" d="M123.09,31.73c10.99,.18,22,6.1,27.2,15.97,1.36,2.59,2.31,5.39,2.81,8.27,.11,.65,.2,1.31,.27,1.97,.05,.5,.07,1,.11,1.49,.09,1.08-.37,2.37,.01-2.44-.12,1.56-.25,3.09-.58,4.63-1.12,5.27-3.87,10.06-7.68,13.85-4.33,4.32-9.88,7.28-15.85,8.56-.38,.08,.3,4.94,0,5,11.35-2.42,21.31-11.2,23.6-22.8,.66-3.35,.59-6.78,.54-10.18-.04-2.9-.41-5.77-1.27-8.55-1.76-5.74-5.38-10.7-10.17-14.29-5.46-4.1-12.19-6.36-19.01-6.47,0,0-.07,5,0,5h0Z"/>
    <path class="cls-1" d="M123.16,31.73c5.21,5.34,8.58,12.23,10.49,19.38,1.03,3.85,1.66,7.81,1.88,11.79,.03,.47,.05,.93,.06,1.4,.07,2.29,.07-3.27,0-.99-.03,1.06-.1,2.13-.19,3.18-.17,1.92-.44,3.83-.82,5.72-.81,4.03-2.11,7.95-4.02,11.59-.28,.53-.02,1.9-.02,2.5s0,1.18,0,1.77c0,.17,.09,.6,.02,.73,3.95-7.54,5.08-15.92,5.1-24.32,.02-9.04-1.05-17.93-4.81-26.25-1.91-4.23-4.45-8.16-7.69-11.49,.23,.24-.02,2.13-.02,2.5,0,.59,0,1.18,0,1.77,0,.13-.07,.65,.02,.73h0Z"/>
    <path class="cls-1" d="M117.59,15.46c-2.25-1.97-5-3.31-7.78-4.36s-5.81-1.84-8.82-2.27c.2,.03-.27,4.96,0,5,3.01,.44,5.97,1.21,8.82,2.27s5.54,2.38,7.78,4.36c-.03-.02,.02-.81,.02-.73,0-.59,0-1.18,0-1.77s0-1.18,0-1.77c0-.12,.06-.66-.02-.73h0Z"/>
    <path class="cls-1" d="M100.99,13.83c.14,.76,.03,1.17,.04-1.79v-1.99c0,.1-.02,.21-.04,.31-.06,.21-.1,.42-.16,.62-.17,.51-.42,1-.72,1.45-.7,1.08-1.63,2-2.62,2.81-2.33,1.9-5.1,3.28-7.94,4.22-5.71,1.9-12.26,1.56-17.79-.82-3.56-1.53-6.43-4.09-8.52-7.34,.04,.07-.02,.75-.02,.73,0,.59,0,1.18,0,1.77s0,1.18,0,1.77c0,.17-.07,.6,.02,.73,2.06,3.2,4.87,5.73,8.36,7.27,3.11,1.37,6.52,1.93,9.89,2.1s6.74-.6,9.86-1.88c2.93-1.2,5.91-2.9,7.99-5.34,.85-1,1.57-2.18,1.71-3.52,.12-1.14,.04-2.33,.04-3.47,0-.87,.05-1.78-.1-2.65,.29,1.61-.29,3.38,0,5h0Z"/>
    <path class="cls-1" d="M54.95,110.69c-7.03-2.25-12.55-7.5-16.43-13.64-2.07-3.27-3.73-6.82-4.84-10.52-.6-2-1.05-4.05-1.36-6.12-.15-1.04-.28-2.08-.36-3.12-.05-.64-.1-1.28-.13-1.93-.01-.29,.01-.62-.03-.9,.05,.32-.05,2.89,0,1.22,.48-15.25,6.25-30.22,15.17-42.5,5.06-6.97,11.19-13.11,18.1-18.24,.24-.18,.02-2.17,.02-2.5s-.26-2.32-.02-2.5c-12.96,9.62-23.15,22.91-28.72,38.09-2.79,7.6-4.42,15.66-4.59,23.76-.09,4.61-.12,9.27,.59,13.84s2.03,8.68,4.05,12.67c3.9,7.72,10.13,14.69,18.56,17.39-.08-.03,.02-2.29,.02-2.5,0-.22,.14-2.45-.02-2.5h0Z"/>
    <path class="cls-1" d="M63.25,13.92c1.52-2.22,4.56-2.41,7-2.67,3.46-.38,6.94-.62,10.42-.73,6.97-.21,13.94,.13,20.86,1-.08-.01,.12-2.48,0-2.5-6.92-.87-13.89-1.21-20.86-1-3.4,.1-6.8,.34-10.18,.7-2.5,.27-5.67,.42-7.24,2.7-.39,.57,.38,1.94,0,2.5h0Z"/>
    <path class="cls-1" d="M80.13,4.03c-1.01,.49-2.12-.38-2.26-1.41v.34s.01-.1,0-.14V7.47c.12-1.44,1.74-2.32,3.05-2.44,1.23-.12,2.5,.29,3.61,.78,1.26,.56,2.44,1.31,3.47,2.22,.86,.76,1.69,1.66,2.06,2.77-.05-.14,.02-.64,.02-.73,0-.59,0-1.18,0-1.77s0-1.18,0-1.77c0-.22,.05-.53-.02-.73-.37-1.13-1.24-2.05-2.12-2.82-1.08-.94-2.31-1.71-3.63-2.27-1.12-.47-2.41-.86-3.63-.66-.73,.12-1.46,.45-2.02,.93-.71,.62-.82,1.32-.83,2.22-.01,1.36-.02,2.72,0,4.07,0,.4,.06,.75,.29,1.09,.44,.65,1.25,1.02,1.98,.66,.04-.02,.02-.82,.02-.73,0-.59,0-1.18,0-1.77s0-1.18,0-1.77c0-.08-.05-.72-.02-.73h0Z"/>
    <path class="cls-1" d="M1.17,31.67c-.51,1.93-.68,3.85-.69,5.85-.02,2.2-.1,4.44,.19,6.63,.55,4.2,2.35,8.13,4.48,11.75,4.44,7.53,10.17,14.07,16.56,20,3.63,3.37,7.41,6.57,11.14,9.84-.22-.19,.02-2.17,.02-2.5,0-.59,0-1.18,0-1.77,0-.12,.06-.66-.02-.73-5.81-5.08-11.76-10.03-17.04-15.67-5.19-5.54-10.08-11.94-13.12-18.95-.83-1.91-1.49-3.9-1.86-5.95-.1-.54-.18-1.08-.23-1.63-.03-.31-.03-.63-.07-.93-.04-.29-.16,4.53,.01,2.75,.12-1.25,.31-2.47,.63-3.69,.19-.73,.02-1.74,.02-2.5s-.22-1.77-.02-2.5h0Z"/>
    <path class="cls-1" d="M37.26,44.19c-6.1,3.6-14.42,3.28-19.93-1.33-2.21-1.85-3.91-4.17-4.5-7-.26-1.28-.47-2.57-.73-3.84-.12-.58-.19-1.82-.71-2.21,.19,.14-.02,2.2-.02,2.5,0,.34-.26,2.29,.02,2.5,.53,.39,.59,1.62,.71,2.21,.26,1.28,.46,2.57,.73,3.84,.59,2.83,2.29,5.15,4.5,7,5.5,4.61,13.83,4.93,19.93,1.33,.21-.12,.02-2.22,.02-2.5s-.23-2.38-.02-2.5h0Z"/>
    <path class="cls-1" d="M1.25,32.93c1.8-.02,3.6,0,5.39-.25s3.55-.78,5.18-1.62c.18-.09-.16-1.17,0-1.25-1.63,.84-3.36,1.38-5.18,1.62s-3.59,.23-5.39,.25c-.01,0,0,1.25,0,1.25h0Z"/>
    <path class="cls-1" d="M105.2,23c4.45,1.72,7.88,5.66,8.97,10.31-.09-.39,.09-.85,0-1.25-1.09-4.65-4.52-8.59-8.97-10.31,.13,.05-.15,1.19,0,1.25h0Z"/>
    <path class="cls-1" d="M99.25,27.47c3.21,.83,5.7,3.71,6.06,7-.04-.41,.05-.84,0-1.25-.36-3.29-2.86-6.18-6.06-7,.09,.02-.11,1.22,0,1.25h0Z"/>
    <path class="cls-1" d="M107.39,105.29c3.84-2.22,7.11-5.32,9.52-9.04,.07-.11,0-.49,0-.62s-.08-.51,0-.62c-2.42,3.71-5.69,6.82-9.52,9.04-.05,.03,0,.55,0,.62s.06,.6,0,.62h0Z"/>
    <path class="cls-1" d="M108.73,98.77c3.92-1.99,6.96-5.49,8.38-9.64,.13-.38-.13-.88,0-1.25-1.42,4.16-4.46,7.66-8.38,9.64-.05,.02,0,.56,0,.62s.05,.6,0,.62h0Z"/>
    <path class="cls-1" d="M123.16,50.43c2.54,5.4,3.7,11.44,2.94,17.39-.05,.41,.05,.84,0,1.25,.86-6.75-.03-13.71-2.94-19.89,.16,.34-.16,.91,0,1.25h0Z"/>
    <path class="cls-1" d="M42.32,84.71c1.52,9.21,8.31,17.16,17.17,20.11-.12-.04,.13-1.21,0-1.25-8.86-2.95-15.65-10.9-17.17-20.11,.07,.4-.07,.84,0,1.25h0Z"/>
  </g>
</svg>